<?xml version="1.0" encoding="UTF-8" standalone="no"?>
<svg
   version="1.1"
   viewBox="0 0 50.308372 50.308364"
   fill="none"
   stroke="none"
   stroke-linecap="square"
   stroke-miterlimit="10"
   id="svg4"
   width="50.308372"
   height="50.308365"
   xml:space="preserve"
   xmlns="http://www.w3.org/2000/svg"
   xmlns:svg="http://www.w3.org/2000/svg"><defs
     id="defs4" /><path
     id="path1"
     style="fill:#000000;stroke:none;stroke-width:0.999997;stroke-miterlimit:2;stroke-dasharray:none;paint-order:fill markers stroke"
     d="M 25.154297,0 C 23.199911,0 21.626953,1.5729577 21.626953,3.5273438 V 25.566406 l -3.105469,-3.107422 c -1.38196,-1.38196 -3.608275,-1.380073 -4.990234,0.002 -1.38196,1.381958 -1.38196,3.606321 0,4.988281 l 9.142578,9.128906 c 0.637207,0.638936 1.513318,1.035156 2.480469,1.035156 0.94113,0 1.795259,-0.375533 2.427734,-0.984375 h 0.01172 l 9.183594,-9.179687 c 1.382254,-1.381666 1.38196,-3.606322 0,-4.988281 -1.381959,-1.381959 -3.606321,-1.381962 -4.988282,0 l -3.107421,3.107421 V 3.5273438 C 28.681641,1.5729576 27.108682,0 25.154297,0 Z M 3.5273438,30.34375 C 1.5729577,30.34375 0,31.916708 0,33.871094 V 46.78125 c 0,1.954386 1.5729587,3.527344 3.5273438,3.527344 H 46.78125 c 1.954385,0 3.527344,-1.572958 3.527344,-3.527344 V 33.871094 c 0,-1.954386 -1.572958,-3.527344 -3.527344,-3.527344 -1.954386,0 -3.527344,1.572958 -3.527344,3.527344 v 9.382812 H 7.0546875 v -9.382812 c 0,-1.954386 -1.5729577,-3.527344 -3.5273437,-3.527344 z" /></svg>
