<?xml version="1.0" encoding="UTF-8" standalone="no"?>
<svg
   version="1.1"
   viewBox="0 0 40 40.000001"
   fill="none"
   stroke="none"
   stroke-linecap="square"
   stroke-miterlimit="10"
   id="svg5"
   width="40"
   height="40"
   xmlns="http://www.w3.org/2000/svg"
   xmlns:svg="http://www.w3.org/2000/svg">
  <defs
     id="defs5" />
  <path
     id="path3"
     style="fill:#000000;stroke:none;stroke-width:1"
     d="M 3.2890625,2.828125 C 1.4728239,2.828125 0,4.2989958 0,6.1152344 0,7.9314719 1.4728239,9.4042969 3.2890625,9.4042969 H 36.710938 C 38.527175,9.4042969 40,7.9314719 40,6.1152344 40,4.3025645 38.523211,2.828125 36.710938,2.828125 Z m 0,13.882813 C 1.4728239,16.710938 0,18.183762 0,20 c 0,1.816237 1.4728239,3.289062 3.2890625,3.289062 H 36.710938 C 38.527175,23.289062 40,21.816237 40,20 40,18.186421 38.524494,16.710938 36.710938,16.710938 Z m 0,13.884765 C 1.4728239,30.595703 0,32.068524 0,33.884766 c 0,1.816237 1.4728239,3.287109 3.2890625,3.287109 H 36.710938 C 38.527175,37.171875 40,35.701003 40,33.884766 40,32.071189 38.524494,30.595703 36.710938,30.595703 Z" />
</svg>
