<?xml version="1.0" encoding="UTF-8" standalone="no"?>
<svg
   version="1.1"
   viewBox="0 0 50.308372 50.308364"
   fill="none"
   stroke="none"
   stroke-linecap="square"
   stroke-miterlimit="10"
   id="svg4"
   width="50.308372"
   height="50.308365"
   xml:space="preserve"
   xmlns="http://www.w3.org/2000/svg"
   xmlns:svg="http://www.w3.org/2000/svg"><defs
     id="defs4" /><path
     id="rect5"
     style="fill:#000000;stroke:none;stroke-width:0.999997;stroke-miterlimit:2;stroke-dasharray:none;paint-order:fill markers stroke"
     d="m 33.871094,0 c -1.954386,0 -3.527344,1.572958 -3.527344,3.527344 0,1.954385 1.572958,3.527344 3.527344,3.527344 h 4.394531 L 21.037109,24.283203 c -1.381959,1.381959 -1.381959,3.606322 0,4.988281 1.38196,1.38196 3.606322,1.38196 4.988282,0 L 43.251953,12.044922 V 16.4375 c 0,1.954386 1.574911,3.527344 3.529297,3.527344 1.954386,0 3.527344,-1.572958 3.527344,-3.527344 V 3.53125 c 0,-0.0013 10e-7,-0.0026 0,-0.0039 0,-0.112895 -0.0054,-0.223862 -0.01563,-0.333985 -1.85e-4,-0.0019 1.87e-4,-0.0039 0,-0.0059 -0.01059,-0.111574 -0.02817,-0.221836 -0.04883,-0.330078 -7.82e-4,-0.004 -0.0031,-0.0077 -0.0039,-0.01172 C 49.928798,1.243626 48.542608,0.038759 46.855469,0.00387 46.830709,0.003322 46.806019,-3e-5 46.781249,-3e-5 Z M 8.716797,5.189453 c -1.954386,0 -3.527344,1.572958 -3.527344,3.527344 v 32.875 c 0,1.954385 1.572958,3.527344 3.527344,3.527344 h 32.875 c 1.954385,0 3.527344,-1.572958 3.527344,-3.527344 V 28.681641 c 0,-1.954386 -1.572958,-3.527344 -3.527344,-3.527344 -1.954386,0 -3.527344,1.572958 -3.527344,3.527344 v 9.382812 H 12.244141 V 12.244141 h 9.382812 c 1.954386,0 3.527344,-1.572958 3.527344,-3.527344 0,-1.954386 -1.572958,-3.527344 -3.527344,-3.527344 z" /></svg>
