<?xml version="1.0" encoding="UTF-8" standalone="no"?>
<svg
   version="1.1"
   viewBox="0 0 140.99999 141"
   fill="none"
   stroke="none"
   stroke-linecap="square"
   stroke-miterlimit="10"
   id="svg12"
   xml:space="preserve"
   width="141"
   height="141"
   xmlns="http://www.w3.org/2000/svg"
   xmlns:svg="http://www.w3.org/2000/svg"><defs
     id="defs12" /><clipPath
     id="p.0"><path
       d="M 0,0 H 521.50134 V 168 H 0 Z"
       clip-rule="nonzero"
       id="path1" /></clipPath><circle
     style="fill:#d4e0e3;fill-opacity:1;stroke:#e03513;stroke-width:5;stroke-miterlimit:2;stroke-dasharray:none;stroke-opacity:1;paint-order:fill markers stroke"
     id="path24"
     cx="70.5"
     cy="70.5"
     r="68" /><path
     id="path19"
     style="fill:#134f5c;fill-opacity:1;stroke-width:1;stroke-miterlimit:2;stroke-dasharray:none;paint-order:fill markers stroke;stroke:none"
     d="m 70.499112,19.617188 c -0.99081,0 -1.981024,0.15905 -2.740234,0.478515 L 12.626065,43.294922 c -1.518419,0.638931 -1.51842,1.66771 0,2.30664 l 7.796875,3.28125 -3.679687,23.140626 a 1.231508,1.231508 0 0 0 1.216797,1.425781 h 9.738281 a 1.231508,1.231508 0 0 0 1.214844,-1.425781 l -3.333985,-20.972657 9.490235,3.994141 v 7.189453 a 35.430902,19.125569 0 0 0 0.873047,3.978516 c -3.081893,5.614238 -4.837891,12.055035 -4.837891,18.902343 0,21.731656 17.662881,39.394536 39.394531,39.394536 21.731652,0 39.396478,-17.66288 39.396478,-39.394536 0,-6.808933 -1.73535,-13.216591 -4.78515,-18.808593 a 35.430902,19.125569 0 0 0 0.82031,-4.072266 v -7.189453 l 22.4414,-9.44336 c 1.51842,-0.63893 1.51842,-1.66771 0,-2.30664 L 73.2413,20.095703 C 72.482091,19.776238 71.489922,19.617188 70.499112,19.617188 Z M 38.534268,70.941406 c 0.266627,0.120158 0.542409,0.222498 0.810547,0.339844 a 35.430902,19.125569 0 0 0 14.210938,7.710938 c -0.218338,2.012692 -0.347657,4.051457 -0.347657,6.123046 0,3.089926 0.268369,6.114746 0.728516,9.074216 -5.367133,1.16222 -10.512098,2.89528 -15.402344,5.09961 -1.923845,-4.33571 -3.021484,-9.11837 -3.021484,-14.173826 0,-5.055453 1.09764,-9.83812 3.021484,-14.173828 z m 63.933592,0.002 c 1.92294,4.334832 3.01953,9.117776 3.01953,14.171875 0,5.054539 -1.09636,9.838749 -3.01953,14.173829 -4.890856,-2.20336 -10.037176,-3.93748 -15.404296,-5.09961 0.46015,-2.95946 0.72852,-5.98429 0.72852,-9.074219 0,-2.059538 -0.12781,-4.086569 -0.34375,-6.08789 A 35.430902,19.125569 0 0 0 101.73544,71.252 c 0.24226,-0.106255 0.49139,-0.200043 0.73242,-0.308594 z m -44.591795,9.107422 a 35.430902,19.125569 0 0 0 12.623047,1.310547 35.430902,19.125569 0 0 0 12.628906,-1.263672 c 0.159792,1.652572 0.257813,3.323036 0.257813,5.017578 0,2.814419 -0.242066,5.569119 -0.654297,8.269539 -3.987508,-0.62988 -8.066063,-0.9961 -12.232422,-0.9961 -4.166359,0 -8.242947,0.36622 -12.230469,0.9961 -0.412239,-2.70042 -0.654297,-5.45512 -0.654297,-8.269539 0,-1.710553 0.09905,-3.396658 0.261719,-5.064453 z M 70.499112,96.79693 c 3.870482,0 7.660455,0.33611 11.371094,0.9121 -1.982735,8.37963 -5.875473,16.00668 -11.228516,22.39063 -0.04417,0.001 -0.103019,0.004 -0.142578,0.004 -0.03956,0 -0.09645,-0.003 -0.140625,-0.004 -5.353042,-6.38395 -9.245782,-14.011 -11.228515,-22.39063 3.710651,-0.57599 7.498658,-0.9121 11.36914,-0.9121 z m -15.708984,1.71289 c 1.800285,7.71295 5.161231,14.79349 9.664062,21.00585 -10.132128,-1.76715 -18.744567,-7.84606 -23.873047,-16.32226 4.519976,-2.01518 9.26488,-3.6093 14.208985,-4.68359 z m 31.419926,0 c 4.9444,1.07417 9.6903,2.66579 14.210926,4.67968 -5.128056,8.47793 -13.739756,14.55854 -23.87304,16.32617 4.502518,-6.21242 7.861896,-13.29306 9.662114,-21.00585 z" /></svg>
