<?xml version="1.0" encoding="UTF-8" standalone="no"?>
<svg
   version="1.1"
   viewBox="0 0 953.18818 168"
   fill="none"
   stroke="none"
   stroke-linecap="square"
   stroke-miterlimit="10"
   id="svg12"
   xml:space="preserve"
   width="953.18817"
   height="168"
   xmlns="http://www.w3.org/2000/svg"
   xmlns:svg="http://www.w3.org/2000/svg"><defs
     id="defs12" /><clipPath
     id="p.0"><path
       d="M 0,0 H 521.50134 V 168 H 0 Z"
       clip-rule="nonzero"
       id="path1" /></clipPath><path
     d="m 225.85077,38.812368 c -2.51899,0 -4.11222,0.480916 -4.78229,1.441353 -0.66148,0.960479 -0.82887,1.639756 -0.50269,2.038446 -1.04201,-0.117805 -1.71165,0.353426 -2.01067,1.413582 -0.29901,1.060149 -0.77506,1.997776 -1.42746,2.813277 -0.56179,0.561791 -0.84427,1.092957 -0.84427,1.591321 0,0.498391 -0.004,0.773262 -0.0142,0.827599 -0.0906,0.244653 -0.24838,0.577416 -0.47491,0.994228 -0.22654,0.407748 -0.44905,0.93614 -0.66653,1.588543 -0.2265,0.897055 -0.43939,1.626624 -0.63875,2.188414 -0.19027,0.561792 -0.46997,1.214894 -0.84147,1.957908 -0.18122,0.489302 -0.4134,0.939183 -0.69429,1.346931 -0.2809,0.39869 -0.80724,1.139957 -1.57744,2.227293 1.0692,0.489301 1.33239,0.649833 0.78872,0.477673 -0.5346,-0.181221 -0.91971,0.153592 -1.1553,1.005338 -0.16645,0.90262 -0.12812,1.527144 0.0944,1.905141 -0.17667,0.115303 -0.29293,0.256352 -0.27215,0.458235 0.0634,0.607092 0.0828,0.992203 0.0556,1.155304 0.3262,0.08156 0.23043,0.237264 -0.28605,0.463789 -0.51647,0.217467 -0.77483,1.033153 -0.77483,2.44669 0.28995,0 0.19215,0.248695 -0.29716,0.747061 -0.48023,0.498359 -0.17642,0.96476 0.91092,1.399695 -1.19607,-0.154037 -1.87331,0.235898 -2.02734,1.16919 -0.15405,0.933301 -0.29046,1.629099 -0.40825,2.091212 -0.20839,0.561791 -0.52391,1.152903 -0.94979,1.769061 -0.41681,0.607098 -0.75646,1.307718 -1.01922,2.105098 -0.34433,0.69771 -0.41597,1.243353 -0.21662,1.632979 0.19938,0.389605 0.18004,0.573531 -0.0556,0.555434 -0.0997,0.344323 -0.4035,0.89684 -0.91092,1.657974 -0.50743,0.761136 -0.81123,2.043224 -0.9109,3.846386 -0.0634,1.223256 -0.40308,2.541159 -1.01923,3.954697 -0.60709,1.413537 -0.91093,2.815514 -0.91093,4.201865 -0.2537,0.815502 -0.47828,1.693181 -0.67762,2.635539 -0.19029,0.942358 -0.36252,1.798686 -0.51656,2.568885 -0.16309,0.208404 -0.43107,0.679627 -0.80259,1.413582 -0.36245,0.724894 -0.0586,1.468939 0.9109,2.230069 -1.01484,-0.44399 -1.62731,-0.28624 -1.8357,0.47489 -0.20838,0.75208 -0.34962,1.33076 -0.42214,1.73852 -0.25371,1.10545 -0.64365,2.23461 -1.16918,3.38538 -0.5165,1.1417 -0.97806,2.40243 -1.38581,3.77973 -0.21743,0.67052 -0.24365,1.16309 -0.0805,1.48024 0.17215,0.30807 -0.0552,0.5306 -0.68042,0.66651 -0.25371,1.81223 -0.68428,3.23555 -1.29138,4.26852 -0.59804,1.02391 -1.09062,2.07865 -1.48024,3.16598 -2.64586,2.65491 -8.70978,4.41305 -18.18771,5.27385 2.95393,2.95394 4.67624,4.22154 5.16555,3.80473 0.48023,-0.41681 0.66693,-7e-4 0.55821,1.24973 2.98111,-0.42587 5.56663,-0.78203 7.75942,-1.07199 2.20185,-0.28996 4.83561,-0.39537 7.89827,-0.31381 0.97861,-0.58899 1.69854,-0.94997 2.16066,-1.08588 0.16291,-0.0479 0.35362,-0.19342 0.5582,-0.38326 0.46287,0.3592 1.34708,0.93966 2.82717,1.83572 1.03297,-0.57994 1.47524,-0.87893 1.33026,-0.89702 1.07829,0.58897 2.10202,0.68473 3.07156,0.28604 0.97858,-0.39868 1.50492,-0.61155 1.57743,-0.63875 0.5618,0.22653 1.35131,0.29612 2.36616,0.20551 1.02391,-0.0906 2.24605,-0.26766 3.66864,-0.53044 1.25951,-1.34105 1.73556,-2.24285 1.42747,-2.70496 -0.29901,-0.47119 -0.37548,-1.72227 -0.2305,-3.75197 -3.06266,0.66146 -5.28719,0.85986 -6.67355,0.59709 -1.37729,-0.19026 -2.45616,-0.19715 -3.23541,-0.025 -0.77925,0.1631 -1.48264,-0.0478 -2.10788,-0.62765 -0.34434,-0.28997 -0.52344,-0.4429 -0.54155,-0.461 -0.01,-0.0181 -0.0166,-0.54447 -0.0166,-1.57744 -0.5795,-0.4893 -0.87367,-0.77864 -0.88314,-0.86926 0,-0.0906 0.0793,-0.41094 0.23328,-0.96367 0.15403,-0.56179 0.33314,-1.25555 0.54155,-2.08011 0.21747,-0.83362 0.16717,-1.46055 -0.14997,-1.87737 0.6071,-0.1631 0.96121,-0.62468 1.06088,-1.38581 0.10878,-0.76113 0.25481,-1.40941 0.43601,-1.94402 0.95144,-1.34105 1.68582,-3.13983 2.2023,-5.39605 0.11788,-0.444 0.32587,-0.99651 0.62488,-1.65798 0.30807,-0.66146 -0.0722,-1.34074 -1.14143,-2.03844 0.72093,0.4521 1.11922,0.60534 1.24695,0.50544 0.01,0.0351 0.005,0.0285 0.0166,0.0666 0.90613,-0.27183 1.98981,-0.47023 3.2493,-0.59709 1.2595,-0.13591 2.28323,-0.18621 3.07156,-0.14996 1.1145,0.743 2.39177,0.95588 3.83249,0.63875 1.44978,-0.32621 2.65058,-0.52739 3.60199,-0.59988 0.54368,0 1.19195,0.0407 1.94402,0.1222 0.76114,0.0725 1.52653,0.1111 2.29673,0.1111 1.2583,0.10156 2.30382,-0.0795 3.18264,-0.48045 0.0541,0.43302 0.11901,0.94972 0.19995,1.55244 0.0816,0.60709 0.21314,1.32219 0.39436,2.14676 0.19029,0.81549 0.81724,1.00702 1.87739,0.57209 -1.13264,0.89706 -1.51294,1.79403 -1.14143,2.69108 0.38057,0.89705 0.81115,1.49504 1.29138,1.79406 0.34433,1.45884 0.90855,2.92281 1.69685,4.39071 0.79739,1.46791 1.68954,2.66869 2.67721,3.602 -1.2181,-0.0817 -1.49837,1.54002 -0.93869,4.68509 -0.23654,0.15515 -0.48091,0.37367 -0.74428,0.72484 -0.38056,0.34432 -1.12945,0.69566 -2.24395,1.05811 -1.10547,0.36244 -2.06239,0.54432 -2.86883,0.54432 0,0.50743 -0.10266,0.57906 -0.31104,0.21662 -0.20841,-0.37151 -0.66998,-0.55543 -1.38582,-0.55543 -0.89705,0 -1.85881,0.13845 -2.88269,0.41935 -1.02392,0.28089 -2.40177,1.45552 -4.13244,3.52145 2.08405,1.74884 3.59349,2.65064 4.52678,2.70498 0.94237,0.0634 1.78422,0.0537 2.52723,-0.0278 0.75208,-0.0815 1.38866,-0.1532 1.90515,-0.21662 0.52554,-0.0544 1.17105,0.0317 1.94124,0.25828 1.06923,-0.45303 1.98067,-0.65143 2.73275,-0.5971 0.75208,0.0634 1.41483,0.66347 1.98567,1.80517 1.79412,0 2.9949,-0.13846 3.602,-0.41935 0.61615,-0.28089 1.06807,-0.51307 1.35804,-0.6943 0.28999,-0.17221 0.45257,-0.26316 0.48877,-0.27216 0.0363,0 0.36624,0.13159 0.99147,0.39436 1.10546,-0.33525 2.1843,-0.51919 3.2354,-0.55544 1.0511,-0.0362 2.02453,-0.13683 2.92159,-0.29993 -0.0997,-0.444 -0.0658,-0.39853 0.0973,0.13608 0.17217,0.5346 1.26753,0.8026 3.28818,0.8026 0.59803,-0.73395 1.06443,-1.17418 1.39969,-1.31915 0.33527,-0.13593 0.63908,-0.18623 0.91092,-0.14998 1.19606,0 2.1337,-0.0765 2.81327,-0.2305 0.50356,-0.11414 1.00052,-0.17317 1.49412,-0.20274 -0.17187,0.29418 -0.40687,0.64942 -0.76093,1.11366 2.7727,0 4.53287,-0.0551 5.28495,-0.16386 0.75208,-0.10876 1.79029,-0.0991 3.11322,0.0278 0.32619,-0.74301 0.60866,-1.05648 0.84427,-0.93868 0.24464,0.10874 0.61044,0.16385 1.09974,0.16385 0.49837,0 1.12253,-0.0242 1.8746,-0.0695 0.75205,-0.0544 1.14199,-0.43947 1.16919,-1.15531 0.46211,0.74302 1.1297,1.11643 1.99957,1.11643 0.87893,0 1.87854,-0.0696 3.00213,-0.20551 0.6524,0.1359 1.44674,0.20551 2.38004,0.20551 0.93328,0 1.83991,-0.0193 2.71884,-0.0555 0.888,-0.0453 1.72503,-0.086 2.51334,-0.1222 0.78833,-0.0453 1.79759,-0.14589 3.0299,-0.29994 1.73974,-0.13588 3.46207,-0.14278 5.16555,-0.025 1.70349,0.11778 3.36587,0.10332 4.98781,-0.0416 0.52554,0.0997 1.39635,0.28156 2.61053,0.54433 1.2142,0.26278 2.13047,0.16219 2.74665,-0.29994 0.24465,0.0544 0.71792,0.0688 1.42468,0.0416 0.70676,-0.0362 1.60857,0.24827 2.70496,0.85537 0.44246,-0.17861 0.7655,-0.37848 0.99701,-0.5971 -0.0827,0.3602 -0.15183,0.59691 -0.26106,1.18031 1.75786,-0.86987 2.91802,-1.25498 3.4798,-1.15531 0.56179,0.0997 2.20487,0.40349 4.93227,0.91092 -0.2447,-1.93002 -0.22535,-3.00611 0.0557,-3.23264 0.28995,-0.23559 0.22519,-1.33375 -0.19163,-3.29095 -2.44651,-0.67958 -4.72616,-1.10051 -6.8374,-1.26362 -2.11125,-0.1631 -3.79496,-0.18239 -5.05446,-0.0555 -0.91517,-0.46211 -1.77633,-0.56475 -2.58276,-0.31103 -0.7974,0.24465 -1.15152,0.36658 -1.06089,0.36658 -0.40775,-0.23559 -0.94097,-0.5394 -1.60243,-0.91091 -0.43717,-0.24553 -0.95176,-0.27842 -1.52745,-0.13608 0.42026,-0.24142 0.58232,-0.53556 0.42491,-0.89703 -0.24465,-0.57084 -0.42858,-1.02277 -0.55544,-1.35804 -0.11774,-0.33529 -0.29967,-0.53164 -0.54432,-0.58598 -0.24465,-0.0544 -0.0173,-0.22659 0.68041,-0.51655 -0.24468,-1.30481 -0.38592,-2.34989 -0.42213,-3.13821 -0.0271,-0.78831 -0.0774,-1.69012 -0.14998,-2.70496 0,-0.22654 0.0455,-0.56136 0.13608,-1.00534 0.0997,-0.444 0.21195,-0.95105 0.33881,-1.5219 0.13594,-0.57085 0.20552,-1.29355 0.20552,-2.16342 0,-0.87892 -0.57665,-1.21856 -1.72742,-1.01922 1.28669,-0.57991 1.84402,-1.29983 1.67188,-2.16064 -0.17217,-0.86081 -0.52628,-1.64754 -1.06089,-2.36337 1.17553,-1.34093 1.67326,-2.087625 1.51633,-2.257847 0.19128,-0.08361 0.18197,-0.07223 0.4138,-0.174962 -1.69443,-0.03621 -2.2373,-0.122369 -1.6302,-0.258275 0.60713,-0.135921 0.93025,-0.399092 0.96646,-0.788718 0.0454,-0.389632 0.0666,-0.738917 0.0666,-1.046995 0,-0.308077 0.0717,-1.269825 0.21663,-2.882707 -0.26521,-0.250366 -0.49383,-0.431873 -0.71652,-0.599871 0.31547,-0.121204 0.63884,-0.247365 1.04422,-0.433238 -1.4226,-0.262771 -1.88899,-0.492171 -1.3997,-0.691516 0.28726,-0.117038 0.34856,-0.328423 0.23606,-0.610979 0.28945,0.137314 0.59556,0.228677 0.93313,0.216619 1.01486,-0.04528 1.96901,-0.06944 2.86605,-0.06944 0.89706,0.06344 1.84432,0.195015 2.84105,0.394359 1.00578,0.199345 2.044,0.259291 3.11322,0.17774 0.82456,0 1.3819,-0.14606 1.67185,-0.436017 0.28996,-0.299014 0.83283,0.0551 1.63021,1.060881 0.57084,-1.250436 0.96077,-1.69754 1.16918,-1.344153 0.21747,0.344323 0.64805,0.477958 1.29138,0.405468 2.48275,0.362446 4.83888,0.422392 7.06792,0.17774 2.2381,-0.244649 4.62038,-0.816462 7.14845,-1.713519 l 1.59132,-0.610977 c 0.66145,-0.308078 1.37655,-0.51613 2.14675,-0.624864 0.7702,-0.117792 1.69817,-0.447783 2.7855,-0.991452 0.83363,-0.58897 1.38614,-1.060194 1.65798,-1.41358 0.28091,-0.353385 0.79073,-0.571085 1.52466,-0.652638 0.29903,-0.697734 0.69102,-1.073195 1.18031,-1.127533 0.49837,-0.05437 1.2231,-0.475293 2.17453,-1.263613 0.24462,-0.588971 0.25429,-1.124964 0.0278,-1.605208 -0.21746,-0.4893 0.47629,-0.281248 2.08011,0.624864 -0.0362,-1.603819 -0.01,-2.495974 0.0805,-2.677195 0.0997,-0.190288 0.2361,-0.438982 0.40824,-0.74706 0.17217,-0.308078 0.47597,-0.896414 0.91091,-1.766283 0.21027,-0.411949 0.14517,-0.688911 -0.17495,-0.838707 0.31884,-0.09406 0.49869,-0.254143 0.47489,-0.508223 -0.0543,-0.579913 0.39756,-0.965017 1.35804,-1.155305 0,-1.114516 0.0957,-1.87991 0.28605,-2.296723 0.0441,-0.09874 0.0425,-0.192329 0.0114,-0.283271 0.18781,-0.0149 0.35785,-0.07115 0.49157,-0.219398 0.42586,-0.471179 1.00455,-1.009223 1.73851,-1.616315 v -0.0028 c 0.38963,-2.156551 0.18157,-3.182339 -0.62487,-3.082663 -0.79738,0.09968 -0.46256,-1.225837 1.00533,-3.97136 -0.70767,0.558839 -1.04194,0.861549 -1.51633,1.260838 0.1068,-0.239561 0.11504,-0.323635 0.26661,-0.633197 -0.58897,-1.0964 -0.68679,-2.215901 -0.29716,-3.357604 -0.93331,-0.66146 -0.9719,-1.259443 -0.11105,-1.794054 -0.76115,-1.386351 -1.27784,-2.749731 -1.54968,-4.090779 -0.26277,-1.350111 -1.19074,-1.988739 -2.7855,-1.91625 0.92424,-0.588971 1.16606,-1.144264 0.72207,-1.660751 -0.43494,-0.516482 -0.80836,-0.922936 -1.11643,-1.221956 -0.29902,-0.308079 -0.66482,-0.394197 -1.09976,-0.258278 -0.43493,0.135921 -0.17176,-0.04597 0.78871,-0.544326 -0.91517,-1.341047 -1.5731,-1.848093 -1.97178,-1.521892 -0.3987,0.317138 -0.52545,-0.209206 -0.38047,-1.577435 -0.75211,-0.03625 -1.16821,-0.215347 -1.24974,-0.541549 -0.0725,-0.326199 -0.57266,-0.962783 -1.49689,-1.905142 -1.5857,-0.335261 -2.70243,-0.548136 -3.35483,-0.638749 -0.64333,-0.09968 -1.29163,-0.865064 -1.94403,-2.296723 -1.00581,1.621939 -1.52733,1.86859 -1.56354,0.735951 -0.0363,-1.132645 -0.51229,-0.833651 -1.42746,0.897028 0.42586,-0.851746 0.33009,-1.418733 -0.28606,-1.699632 -0.61615,-0.280891 -1.32161,-0.472422 -2.11899,-0.572096 -2.08405,-0.389627 -4.24176,-0.65485 -6.4708,-0.799827 -2.21999,-0.154043 -4.41352,-0.326275 -6.57913,-0.516555 -0.48024,0.181191 -0.97762,0.207394 -1.49412,0.08054 -0.50742,-0.126849 -1.29694,-0.325259 -2.36617,-0.597093 -1.01482,0.362415 -2.01928,0.388616 -3.016,0.08054 -0.99672,-0.308078 -2.39592,-0.372848 -4.19908,-0.191624 -2.06594,0.14503 -4.31943,0.142926 -6.75687,-0.01109 -2.42839,-0.154043 -4.8775,0.03471 -7.35118,0.56932 -0.0454,0 -0.22719,-0.04547 -0.54433,-0.136076 -0.30808,-0.09968 -0.75794,-0.195436 -1.34693,-0.28605 -1.02389,-0.126863 -1.91606,-0.08622 -2.6772,0.122199 -0.76113,0.199345 -1.45487,0.299934 -2.0801,0.299934 -0.61616,0.05437 -1.24996,-7.53e-4 -1.90236,-0.163852 -0.64334,-0.172163 -1.43491,-0.303745 -2.37727,-0.39436 -0.97859,-0.108733 -1.80393,-0.0653 -2.47445,0.124972 -0.66147,0.190341 -1.22363,0.18546 -1.68575,-0.01393 -2.2381,0 -4.17328,0.09094 -5.8043,0.272162 -1.63099,0.17216 -3.59237,0.07157 -5.88483,-0.299933 -0.59803,0.462114 -1.33447,0.756285 -2.2134,0.883142 -0.88798,0.117791 -1.67751,1.521818 -2.36616,4.212972 1.54868,1.150849 2.74949,1.447636 3.6131,0.916467 -0.31592,0.632441 -0.0725,1.564504 0.74985,2.807724 1.26856,-0.43494 2.01947,-0.633341 2.25505,-0.597092 0.24466,0.02719 0.96736,-0.06857 2.16343,-0.286049 0.49836,-0.489291 0.98128,-0.711814 1.45246,-0.666522 0.47118,0.0453 1.10293,-0.349453 1.89126,-1.183076 0,0.897047 0.36098,1.346929 1.08587,1.346929 0.72488,0 1.10033,-0.329991 1.12753,-0.99145 0.0905,0.815475 0.41374,1.21228 0.96646,1.194183 0.56178,-0.02719 0.56178,0.812628 0,2.516121 0.9067,-0.444098 1.46411,-0.757316 1.95513,-1.044217 0.0492,0.02583 0.11262,0.04812 0.23328,0.05 0.57992,0.0091 0.23064,0.590521 -1.04699,1.741287 0.57639,0.231283 0.97988,0.404971 1.35248,0.569322 -0.19244,0.402842 -0.35534,0.913694 -0.46934,1.619093 -0.0899,0.59343 0.28237,1.309051 1.03311,2.124537 -0.44837,0.243339 -0.80082,0.461229 -1.29138,0.716512 0.49245,0 0.84361,-0.01547 1.29972,-0.01943 -0.33798,0.574506 -0.81485,1.343629 -1.43581,2.316163 1.97533,0.02719 2.77172,0.170471 2.39115,0.43324 -0.37148,0.262775 -0.56988,0.581067 -0.59709,0.95257 -0.0157,0.210065 -0.0262,0.29398 -0.0389,0.424909 -0.14784,0.05446 -0.2989,0.129493 -0.46379,0.29438 -0.78832,0.797379 -1.51789,3.010217 -2.18842,6.634669 2.24716,-1.023911 3.29984,-1.404194 3.15487,-1.141418 -0.0365,0.06392 -0.0199,0.146462 0.0528,0.247168 -0.003,0.0128 -0.01,0.02322 -0.0142,0.03611 -0.16312,0.643344 -0.53858,2.045316 -1.12754,4.201865 1.62195,-0.244652 2.15999,-0.304595 1.61631,-0.177739 -0.54367,0.126863 -0.81371,0.932894 -0.81371,2.418919 0.67052,-0.02718 0.54376,0.08993 -0.38048,0.352702 -0.92423,0.253712 -0.81676,1.275398 0.32494,3.060445 0.0271,0.262771 -0.0184,0.865577 -0.13608,1.807942 -0.11787,0.942357 -0.13921,1.607163 -0.0666,1.996788 -0.57991,0.770199 -0.65637,1.681647 -0.23051,2.73274 0.43491,1.051091 0.60919,1.868827 0.52767,2.457798 0.57085,0.04533 0.40345,0.07911 -0.50267,0.0972 -0.89706,0.0091 -1.14092,1.702423 -0.73318,5.082228 0.54101,0 0.81601,-0.01885 1.15253,-0.03333 -0.20834,0.588487 -0.46785,1.633089 -0.8137,3.499239 0.0837,0.0419 0.14458,0.06138 0.22494,0.09998 -0.16637,0.187335 -0.33381,0.355524 -0.49434,0.608201 -0.6977,1.241362 -0.59505,1.839347 0.31105,1.794054 0.90613,-0.0453 0.0353,0.650496 -2.61054,2.091213 1.36643,0.568342 2.44619,0.93974 3.31595,1.169191 -0.18195,0.204682 -0.35527,0.405403 -0.63598,0.666522 -0.77925,0.715826 -0.57603,2.062681 0.61098,4.038001 0.0906,0.62522 0.13608,1.3045 0.13608,2.03845 0,0.73395 -0.61245,2.08767 -1.83571,4.063 1.61288,0.48024 2.34727,0.83435 2.20229,1.06088 -0.14498,0.21747 -1.01095,1.28186 -2.59665,3.19375 2.34684,0.0634 3.33474,0.21636 2.96325,0.46102 -0.36249,0.23558 -0.56089,0.49876 -0.5971,0.78871 -0.0363,0.28996 -0.0866,0.55313 -0.14996,0.78872 -0.0634,0.23559 -0.89358,0.7688 -2.48835,1.60243 1.29532,1.71261 1.94842,2.57377 1.9579,2.58277 0,-0.009 -0.0407,0.17765 -0.12214,0.55821 -0.0725,0.3806 -0.1441,0.5983 -0.21661,0.65264 -1.65819,0.38057 -3.72014,0.89244 -6.18477,1.53578 -0.26095,0.0681 -0.52201,0.10948 -0.78317,0.16663 -0.0592,-0.063 -0.0906,-0.11666 -0.15273,-0.18052 -1.39543,0.28994 -2.41916,0.41188 -3.07156,0.36659 -0.3526,-0.0298 -0.5555,-0.005 -0.6332,0.0666 -0.23112,-1.05427 -0.89368,-1.7028 -2.03289,-1.90237 -0.47056,-0.0825 -0.60214,-0.0937 -0.95813,-0.15274 0.0291,-0.0306 0.0313,-0.0325 0.0611,-0.0639 -1.19607,-0.62523 -1.41376,-1.04615 -0.65263,-1.26362 0.77019,-0.22652 0.64342,-1.17862 -0.38047,-2.85494 -0.58065,-0.35343 -1.04694,-0.54743 -1.45247,-0.6554 -0.0534,-0.2937 -0.0523,-0.48718 -0.13608,-0.83872 -1.4847,-0.72921 -2.54772,-1.04853 -3.2132,-0.97756 0.18808,-0.64968 0.39148,-1.50655 0.61654,-2.66609 -1.05109,-0.27787 -1.65642,-0.31965 -1.89402,-0.16663 0.079,-0.34997 0.0981,-0.81343 -0.009,-1.50523 -0.0394,-0.25574 -0.13451,-0.45555 -0.2666,-0.61653 0.26245,-0.3279 0.53689,-0.66957 1.29971,-1.63853 -0.29758,-0.48806 -0.52398,-0.79599 -0.78594,-1.19418 0.8106,-1.03412 1.4106,-1.74744 1.61631,-1.86349 0.22884,-0.13158 0.76379,-1.21328 1.44413,-2.73551 2.14057,-1.17432 6.97809,-4.160405 9.10081,-5.637659 -3.93836,0.833041 -11.67436,2.533534 -13.41654,1.671858 -0.63534,-0.817814 -1.12747,-1.102507 -1.47746,-0.855369 0.15013,-0.230244 0.86925,-1.321008 2.32172,-3.521457 -2.01157,-1.132639 -3.12141,-1.405459 -3.32982,-0.816488 -0.10196,0.283666 -0.24614,0.150715 -0.43047,-0.372143 0.0374,-0.205615 0.10365,-0.456162 0.16663,-0.699848 0.85846,-0.638221 1.40563,-1.499112 1.58299,-2.62443 0.26277,-1.667248 -1.02414,-2.908688 -3.86027,-3.72419 0.0576,0.590473 0.0958,0.89371 0.13053,1.160859 -0.13196,-0.17666 -0.45404,-0.342454 -0.90813,-0.502669 -0.0922,-0.14574 -0.17441,-0.230652 -0.26105,-0.338816 0.11845,-0.05833 0.28471,-0.156238 0.41936,-0.227728 0.0771,0.08535 0.11914,0.135879 0.19717,0.222174 -0.039,-0.104581 -0.059,-0.172149 -0.0973,-0.274941 0.22936,-0.123578 0.42054,-0.218007 0.69429,-0.377695 -0.40488,-0.30881 -0.77193,-0.567079 -1.10809,-0.774833 -0.0128,-0.03672 -0.0257,-0.06906 -0.039,-0.105533 0.38326,-0.226049 0.85287,-0.460776 1.48857,-0.710957 -1.35917,-1.187007 -1.26823,-1.720222 0.27216,-1.60243 1.54041,0.108734 0.59314,-1.405528 -2.84104,-4.540681 -0.40181,0 -0.6693,0.04301 -0.997,0.06664 -0.0603,-0.497321 -0.0347,-0.816287 0.14162,-0.813711 0.61616,0 1.09425,-1.267612 1.43858,-3.804731 -2.57341,-0.869851 -4.17583,-1.035211 -4.8101,-0.491543 -0.63,0.539996 -1.05533,0.924795 -1.28305,1.160859 -0.1561,-0.166913 -0.35236,-0.326588 -0.58598,-0.48045 0.48407,-0.23348 1.17368,-0.532604 2.31615,-0.977566 -0.82457,-1.748795 -1.33161,-2.944765 -1.52189,-3.58811 -0.14701,-0.504044 -0.76951,-0.939222 -1.84682,-1.308049 0.009,-0.008 0.0128,-0.01408 0.0222,-0.02223 2.04978,-0.474936 3.16451,-1.108745 3.23818,-1.919026 0.0906,-0.996726 0.26284,-2.161695 0.51655,-3.493686 -1.5305,-1.039592 -2.87027,-1.418441 -4.0269,-1.158081 -0.24466,-0.368896 -0.48726,-0.770865 -0.73039,-1.185855 0.17216,-0.285424 0.39951,-0.619215 0.68041,-0.999782 0.57084,-0.770194 0.4799,-2.65714 -0.27217,-5.665437 -1.39081,0.164455 -2.38227,0.364757 -3.01046,0.59987 -0.15777,-0.278652 -0.27425,-0.569739 -0.31938,-0.885919 -0.0544,-0.380566 -0.12114,-0.885566 -0.20273,-1.510783 -0.0725,-0.625219 -0.23301,-1.345138 -0.47766,-2.160641 -0.23558,-0.824559 -0.63724,-1.474887 -1.20808,-1.955131 -0.0997,-0.208403 -0.18576,-0.598337 -0.25827,-1.16919 -0.0725,-0.579913 -0.43144,-1.668422 -1.07477,-3.26318 -0.66148,-0.235589 -1.06793,-0.52011 -1.22197,-0.85537 -0.14497,-0.335264 -0.64515,-1.13443 -1.49688,-2.393924 z m 77.82475,7.109566 c -0.13593,0.924236 0.25885,1.44093 1.18308,1.549663 0.92424,0.09968 1.46228,-0.118033 1.61632,-0.652635 0.1631,0.63431 0.57716,0.978772 1.23861,1.033108 0.66148,0.0453 1.20915,0.10043 1.64409,0.163854 0.11318,0.01408 0.21671,-0.0307 0.32493,-0.04721 0.15081,0.665151 0.50552,1.26538 1.05254,1.805164 -0.23026,1.217838 -0.16782,2.027723 0.21107,2.399478 0.48024,0.462121 1.10718,1.100747 1.87737,1.91625 0.74515,-0.187304 1.32466,-0.34634 1.82461,-0.49156 0.68765,0.441803 1.02136,0.661365 1.32749,0.863702 0.0624,1.780445 0.37659,2.674672 0.97757,2.577218 0.28674,-0.0465 0.46597,0.183474 0.57209,0.594316 -0.62854,0.343691 -1.14651,0.783301 -1.53577,1.33582 -0.55274,0.79738 -0.83038,1.739828 -0.83038,2.827164 0,0.792967 0.31203,1.445183 0.91925,1.963461 0.33132,2.339018 1.35878,3.70574 3.09655,4.076893 -0.29991,0.0414 -0.55617,0.06925 -0.93036,0.130532 0.67947,0.675358 1.19777,1.178037 1.6302,1.585766 0.34125,1.845703 0.5265,3.239568 0.39714,3.729746 -0.1631,0.643337 0.0739,1.2365 0.70817,1.780168 -0.97859,-0.308078 -1.54559,-0.131029 -1.69962,0.530441 -0.145,0.661465 -0.2504,1.13751 -0.31382,1.427468 -0.0634,0.280893 -0.15436,0.570235 -0.27217,0.869255 -0.10878,0.299014 -0.22584,0.724767 -0.3527,1.277501 -0.48024,1.042027 -1.28626,1.883885 -2.41892,2.527228 -1.12357,0.634279 -3.03946,1.215742 -5.74875,1.741289 0.13593,1.087336 0.0856,1.565431 -0.14997,1.438576 -0.23559,-0.12682 -0.47464,-0.153027 -0.71929,-0.08054 -1.51321,0 -2.97718,0.208053 -4.39071,0.624864 -1.41352,0.407748 -2.80586,0.371927 -4.17408,-0.108307 -1.44073,0.172161 -2.77515,0.227281 -4.00747,0.163854 -0.48955,-0.02901 -0.9432,0.07167 -1.3747,0.244392 0.0786,-0.143179 0.0953,-0.295697 0.0416,-0.461012 -0.19932,-0.643343 -0.29027,-0.930636 -0.27217,-0.858147 -0.82457,-0.271833 -0.33887,-0.353125 1.45524,-0.244391 1.80316,0.108733 1.28646,-1.254646 -1.54966,-4.090779 -0.0609,0.05974 -0.0495,0.0666 -0.0973,0.116641 -0.079,-0.04317 -0.2777,-0.08735 -0.42213,-0.130532 0.88218,0.0948 1.8557,-0.829994 2.92436,-2.799392 -0.42017,-0.416972 -0.8058,-0.733605 -1.19418,-1.060881 0.30766,-0.220701 0.53517,-0.369046 1.00256,-0.733174 0.7879,-0.607093 0.7835,-2.48234 -0.0142,-5.626556 -0.47288,0.108008 -0.81905,0.235438 -1.19696,0.358256 0.19719,-0.631583 0.21257,-1.489461 0.0166,-2.602213 0.42589,-0.933299 0.50716,-1.806151 0.2444,-2.621652 -0.0949,-0.308383 -0.14666,-0.550285 -0.19718,-0.791495 0.0725,-0.04536 0.096,-0.05958 0.16941,-0.105535 -0.083,0.01617 -0.10437,0.02019 -0.18607,0.03611 -0.0739,-0.373304 -0.10977,-0.689975 -0.0722,-0.894251 0.21562,-0.677325 0.31879,-1.16978 0.36657,-1.574657 0.0642,-0.0078 0.0957,-0.0048 0.16386,-0.01393 -0.0699,-0.211311 -0.0935,-0.43043 -0.14719,-0.644305 -0.23244,-0.923337 -0.35502,-1.86437 -0.28883,-2.835495 0.0392,-0.519893 -0.11845,-0.921581 -0.40825,-1.244174 0.12271,0.08431 0.12541,0.09901 0.27217,0.197179 0.52274,-0.765253 0.73011,-1.336079 0.68873,-1.755175 0.18215,0.146076 0.22005,0.200492 0.48046,0.397137 0.55273,-3.425108 0.28955,-5.08543 -0.78871,-4.976697 -0.17103,0.0174 -0.31711,0.06495 -0.46935,0.105535 0.34298,-0.27884 0.53877,-0.640756 0.53877,-1.11087 0,-0.779259 -0.2177,-1.393764 -0.65263,-1.846821 0.2537,0.317142 0.56923,0.278544 0.94979,-0.111094 0.26257,-0.262565 0.30875,-0.556076 0.17218,-0.880365 0.23203,0.205691 0.49916,0.150188 0.80816,-0.219397 0.46212,-0.552732 0.76112,-0.308858 0.89703,0.733174 1.06015,-0.217468 2.06459,-0.15752 3.01602,0.177739 0.95141,0.326201 1.64033,-0.235964 2.06621,-1.685745 z m -9.31741,10.297763 c 0.19017,0.03207 0.40163,0.06909 0.5221,0.08331 0.053,0.04489 0.20639,0.148027 0.28606,0.208287 -0.23098,-0.118772 -0.50549,-0.211969 -0.82482,-0.277717 z m -76.93052,15.071725 c 0.0242,0.134926 0.10295,0.260773 0.29716,0.361035 0.56179,0.289956 0.16702,0.69641 -1.18308,1.221956 0.79464,1.050748 1.38615,1.678607 1.78572,1.910696 -0.12399,0.0027 -0.16613,-0.0042 -0.34436,0.0056 0,1.939083 0.30863,3.013114 0.9248,3.221523 0.61615,0.208402 1.13972,-0.06925 1.57466,-0.830377 -0.24747,0.44755 -0.37121,0.829857 -0.39992,1.158083 -0.44625,0.172954 -1.0978,0.472865 -1.99123,0.922022 0,1.631004 0.30862,2.389525 0.9248,2.271728 0.62521,-0.117791 -0.002,0.319656 -1.87737,1.316382 0.83212,0.979407 1.60479,1.679049 2.32171,2.127314 -0.044,0.03465 -0.0328,0.02559 -0.0778,0.06109 1.86656,0.770199 2.81384,1.210424 2.84106,1.319157 0.0362,0.108734 0.0983,0.393256 0.18884,0.85537 0.0906,0.462121 0.20567,1.043584 0.34159,1.741289 0.14498,0.697694 0.50114,1.05868 1.07199,1.085875 -0.44399,-0.181221 -0.83876,0.137073 -1.18307,0.952571 -0.22179,0.525276 0.15832,1.793952 1.01923,3.65754 -1.82313,-0.216737 -3.70284,-0.21617 -5.64045,0.025 -2.10218,0.262771 -4.07042,0.262771 -5.90983,0 -1.55097,-0.202301 -2.82191,-0.01841 -3.81583,0.547102 0.07,-0.140328 0.14462,-0.279903 0.17217,-0.438792 0.1631,-0.887993 0.32568,-1.710551 0.48879,-2.471687 0.17217,-0.761134 0.38022,-1.479008 0.62486,-2.149532 0.25372,-0.679587 0.54305,-1.466325 0.86926,-2.363376 0.67959,-1.105458 1.12946,-2.301428 1.34694,-3.588108 0.22652,-1.295746 0.9561,-2.814828 2.1884,-4.554567 -0.3465,-0.04495 -0.43502,-0.02827 -0.68318,-0.04999 0.25226,-0.283575 0.48172,-0.761671 0.68318,-1.458017 -0.0362,-0.425876 0.26274,-1.038332 0.89704,-1.835713 0.63427,-0.806438 0.53368,-1.567005 -0.29995,-2.282836 0.61616,0.181223 1.09221,-0.112943 1.42748,-0.883142 0.27301,-0.634569 0.49525,-1.239974 0.70817,-1.83849 0.26183,0.07867 0.49909,0.07957 0.70818,-0.01666 z"
     style="baseline-shift:baseline;display:inline;overflow:visible;fill:#e03513;fill-opacity:1;stroke:none;stroke-width:4;stroke-linecap:butt;stroke-linejoin:round;stroke-dasharray:none;stroke-opacity:1;enable-background:accumulate;stop-color:#000000;stop-opacity:1"
     id="path20" /><circle
     style="fill:#d4e0e3;fill-opacity:1;stroke:#e03513;stroke-width:4.99999;stroke-miterlimit:2;stroke-dasharray:none;stroke-opacity:1;paint-order:fill markers stroke"
     id="path24"
     cx="89.5"
     cy="84"
     r="78" /><path
     id="path19"
     style="fill:#134f5c;fill-opacity:1;stroke:none;stroke-width:1;stroke-miterlimit:2;stroke-dasharray:none;paint-order:fill markers stroke"
     d="m 89.498985,25.634421 c -1.136518,0 -2.272352,0.182439 -3.143209,0.548884 l -63.240583,26.61087 c -1.741716,0.732892 -1.741718,1.912963 0,2.645852 l 8.943476,3.763787 -4.220818,26.54366 a 1.4126121,1.4126121 0 0 0 1.395737,1.635455 h 11.170381 a 1.4126121,1.4126121 0 0 0 1.393499,-1.635455 l -3.824279,-24.056872 10.88586,4.581514 v 8.246726 a 40.641331,21.938153 0 0 0 1.001437,4.563592 c -3.535115,6.439862 -5.549347,13.827835 -5.549347,21.682106 0,24.92749 20.260363,45.18784 45.187846,45.18784 24.927485,0 45.190085,-20.26035 45.190085,-45.18784 0,-7.810252 -1.99054,-15.160213 -5.48884,-21.574568 a 40.641331,21.938153 0 0 0 0.94093,-4.67113 v -8.246726 l 25.74161,-10.832089 c 1.74172,-0.732889 1.74172,-1.912962 0,-2.645852 L 92.644436,26.183305 C 91.773579,25.81686 90.635501,25.634421 89.498985,25.634421 Z M 52.833427,84.506319 c 0.305838,0.13783 0.622175,0.25522 0.929745,0.389822 a 40.641331,21.938153 0 0 0 16.300783,8.844899 c -0.250447,2.308677 -0.398784,4.647261 -0.398784,7.0235 0,3.54432 0.307836,7.01397 0.835651,10.40866 -6.156418,1.33313 -12.057995,3.32104 -17.667395,5.84955 -2.206763,-4.97331 -3.465819,-10.4593 -3.465819,-16.25821 0,-5.798907 1.259057,-11.284908 3.465819,-16.258221 z m 73.335593,0.0023 c 2.20573,4.972308 3.46358,10.458626 3.46358,16.255981 0,5.79785 -1.25759,11.28563 -3.46358,16.25822 -5.61011,-2.5274 -11.51323,-4.51653 -17.66964,-5.84955 0.52783,-3.39468 0.83566,-6.86434 0.83566,-10.40867 0,-2.362416 -0.14661,-4.687541 -0.3943,-6.983173 a 40.641331,21.938153 0 0 0 16.38815,-8.91881 c 0.2779,-0.12188 0.56366,-0.22946 0.84013,-0.353975 z M 75.019608,94.955363 a 40.641331,21.938153 0 0 0 14.479377,1.503274 40.641331,21.938153 0 0 0 14.486095,-1.449506 c 0.18329,1.895599 0.29573,3.811719 0.29573,5.755459 0,3.22831 -0.27766,6.38811 -0.75052,9.48564 -4.573904,-0.7225 -9.252246,-1.14257 -14.031305,-1.14257 -4.779059,0 -9.455146,0.42007 -14.029069,1.14257 -0.472862,-3.09753 -0.750517,-6.25733 -0.750517,-9.48564 0,-1.962106 0.113617,-3.896167 0.300209,-5.809227 z m 14.479377,19.208757 c 4.439672,0 8.786993,0.38556 13.043315,1.04625 -2.27431,9.61193 -6.739514,18.36059 -12.87977,25.68335 -0.05067,9.7e-4 -0.118168,0.005 -0.163545,0.005 -0.04538,0 -0.110634,-0.004 -0.161305,-0.005 -6.140255,-7.32276 -10.605456,-16.07142 -12.879768,-25.68335 4.256335,-0.66069 8.601402,-1.04625 13.041073,-1.04625 z m -18.019129,1.96479 c 2.065032,8.84721 5.920235,16.96901 11.085248,24.09495 -11.622148,-2.02703 -21.501123,-8.99989 -27.383791,-18.72259 5.184679,-2.31153 10.627364,-4.14007 16.298543,-5.37236 z m 36.040494,0 c 5.67153,1.23214 11.11536,3.05781 16.30078,5.36788 -5.88219,9.72467 -15.76031,16.69949 -27.383783,18.72707 5.164653,-7.12601 9.018053,-15.24792 11.083003,-24.09495 z" /><path
     style="font-weight:bold;font-size:79.2063px;line-height:1.1;font-family:Kalam;-inkscape-font-specification:Kalam;letter-spacing:0px;fill:#134f5c;fill-opacity:1;stroke:none;stroke-width:4;stroke-miterlimit:2;stroke-dasharray:none;stroke-opacity:1;paint-order:fill markers stroke"
     d="m 375.04827,130.79254 q -2.80305,0 -6.70291,-4.63109 -3.89985,-4.75295 -3.89985,-7.67785 0,-2.92491 2.92489,-12.06522 9.01844,-28.03026 9.6278,-49.113894 -4.14362,-4.387352 -4.14362,-6.946637 0,-4.021737 9.50592,-7.555988 9.62779,-3.656122 18.28062,-3.656122 14.6245,0 23.03356,6.824762 8.53096,6.824763 8.53096,17.427519 0,13.527654 -13.28391,24.496011 -13.16205,10.968374 -33.27072,14.990109 -5.72792,20.59615 -7.55599,24.25227 -1.70618,3.65613 -3.04675,3.65613 z M 414.9,63.763634 q 0,-3.899872 -2.80303,-6.337277 -2.80302,-2.559291 -7.55599,-2.559291 -4.75294,0 -13.16203,4.509221 2.43741,4.265476 2.43741,7.677862 0,6.702882 -3.53426,19.864922 10.96837,-4.387336 17.79313,-10.480882 Q 414.9,70.222783 414.9,63.763634 Z m 34.00192,-29.248983 q 2.92488,0 7.55599,5.362313 4.63108,5.362312 4.63108,10.237142 0,4.874831 -1.46246,17.427519 -1.46244,12.430822 -3.04677,19.864932 -10.11527,44.117203 -14.13701,44.117203 -2.68115,0 -6.70288,-4.26547 -3.89986,-4.38735 -3.89986,-7.19036 0,-0.24376 3.29051,-12.67457 3.29051,-12.430816 6.58103,-31.930141 3.41236,-19.621187 3.41236,-37.414318 0,-3.53425 3.77801,-3.53425 z m 67.02899,62.397823 q 2.19369,1.949931 2.19369,3.534256 0,1.58432 -1.46246,6.58101 -1.46245,4.99671 -1.94993,7.79973 -0.48749,2.68116 -0.8531,4.26548 -0.24374,1.58432 -0.3656,2.55929 -0.12186,0.85309 -0.48749,2.19366 -0.24374,1.34058 -0.48747,2.19368 -0.12186,0.73123 -0.4875,1.82806 -0.24373,0.97497 -0.60934,1.58433 -0.36562,0.48748 -0.85312,1.09683 -0.7312,0.97496 -2.4374,0.97496 -1.70618,0 -4.26548,-3.41238 -2.43741,-3.41237 -3.65611,-8.28721 -11.45586,11.69959 -19.25559,11.69959 -5.24045,0 -11.33398,-5.72793 -6.09353,-5.84979 -6.09353,-11.5777 0,-5.84981 5.24043,-16.574428 5.24043,-10.724631 14.25888,-19.864938 9.1403,-9.140298 18.03687,-9.140298 5.11858,0 11.82146,5.971664 6.7029,5.971674 6.7029,10.968357 0,4.874843 -3.65613,11.333987 z m -35.46437,19.255586 q 4.87482,0 12.9183,-6.58102 8.16534,-6.7029 10.11526,-16.818166 0.12186,-1.462456 2.07181,-1.706199 -0.36561,-6.946624 -2.31555,-6.946624 -4.87484,0 -10.96837,6.337279 -5.97167,6.337263 -9.87153,13.52765 -3.77799,7.19037 -3.77799,10.60274 0,0.97497 0.24375,1.34058 0.36561,0.24376 1.58432,0.24376 z m 91.28122,-44.482831 q 0.73122,-3.046763 4.02173,-3.046763 3.29052,0 6.70288,4.143595 3.53425,4.143613 3.53425,9.38406 0,3.046772 -2.19366,9.627793 -2.19367,6.581016 -3.16864,9.384026 -0.85311,2.80304 -2.55929,7.67786 -1.70618,4.75296 -3.16865,8.89657 -1.34057,4.02174 -3.77797,10.8465 -2.31555,6.82475 -4.26548,12.67455 -3.778,10.96837 -9.26218,16.94004 -5.36232,5.97167 -14.01515,5.97167 -8.65281,0 -15.47757,-4.6311 -6.82477,-4.50921 -6.82477,-9.14029 0,-2.80304 2.43743,-6.21543 2.55928,-3.41237 4.26547,-3.41237 1.82805,0 4.6311,2.80302 2.92488,2.92489 5.97165,5.72793 3.04677,2.9249 5.36232,2.9249 1.58431,0 2.55927,-1.46245 1.09684,-1.46245 1.70619,-2.68115 0.73122,-1.09684 1.46247,-3.16865 0.7312,-1.94994 1.34057,-3.65612 0.60935,-1.70618 1.46243,-4.50922 0.85311,-2.80302 1.46247,-4.9967 2.0718,-6.58103 3.53425,-11.69958 -4.02175,5.24044 -8.28722,8.40907 -4.26548,3.04677 -7.92159,3.04677 -3.53426,0 -8.89657,-5.36231 -5.24045,-5.48418 -5.24045,-11.94333 0,-6.58103 2.80305,-17.549388 2.92488,-10.968373 7.19036,-19.499325 4.26548,-8.530951 7.55599,-8.530951 3.77798,0 7.0685,3.290515 3.41238,3.168634 3.41238,6.215406 0,2.924891 -3.04677,9.505912 -2.9249,6.581016 -5.97167,14.380761 -3.04676,7.79972 -3.04676,13.2839 0,0.73123 0.60935,0.73123 1.58432,0 6.70288,-5.84979 5.11859,-5.97167 11.45586,-16.81817 6.45916,-10.968367 9.87154,-21.692991 z m 66.05399,23.277315 q 1.82805,2.071801 1.82805,4.996692 0,2.924904 -2.4374,7.190384 -3.04678,7.31224 -5.36232,18.15874 -2.31555,10.8465 -4.63109,17.30563 -2.19367,6.58103 -4.87482,11.21211 -2.55929,4.6311 -7.06852,7.67788 -4.50921,3.04677 -10.359,3.04677 -8.16536,0 -14.6245,-5.36232 -6.45915,-5.36233 -6.45915,-9.26218 0,-3.77799 2.07179,-6.94664 2.07182,-3.04677 3.778,-3.04677 1.82806,0 3.41239,1.94994 1.70618,1.94993 3.04677,4.1436 1.46245,2.31555 3.77799,4.26547 2.31555,1.94995 5.11857,1.94995 2.80303,0 5.11857,-3.65613 2.31555,-3.65613 3.53425,-7.9216 3.04677,-9.99339 3.778,-14.25887 -8.28721,5.11856 -13.52765,5.11856 -5.11857,0 -9.99341,-5.60605 -4.87483,-5.72794 -4.87483,-10.72462 0,-5.11859 2.68116,-12.67457 2.80303,-7.677858 7.06851,-15.233834 4.38734,-7.677853 10.96836,-13.162051 6.7029,-5.484169 13.40578,-5.484169 4.50921,0 7.67787,2.315534 3.16863,2.193674 4.63108,5.971674 2.55928,6.581021 2.55928,14.86823 0,1.218703 -0.24373,3.16864 z m -33.75821,19.621176 q 0,1.58433 1.34057,1.58433 3.53425,0 11.45585,-6.45916 7.9216,-6.45914 10.60275,-12.796426 v -2.315545 q 0,-7.92159 -1.46242,-9.627789 -0.73124,-0.853089 -1.94994,-0.853089 -5.84981,0 -12.91831,12.308948 -7.0685,12.308941 -7.0685,18.158731 z m 50.9421,-25.349114 -0.73122,-13.771387 q 0,-6.824753 4.26547,-6.824753 2.43743,0 4.75297,1.82805 2.4374,1.828069 3.65612,5.727931 4.14361,-3.65613 9.01843,-5.849792 4.9967,-2.315545 8.7747,-2.315545 8.89656,0 8.89656,4.265475 0,2.193664 -0.8531,3.290515 -0.73122,0.974961 -1.2187,1.462436 -0.36561,0.487496 -1.46245,1.340584 -0.97497,0.731218 -1.46244,1.096842 -2.80305,1.82805 -4.02174,2.559277 -5.48418,3.412387 -9.38406,8.287209 -3.89986,4.752967 -5.84979,13.283912 -3.29052,14.01513 -6.45914,20.96177 -3.04677,6.82476 -6.94663,6.82476 -3.77801,0 -5.72793,-3.65613 -1.82806,-3.6561 -1.82806,-6.82476 0,-3.29051 2.31554,-9.74965 2.4374,-6.45916 3.29051,-11.09026 0.97496,-4.752932 0.97496,-10.846484 z m 54.59804,29.858344 q 6.58101,-2.92489 11.45584,-11.82146 4.87483,-8.89656 4.87483,-16.6963 0,-7.799723 -2.19367,-10.724614 -5.24044,3.046772 -10.48088,12.796426 -5.11858,9.749648 -5.11858,17.183768 0,7.31225 1.46246,9.26218 z m -17.79313,-8.04347 q 0,-15.233848 9.38404,-28.883359 9.50592,-13.649536 18.76809,-13.649536 9.26217,0 15.59946,6.58102 6.33729,6.459159 6.33729,15.721338 0,9.140293 -4.38735,18.646207 -4.38735,9.50592 -12.30896,15.84321 -7.9216,6.2154 -16.94002,6.2154 -6.7029,0 -11.57772,-5.97167 -4.87483,-5.97166 -4.87483,-14.50261 z m 98.95897,-39.364251 q 0.97498,-3.046763 3.89986,-3.046763 2.92491,0 6.7029,4.996704 3.89986,4.996703 3.89986,8.652801 0,1.340585 -5.60604,17.915009 -5.60606,16.57443 -8.65284,26.20222 -1.70619,5.11856 -5.72793,5.11856 -2.4374,0 -4.14359,-1.70618 -1.58432,-1.82806 -1.58432,-5.60607 0,-3.77797 1.46244,-10.72461 -12.55268,18.03686 -19.9868,18.03686 -3.89986,0 -9.38404,-4.9967 -5.48419,-5.11856 -5.48419,-9.87153 0,-11.69958 6.58102,-29.85832 6.7029,-18.158744 12.55269,-18.158744 3.53425,0 6.2154,3.168634 2.80304,3.168644 2.80304,6.946635 0,1.462454 -3.04677,8.165336 -9.26219,20.108669 -9.26219,28.395879 0,0.73123 0.60935,0.73123 1.82808,0 6.82479,-5.72794 5.11855,-5.84978 11.33396,-16.574395 6.33728,-10.846497 9.9934,-22.058616 z m 61.301,-3.046763 q 6.33727,0 11.09023,5.727931 4.87483,5.60605 4.87483,12.065199 0,10.358997 -3.41236,21.692984 -3.29052,11.21211 -7.31226,17.30564 -3.89985,6.09354 -8.04348,6.09354 -4.02174,0 -4.02174,-5.72793 0,-4.38733 4.02174,-17.67126 3.04677,-10.968364 3.04677,-15.72131 0,-4.752971 -1.2187,-4.752971 -1.58433,0 -3.16865,1.584317 -1.46243,1.584337 -2.43741,2.80304 -0.97495,1.218703 -2.31553,3.16863 -1.21872,1.828069 -2.19369,3.412386 -0.85309,1.462428 -2.31554,3.899858 -1.34059,2.31555 -2.19368,3.89986 -0.85308,1.46246 -2.19366,3.89986 -11.33399,21.20552 -17.79314,21.20552 -2.55927,0 -6.45915,-4.38735 -3.89986,-4.50921 -3.89986,-6.58101 0,-1.34058 1.70619,-5.72793 1.82807,-4.50923 2.55928,-6.82476 0.8531,-2.43741 1.34058,-5.11857 0.60936,-2.68116 0.97497,-5.727934 0.36561,-3.168633 0.48748,-4.874828 0.24374,-1.706188 0.48748,-5.362316 1.09684,-15.84318 1.82807,-17.549378 0.85309,-1.706188 1.82805,-1.706188 4.63109,0 8.89658,3.899862 4.26547,3.778 4.26547,6.946633 0,7.555981 -3.89986,21.692989 7.92159,-13.893265 14.38074,-22.667959 6.58102,-8.896565 11.09025,-8.896555 z m 74.70685,-34.123815 q 2.92489,0 7.67786,5.362313 4.75294,5.240442 4.75294,9.87153 0,2.315545 -4.26546,19.255586 -4.26548,16.940021 -5.11857,20.474279 -9.74967,42.045401 -14.25888,42.045401 -2.55929,0 -5.72793,-3.04677 -3.16864,-3.04677 -3.16864,-5.97167 0,-0.60934 0.12187,-0.97497 -12.18709,9.99341 -17.54941,9.99341 -5.24043,0 -10.23713,-5.60605 -4.87483,-5.72794 -4.87483,-10.35902 0,-4.63108 1.2187,-10.23713 1.34058,-5.727935 4.02174,-12.065211 2.68116,-6.337287 6.09353,-11.821466 3.53427,-5.60605 8.40909,-9.140298 4.9967,-3.656129 10.23715,-3.656129 7.79971,0 12.79642,7.921605 6.58102,-28.88337 6.33728,-38.389289 0,-3.656121 3.53425,-3.656121 z m -35.95188,81.531529 q 3.04678,0 10.23715,-5.24044 7.31224,-5.24044 10.84649,-13.28392 -0.12186,-0.97497 -0.12186,-4.265471 0,-3.290505 -2.19368,-6.215407 -2.19366,-2.924891 -4.02173,-2.924891 -3.65611,0 -7.0685,3.899852 -3.29049,3.899862 -5.24043,9.262175 -4.14362,11.333992 -4.14362,17.183782 0,0.97496 0.24376,1.34058 0.36559,0.24374 1.46243,0.24374 z"
     id="text27"
     aria-label="Playground" /></svg>
