<?xml version="1.0" encoding="UTF-8" standalone="no"?>
<svg
   version="1.1"
   viewBox="0 0 40 40.000001"
   fill="none"
   stroke="none"
   stroke-linecap="square"
   stroke-miterlimit="10"
   id="svg5"
   width="40"
   height="40"
   xml:space="preserve"
   xmlns="http://www.w3.org/2000/svg"
   xmlns:svg="http://www.w3.org/2000/svg"><defs
     id="defs5" /><path
     d="m 16.273399,0.50079564 h 0.0048 v 0.001956 c 4.490316,0.001304 8.559398,1.82327456 11.50281,4.76733736 2.938203,2.9398309 4.758549,7.003704 4.761804,11.492065 h 0.0019 v 0.01106 0.01302 h -0.0019 c -0.0016,1.808953 -0.298834,3.549869 -0.844417,5.173269 -0.09146,0.272466 -0.187503,0.53419 -0.285487,0.784194 v 0.0022 c -0.47071,1.191753 -1.07912,2.31775 -1.806021,3.355203 l 9.466314,8.509266 0.0058,0.0048 0.05111,0.04753 0.004,0.004 c 0.53419,0.508797 0.82521,1.190124 0.861994,1.881217 0.03581,0.683606 -0.175133,1.382837 -0.64324,1.943718 l -0.0036,0.0052 -0.0573,0.06642 -0.0127,0.01498 -0.0472,0.05046 -0.0036,0.0036 c -0.508797,0.534516 -1.190124,0.826512 -1.882195,0.862972 -0.684907,0.03613 -1.384789,-0.175784 -1.945021,-0.643892 l -0.004,-0.004 -0.06608,-0.05698 -0.0094,-0.0078 -9.682139,-8.702956 c -0.286463,0.201827 -0.579112,0.39291 -0.87469,0.573903 -0.4017,0.246099 -0.817072,0.477547 -1.24221,0.68914 -2.180703,1.087911 -4.643962,1.700227 -7.249478,1.700227 v 0.0019 h -0.0052 v -0.0019 C 11.776801,33.041527 7.7077193,31.219856 4.7659352,28.276119 l -0.0013,0.0016 C 1.8255515,25.338477 0.0052067,21.27265 0.00227693,16.783964 H 0 v -0.01073 -0.0052 H 0.00227693 C 0.00390457,12.276071 1.8255515,8.2076384 4.7699399,5.2642267 7.7097709,2.3260235 11.773971,0.50567854 16.262656,0.50274878 v -0.001956 z M 22.06647,14.627675 c 0.393887,-0.0022 0.765965,0.101564 1.0814,0.28386 l -6.51e-4,6.51e-4 c 0.118818,0.06836 0.230473,0.147787 0.328782,0.23275 0.09962,0.08594 0.193363,0.185225 0.277022,0.291348 h 0.0013 c 0.284185,0.361334 0.45476,0.820978 0.453784,1.319358 -9.7e-4,0.395841 -0.109052,0.767593 -0.294926,1.085632 -0.14779,0.253911 -0.347989,0.475594 -0.583019,0.649751 -0.115237,0.08495 -0.244471,0.161461 -0.380215,0.223962 v 6.51e-4 c -0.267909,0.123048 -0.569346,0.193688 -0.886085,0.195317 l -3.597394,0.02604 -0.02604,3.600974 c -0.0013,0.336596 -0.08268,0.657564 -0.223963,0.939472 -0.06121,0.121745 -0.135744,0.239912 -0.220706,0.349615 l -0.0019,0.0022 c -0.08366,0.107099 -0.179365,0.209639 -0.281905,0.299159 -0.380542,0.333666 -0.883154,0.536793 -1.426132,0.536793 v -0.0022 c -0.198248,0 -0.389005,-0.02669 -0.567394,-0.07552 -0.363366,-0.09961 -0.688568,-0.293944 -0.943781,-0.549807 -0.256515,-0.257491 -0.448249,-0.581716 -0.54428,-0.941749 v -0.0019 c -0.04687,-0.176761 -0.07162,-0.367193 -0.07,-0.56251 v -0.0016 l 0.02441,-3.562888 -3.568422,0.02475 c -0.393532,0.0036 -0.7662585,-0.100901 -1.0829959,-0.284175 l 6.51e-4,-6.51e-4 C 9.4135775,18.637838 9.3012705,18.557758 9.203287,18.471818 9.1036762,18.385878 9.0115519,18.287244 8.9285425,18.181774 h -0.0013 C 8.6430601,17.819789 8.4724842,17.360796 8.4737862,16.862415 c 6.51e-4,-0.394862 0.1097025,-0.76629 0.2949272,-1.083352 l -0.0013,-6.52e-4 c 0.122392,-0.208987 0.2828765,-0.39877 0.4694033,-0.557952 h 0.0013 c 0.186852,-0.159183 0.4023504,-0.287439 0.632172,-0.37468 0.2291703,-0.08659 0.4830803,-0.136073 0.7474083,-0.137698 l 3.597395,-0.02669 0.02604,-3.600974 c 0.0013,-0.392911 0.112307,-0.763361 0.299809,-1.077169 l 0.0013,6.51e-4 c 0.07293,-0.1217465 0.152021,-0.2327518 0.236658,-0.3265027 0.08594,-0.096358 0.187505,-0.1901079 0.295578,-0.2731176 l 0.0016,-0.00128 v 6.51e-4 c 0.364915,-0.2802782 0.82456,-0.448901 1.320011,-0.4475989 0.394213,6.51e-4 0.765638,0.1080748 1.079772,0.2919974 0.155927,0.090821 0.302089,0.2054076 0.429694,0.3336652 l 0.0013,-0.00128 c 0.124677,0.1246775 0.237635,0.2714895 0.331712,0.4339266 0.182296,0.31511 0.286138,0.684909 0.282557,1.075541 l -0.02442,3.561911 z M 16.278281,4.1506001 v 0.00195 h -0.0048 -0.01106 v -0.00195 c -3.477638,0.00228 -6.6300376,1.4153897 -8.9116533,3.6960293 l 6.51e-4,6.51e-4 C 5.0664947,10.131827 3.651756,13.287157 3.6507794,16.768012 h 0.00195 v 0.0052 0.01073 h -0.00195 c 0.00195,3.4776 1.4150643,6.629351 3.6960293,8.911943 l 6.51e-4,-6.51e-4 c 2.2845463,2.284545 5.4398753,3.699609 8.9207313,3.70026 v -0.0022 h 0.0052 0.01073 v 0.0022 c 3.478253,-0.0022 6.630001,-1.415389 8.913245,-3.697656 2.282593,-2.281615 3.697656,-5.436947 3.698307,-8.919755 h -0.0019 v -0.0048 -0.01106 h 0.0022 c -0.0022,-3.476947 -1.415388,-6.628697 -3.697982,-8.9109642 v -0.00228 C 22.916421,5.566641 19.761092,4.1512511 16.278281,4.1506001 Z"
     id="path1"
     style="fill:#000000;stroke-width:0.999994" /></svg>
