<?xml version="1.0" encoding="UTF-8" standalone="no"?>
<svg
   version="1.1"
   viewBox="0 0 50.308372 50.308364"
   fill="none"
   stroke="none"
   stroke-linecap="square"
   stroke-miterlimit="10"
   id="svg4"
   width="50.308372"
   height="50.308365"
   xml:space="preserve"
   xmlns="http://www.w3.org/2000/svg"
   xmlns:svg="http://www.w3.org/2000/svg"><defs
     id="defs4" /><path
     id="rect5"
     style="fill:#000000;stroke:none;stroke-width:0.999997;stroke-miterlimit:2;stroke-dasharray:none;paint-order:fill markers stroke"
     d="m 3.5273438,0 c -0.112895,3.1e-7 -0.2238624,0.0053948 -0.3339844,0.015625 -0.0019,1.8933e-4 -0.00386,-1.8922e-4 -0.00586,0 -0.111574,0.0105903 -0.2218361,0.02816803 -0.3300781,0.04882812 -0.004,7.9079e-4 -0.0077,0.0030942 -0.011719,0.0039063 C 1.2436621,0.37979549 0.03879525,1.7659859 0.00390625,3.453125 0.00339425,3.477875 0,3.5025737 0,3.5273438 V 16.4375 c 1e-6,1.954386 1.5729577,3.527344 3.5273438,3.527344 1.954386,1e-6 3.5273427,-1.572958 3.5273437,-3.527344 V 12.042969 L 20.166016,25.154297 7.0566406,38.263672 V 33.871094 C 7.0566396,31.916708 5.4817297,30.343751 3.5273438,30.34375 1.5729588,30.34375 0,31.916708 0,33.871094 v 12.90625 0.0039 c 0,0.112895 0.005395,0.223861 0.015625,0.333984 1.9e-4,0.0019 -2.28e-4,0.0039 0,0.0059 0.01059,0.111574 0.02816812,0.221838 0.04882812,0.330078 7.9101e-4,0.004 0.0031063,0.0077 0.0039063,0.01172 0.31143701,1.602041 1.69762758,2.806908 3.38476568,2.841797 0.02476,5.09e-4 0.049459,0.0039 0.074219,0.0039 H 16.4375 c 1.954386,0 3.527345,-1.572958 3.527344,-3.527344 0,-1.954385 -1.572958,-3.527345 -3.527344,-3.527344 H 12.042969 L 25.154297,30.142578 38.263672,43.251953 h -4.392578 c -1.954386,0 -3.527344,1.574911 -3.527344,3.529297 0,1.954386 1.572958,3.527344 3.527344,3.527344 h 12.90625 0.0039 c 0.112895,0 0.223861,-0.0054 0.333984,-0.01563 0.0019,-1.85e-4 0.0039,1.87e-4 0.0059,0 0.111574,-0.01059 0.221836,-0.02817 0.330078,-0.04883 0.004,-7.82e-4 0.0077,-0.0031 0.01172,-0.0039 1.602041,-0.311436 2.806908,-1.697626 2.841797,-3.384765 5.48e-4,-0.02476 0.0039,-0.04945 0.0039,-0.07422 V 33.871094 c 0,-1.954386 -1.572958,-3.527344 -3.527344,-3.527344 -1.954385,0 -3.527344,1.572958 -3.527344,3.527344 v 4.394531 L 30.142578,25.154297 43.251953,12.044922 V 16.4375 c 0,1.954386 1.574911,3.527344 3.529297,3.527344 1.954386,0 3.527344,-1.572958 3.527344,-3.527344 V 3.53125 3.5273438 c 0,-0.112895 -0.0054,-0.2238614 -0.01563,-0.3339844 -1.85e-4,-0.0019 1.87e-4,-0.00386 0,-0.00586 -0.01059,-0.111574 -0.02817,-0.2218361 -0.04883,-0.3300781 -7.82e-4,-0.004 -0.0031,-0.0077 -0.0039,-0.011719 C 49.928798,1.2436621 48.542608,0.03879525 46.855469,0.00390625 46.830709,0.00335825 46.80602,0 46.78125,0 H 33.871094 c -1.954386,0 -3.527344,1.5729577 -3.527344,3.5273438 0,1.9543849 1.572958,3.5273437 3.527344,3.5273437 h 4.394531 L 25.154297,20.166016 12.044922,7.0566406 H 16.4375 c 1.954387,-10e-8 3.527344,-1.574911 3.527344,-3.5292968 C 19.964843,1.5729577 18.391886,-4.0000001e-8 16.4375,0 H 3.53125 Z" /></svg>
