<?xml version="1.0" encoding="UTF-8" standalone="no"?>
<svg
   version="1.1"
   viewBox="0 0 40 40"
   fill="none"
   stroke="none"
   stroke-linecap="square"
   stroke-miterlimit="10"
   id="svg4"
   width="40"
   height="40"
   xmlns="http://www.w3.org/2000/svg"
   xmlns:svg="http://www.w3.org/2000/svg">
  <defs
     id="defs4" />
  <path
     id="path3"
     style="fill:#000000;stroke:none;stroke-width:0.999995"
     d="M 1.0625,1.0214844 C -0.30766092,2.3868963 -0.30963513,4.6033996 1.05664,5.9726562 L 15.044922,19.992188 1.0273438,33.962891 c -1.37014617,1.365413 -1.37014617,3.577947 0,4.943359 1.370146,1.365412 3.5927444,1.365412 4.9628906,0 L 19.994141,24.951172 33.982422,38.970703 c 1.366277,1.369296 3.584932,1.373224 4.955078,0.0078 1.363351,-1.358643 1.373423,-3.580639 0.0059,-4.951172 L 24.955078,20.007812 38.972656,6.0371094 c 1.370144,-1.365412 1.370144,-3.5779475 0,-4.9433594 -1.372411,-1.36765935 -3.597849,-1.36032686 -4.96289,0 L 20.005859,15.048828 6.0175781,1.0292969 C 4.646157,-0.34515354 2.4241895,-0.33549919 1.0625,1.0214844 Z" />
</svg>
