<?xml version="1.0" encoding="UTF-8" standalone="no"?>
<svg
   version="1.1"
   viewBox="0 0 50.308372 50.308364"
   fill="none"
   stroke="none"
   stroke-linecap="square"
   stroke-miterlimit="10"
   id="svg4"
   width="50.308372"
   height="50.308365"
   xml:space="preserve"
   sodipodi:docname="shuffle.svg"
   inkscape:version="1.4 (86a8ad7, 2024-10-11)"
   xmlns:inkscape="http://www.inkscape.org/namespaces/inkscape"
   xmlns:sodipodi="http://sodipodi.sourceforge.net/DTD/sodipodi-0.dtd"
   xmlns="http://www.w3.org/2000/svg"
   xmlns:svg="http://www.w3.org/2000/svg"><sodipodi:namedview
     id="namedview1"
     pagecolor="#ffffff"
     bordercolor="#000000"
     borderopacity="0.25"
     inkscape:showpageshadow="2"
     inkscape:pageopacity="0.0"
     inkscape:pagecheckerboard="0"
     inkscape:deskcolor="#d1d1d1"
     inkscape:zoom="8"
     inkscape:cx="53"
     inkscape:cy="15.5"
     inkscape:window-width="1920"
     inkscape:window-height="1010"
     inkscape:window-x="-6"
     inkscape:window-y="-6"
     inkscape:window-maximized="1"
     inkscape:current-layer="svg4" /><defs
     id="defs4"><inkscape:path-effect
       effect="spiro"
       id="path-effect15"
       is_visible="true"
       lpeversion="1" /><inkscape:path-effect
       effect="spiro"
       id="path-effect12"
       is_visible="true"
       lpeversion="1" /><inkscape:path-effect
       effect="spiro"
       id="path-effect10"
       is_visible="true"
       lpeversion="1" /><inkscape:path-effect
       effect="spiro"
       id="path-effect7"
       is_visible="true"
       lpeversion="1" /><inkscape:path-effect
       effect="spiro"
       id="path-effect4"
       is_visible="true"
       lpeversion="1" /><inkscape:path-effect
       effect="spiro"
       id="path-effect2"
       is_visible="true"
       lpeversion="1" /></defs><path
     style="fill:#000000;stroke-linecap:round;stroke-linejoin:round;paint-order:fill markers stroke"
     d="m 42.425781,15.972656 c -2.431918,-0.132753 -4.87269,-0.06323 -7.292969,0.208985 -1.910589,0.214889 -3.991635,0.567517 -6.013671,1.521484 -2.362081,1.114395 -4.259194,2.889664 -5.675782,4.904297 -1.09803,1.561588 -1.834347,3.105748 -2.607422,4.378906 -1.132033,1.86432 -2.509308,3.510097 -4.130859,4.693359 -1.855033,1.353638 -4.1459,2.164861 -6.439453,2.279297 a 2.4162099,2.4162099 0 0 0 -2.2929688,2.533203 2.4162099,2.4162099 0 0 0 2.5332028,2.292969 c 3.252877,-0.162302 6.415938,-1.281349 9.046875,-3.201172 2.281733,-1.665004 4.038191,-3.823951 5.414063,-6.089843 0.934846,-1.539577 1.63496,-2.977183 2.429687,-4.107422 1.012946,-1.440584 2.325203,-2.62659 3.783203,-3.314453 1.256464,-0.592782 2.800441,-0.897616 4.492188,-1.087891 2.153088,-0.242163 4.328745,-0.305598 6.492187,-0.1875 a 2.4162099,2.4162099 0 0 0 2.542969,-2.28125 2.4162099,2.4162099 0 0 0 -2.28125,-2.542969 z"
     id="path2"
     transform="matrix(1.3629345,0,0,1.5616153,-10.861799,-17.577345)" /><path
     style="fill:#000000;stroke-linecap:round;stroke-linejoin:round;paint-order:fill markers stroke"
     d="m 39.175781,0 a 3.5250001,3.5250001 0 0 0 -2.492187,1.0332031 3.5250001,3.5250001 0 0 0 0,4.984375 L 44.291016,13.625 a 3.5250001,3.5250001 0 0 0 4.984375,0 3.5250001,3.5250001 0 0 0 0,-4.984375 L 41.667969,1.0332031 A 3.5250001,3.5250001 0 0 0 39.175781,0 Z"
     id="path4" /><path
     style="fill:#000000;stroke-linecap:round;stroke-linejoin:round;paint-order:fill markers stroke"
     d="M 46.783203,7.6074219 A 3.5250001,3.5250001 0 0 0 44.291016,8.640625 l -7.607422,7.607422 a 3.5250001,3.5250001 0 0 0 0,4.984375 3.5250001,3.5250001 0 0 0 4.984375,0 L 49.275391,13.625 a 3.5250001,3.5250001 0 0 0 0,-4.984375 3.5250001,3.5250001 0 0 0 -2.492188,-1.0332031 z"
     id="path5" /><path
     id="path10"
     style="fill:#000000;stroke-linecap:round;stroke-linejoin:round;paint-order:fill markers stroke"
     d="M 10.505883 38.785251 A 2.4162099 2.4162099 0 0 1 7.9722872 36.492703 A 2.4162099 2.4162099 0 0 1 10.265134 33.958768 C 12.558687 33.844332 14.850134 33.033616 16.705167 31.679978 C 17.843286 30.849481 18.858974 29.787557 19.756087 28.585726 C 19.877883 28.792118 20.005432 28.996965 20.118643 29.206077 C 20.801674 30.497836 21.554617 31.773562 22.412923 32.966956 C 21.562397 33.919431 20.617076 34.806676 19.552597 35.583438 C 16.92166 37.503261 13.75876 38.622949 10.505883 38.785251 z M 27.00005 25.999261 C 26.330365 24.807229 25.671278 23.605974 24.826144 22.528546 C 24.615305 22.232663 24.393972 21.944636 24.166951 21.660555 C 25.485279 20.043056 27.136694 18.638773 29.1195 17.703314 C 31.141536 16.749347 33.221902 16.396091 35.132491 16.181202 C 37.55277 15.908987 39.993258 15.839581 42.425176 15.972334 A 2.4162099 2.4162099 0 0 1 44.706559 18.515024 A 2.4162099 2.4162099 0 0 1 42.164365 20.796315 C 40.000923 20.678217 37.824397 20.741758 35.671309 20.983921 C 33.979562 21.174196 32.43666 21.479256 31.180196 22.072038 C 29.722196 22.759901 28.409945 23.94583 27.396999 25.386414 C 27.262147 25.578196 27.131062 25.790783 27.00005 25.999261 z "
     transform="matrix(1.3629345,0,0,-1.5616153,-10.861799,67.835219)" /><path
     style="fill:#000000;stroke-linecap:round;stroke-linejoin:round;paint-order:fill markers stroke"
     d="m 39.175781,27.992187 a 3.5250001,3.5250001 0 0 0 -2.492187,1.033204 3.5250001,3.5250001 0 0 0 0,4.984375 l 7.607422,7.607421 a 3.5250001,3.5250001 0 0 0 4.984375,0 3.5250001,3.5250001 0 0 0 0,-4.984375 l -7.607422,-7.607421 a 3.5250001,3.5250001 0 0 0 -2.492188,-1.033204 z"
     id="path12" /><path
     style="fill:#000000;stroke-linecap:round;stroke-linejoin:round;paint-order:fill markers stroke"
     d="m 46.783203,35.599609 a 3.5250001,3.5250001 0 0 0 -2.492187,1.033203 l -7.607422,7.607422 a 3.5250001,3.5250001 0 0 0 0,4.984375 3.5250001,3.5250001 0 0 0 4.984375,0 l 7.607422,-7.607422 a 3.5250001,3.5250001 0 0 0 0,-4.984375 3.5250001,3.5250001 0 0 0 -2.492188,-1.033203 z"
     id="path13" /></svg>
