<?xml version="1.0" encoding="UTF-8" standalone="no"?>
<svg
   version="1.1"
   viewBox="0 0 50.308372 50.308364"
   fill="none"
   stroke="none"
   stroke-linecap="square"
   stroke-miterlimit="10"
   id="svg4"
   width="50.308372"
   height="50.308365"
   xml:space="preserve"
   xmlns="http://www.w3.org/2000/svg"
   xmlns:svg="http://www.w3.org/2000/svg"><defs
     id="defs4" /><path
     style="fill:#000000;stroke:none;stroke-width:0.999997;stroke-miterlimit:2;stroke-dasharray:none;paint-order:fill markers stroke"
     d="m 2.5311186,13.349026 c -1.38196,1.38196 -1.38196,3.606459 0,4.988418 1.381959,1.381959 3.606458,1.38196 4.988418,0 l 3.1074024,-3.107403 v 28.364801 c 0,1.954385 1.572862,3.527247 3.527247,3.527247 1.954387,0 3.527248,-1.572861 3.527248,-3.527248 V 15.232803 l 3.106022,3.106022 c 1.381959,1.38196 3.607839,1.380579 4.989798,-0.0014 1.38196,-1.381959 1.38196,-3.606458 0,-4.988418 L 16.651157,4.2229105 c -9.19e-4,-9.192e-4 -0.0018,-0.00184 -0.0028,-0.00276 -0.07983,-0.079829 -0.162113,-0.154476 -0.247215,-0.225111 -0.0015,-0.00121 -0.0026,-0.00289 -0.0042,-0.00417 -0.08638,-0.071407 -0.176781,-0.1369426 -0.267929,-0.1988724 -0.0034,-0.00228 -0.0076,-0.00325 -0.01105,-0.00553 -1.353032,-0.9125955 -3.185186,-0.7843808 -4.402844,0.3839364 -0.0179,0.01712 -0.03772,0.032209 -0.05524,0.049724 z"
     id="rect5" /><path
     style="fill:#000000;stroke:none;stroke-width:0.999997;stroke-miterlimit:2;stroke-dasharray:none;paint-order:fill markers stroke"
     d="m 47.777254,36.959339 c 1.38196,-1.38196 1.38196,-3.606459 0,-4.988418 -1.381959,-1.381959 -3.606458,-1.38196 -4.988418,0 l -3.107402,3.107403 V 6.713523 c 0,-1.954385 -1.572862,-3.527247 -3.527247,-3.527247 -1.954387,0 -3.527248,1.572861 -3.527248,3.527248 V 35.075562 L 29.520917,31.96954 c -1.381959,-1.38196 -3.607839,-1.380579 -4.989798,0.0014 -1.38196,1.381959 -1.38196,3.606458 0,4.988418 l 9.126097,9.126097 0.0028,0.0028 c 0.07983,0.07983 0.162113,0.154476 0.247215,0.225111 0.0015,0.0012 0.0026,0.0029 0.0042,0.0042 0.08638,0.07141 0.176781,0.136942 0.267929,0.198872 0.0034,0.0023 0.0076,0.0033 0.01105,0.0055 1.353032,0.912595 3.185186,0.784381 4.402844,-0.383936 0.0179,-0.01712 0.03772,-0.03221 0.05524,-0.04972 z"
     id="path1" /></svg>
