<?xml version="1.0" encoding="UTF-8" standalone="no"?>
<!-- Created with Inkscape (http://www.inkscape.org/) -->

<svg
   width="100mm"
   height="100mm"
   viewBox="0 0 100 100"
   version="1.1"
   id="svg5"
   inkscape:version="1.2.2 (732a01da63, 2022-12-09)"
   sodipodi:docname="golgi.svg"
   xml:space="preserve"
   xmlns:inkscape="http://www.inkscape.org/namespaces/inkscape"
   xmlns:sodipodi="http://sodipodi.sourceforge.net/DTD/sodipodi-0.dtd"
   xmlns="http://www.w3.org/2000/svg"
   xmlns:svg="http://www.w3.org/2000/svg"><sodipodi:namedview
     id="namedview7"
     pagecolor="#ffffff"
     bordercolor="#000000"
     borderopacity="0.25"
     inkscape:showpageshadow="2"
     inkscape:pageopacity="0.0"
     inkscape:pagecheckerboard="0"
     inkscape:deskcolor="#d1d1d1"
     inkscape:document-units="mm"
     showgrid="false"
     inkscape:zoom="0.70710678"
     inkscape:cx="144.95689"
     inkscape:cy="188.79751"
     inkscape:window-width="958"
     inkscape:window-height="1002"
     inkscape:window-x="-5"
     inkscape:window-y="0"
     inkscape:window-maximized="0"
     inkscape:current-layer="svg5" /><defs
     id="defs2"><inkscape:path-effect
       effect="spiro"
       id="path-effect12276"
       is_visible="true"
       lpeversion="1" /><inkscape:path-effect
       effect="spiro"
       id="path-effect12270"
       is_visible="true"
       lpeversion="1" /><inkscape:path-effect
       effect="spiro"
       id="path-effect12264"
       is_visible="true"
       lpeversion="1" /><inkscape:path-effect
       effect="spiro"
       id="path-effect12258"
       is_visible="true"
       lpeversion="1" /><inkscape:path-effect
       effect="spiro"
       id="path-effect12252"
       is_visible="true"
       lpeversion="1" /><inkscape:path-effect
       effect="spiro"
       id="path-effect8572"
       is_visible="true"
       lpeversion="1" /><inkscape:path-effect
       effect="spiro"
       id="path-effect8568"
       is_visible="true"
       lpeversion="1" /><inkscape:path-effect
       effect="spiro"
       id="path-effect8564"
       is_visible="true"
       lpeversion="1" /><inkscape:path-effect
       effect="spiro"
       id="path-effect8454"
       is_visible="true"
       lpeversion="1" /><inkscape:path-effect
       effect="spiro"
       id="path-effect8442"
       is_visible="true"
       lpeversion="1" /><inkscape:path-effect
       effect="spiro"
       id="path-effect6212"
       is_visible="true"
       lpeversion="1" /><inkscape:path-effect
       effect="simplify"
       id="path-effect6208"
       is_visible="true"
       lpeversion="1"
       steps="1"
       threshold="0.00342105"
       smooth_angles="360"
       helper_size="0"
       simplify_individual_paths="false"
       simplify_just_coalesce="false" /><inkscape:path-effect
       effect="spiro"
       id="path-effect3287"
       is_visible="true"
       lpeversion="1" /><inkscape:path-effect
       effect="spiro"
       id="path-effect7164"
       is_visible="true"
       lpeversion="1" /><inkscape:path-effect
       effect="spiro"
       id="path-effect7158"
       is_visible="true"
       lpeversion="1" /><inkscape:path-effect
       effect="spiro"
       id="path-effect5700"
       is_visible="true"
       lpeversion="1" /><inkscape:path-effect
       effect="spiro"
       id="path-effect5694"
       is_visible="true"
       lpeversion="1" /><inkscape:path-effect
       effect="bspline"
       id="path-effect4775"
       is_visible="true"
       lpeversion="1"
       weight="33.333333"
       steps="2"
       helper_size="0"
       apply_no_weight="true"
       apply_with_weight="true"
       only_selected="false" /><inkscape:path-effect
       effect="spiro"
       id="path-effect3181"
       is_visible="true"
       lpeversion="1" /><inkscape:path-effect
       effect="spiro"
       id="path-effect3169"
       is_visible="true"
       lpeversion="1" /><inkscape:path-effect
       effect="spiro"
       id="path-effect13969"
       is_visible="true"
       lpeversion="1" /><inkscape:path-effect
       effect="spiro"
       id="path-effect13965"
       is_visible="true"
       lpeversion="1" /><inkscape:path-effect
       effect="spiro"
       id="path-effect13961"
       is_visible="true"
       lpeversion="1" /><inkscape:path-effect
       effect="spiro"
       id="path-effect9241"
       is_visible="true"
       lpeversion="1" /><inkscape:path-effect
       effect="spiro"
       id="path-effect8511"
       is_visible="true"
       lpeversion="1" /><inkscape:path-effect
       effect="spiro"
       id="path-effect8358"
       is_visible="true"
       lpeversion="1" /><inkscape:path-effect
       effect="spiro"
       id="path-effect20691"
       is_visible="true"
       lpeversion="1" /><inkscape:path-effect
       effect="spiro"
       id="path-effect20687"
       is_visible="true"
       lpeversion="1" /><inkscape:path-effect
       effect="spiro"
       id="path-effect20683"
       is_visible="true"
       lpeversion="1" /><inkscape:path-effect
       effect="spiro"
       id="path-effect20673"
       is_visible="true"
       lpeversion="1" /><inkscape:path-effect
       effect="spiro"
       id="path-effect20669"
       is_visible="true"
       lpeversion="1" /><inkscape:path-effect
       effect="spiro"
       id="path-effect20665"
       is_visible="true"
       lpeversion="1" /><inkscape:path-effect
       effect="spiro"
       id="path-effect20655"
       is_visible="true"
       lpeversion="1" /><inkscape:path-effect
       effect="spiro"
       id="path-effect20651"
       is_visible="true"
       lpeversion="1" /><inkscape:path-effect
       effect="spiro"
       id="path-effect20643"
       is_visible="true"
       lpeversion="1" /><inkscape:path-effect
       effect="spiro"
       id="path-effect20637"
       is_visible="true"
       lpeversion="1" /><inkscape:path-effect
       effect="spiro"
       id="path-effect20633"
       is_visible="true"
       lpeversion="1" /><inkscape:path-effect
       effect="spiro"
       id="path-effect20629"
       is_visible="true"
       lpeversion="1" /><inkscape:path-effect
       effect="spiro"
       id="path-effect20625"
       is_visible="true"
       lpeversion="1" /><inkscape:path-effect
       effect="spiro"
       id="path-effect20621"
       is_visible="true"
       lpeversion="1" /><inkscape:path-effect
       effect="spiro"
       id="path-effect20617"
       is_visible="true"
       lpeversion="1" /><inkscape:path-effect
       effect="spiro"
       id="path-effect20613"
       is_visible="true"
       lpeversion="1" /><inkscape:path-effect
       effect="spiro"
       id="path-effect20595"
       is_visible="true"
       lpeversion="1" /><inkscape:path-effect
       effect="spiro"
       id="path-effect20591"
       is_visible="true"
       lpeversion="1" /><inkscape:path-effect
       effect="spiro"
       id="path-effect20587"
       is_visible="true"
       lpeversion="1" /><inkscape:path-effect
       effect="spiro"
       id="path-effect20583"
       is_visible="true"
       lpeversion="1" /><inkscape:path-effect
       effect="spiro"
       id="path-effect20579"
       is_visible="true"
       lpeversion="1" /><inkscape:path-effect
       effect="spiro"
       id="path-effect20575"
       is_visible="true"
       lpeversion="1" /><inkscape:path-effect
       effect="spiro"
       id="path-effect20571"
       is_visible="true"
       lpeversion="1" /><inkscape:path-effect
       effect="spiro"
       id="path-effect20553"
       is_visible="true"
       lpeversion="1" /><inkscape:path-effect
       effect="spiro"
       id="path-effect20549"
       is_visible="true"
       lpeversion="1" /><inkscape:path-effect
       effect="spiro"
       id="path-effect20545"
       is_visible="true"
       lpeversion="1" /><inkscape:path-effect
       effect="spiro"
       id="path-effect20541"
       is_visible="true"
       lpeversion="1" /><inkscape:path-effect
       effect="spiro"
       id="path-effect20537"
       is_visible="true"
       lpeversion="1" /><inkscape:path-effect
       effect="spiro"
       id="path-effect20533"
       is_visible="true"
       lpeversion="1" /><inkscape:path-effect
       effect="spiro"
       id="path-effect20529"
       is_visible="true"
       lpeversion="1" /><inkscape:path-effect
       effect="spiro"
       id="path-effect20511"
       is_visible="true"
       lpeversion="1" /><inkscape:path-effect
       effect="spiro"
       id="path-effect20507"
       is_visible="true"
       lpeversion="1" /><inkscape:path-effect
       effect="spiro"
       id="path-effect20503"
       is_visible="true"
       lpeversion="1" /><inkscape:path-effect
       effect="spiro"
       id="path-effect20493"
       is_visible="true"
       lpeversion="1" /><inkscape:path-effect
       effect="spiro"
       id="path-effect20489"
       is_visible="true"
       lpeversion="1" /><inkscape:path-effect
       effect="spiro"
       id="path-effect20485"
       is_visible="true"
       lpeversion="1" /><inkscape:path-effect
       effect="spiro"
       id="path-effect20475"
       is_visible="true"
       lpeversion="1" /><inkscape:path-effect
       effect="spiro"
       id="path-effect20471"
       is_visible="true"
       lpeversion="1" /><inkscape:path-effect
       effect="spiro"
       id="path-effect20463"
       is_visible="true"
       lpeversion="1" /><inkscape:path-effect
       effect="spiro"
       id="path-effect20459"
       is_visible="true"
       lpeversion="1" /><inkscape:path-effect
       effect="spiro"
       id="path-effect20451"
       is_visible="true"
       lpeversion="1" /><inkscape:path-effect
       effect="spiro"
       id="path-effect20445"
       is_visible="true"
       lpeversion="1" /><inkscape:path-effect
       effect="spiro"
       id="path-effect20439"
       is_visible="true"
       lpeversion="1" /><inkscape:path-effect
       effect="spiro"
       id="path-effect19562"
       is_visible="true"
       lpeversion="1" /><inkscape:path-effect
       effect="bspline"
       id="path-effect19323"
       is_visible="true"
       lpeversion="1"
       weight="33.333333"
       steps="2"
       helper_size="0"
       apply_no_weight="true"
       apply_with_weight="true"
       only_selected="false" /><inkscape:path-effect
       effect="bspline"
       id="path-effect18797"
       is_visible="true"
       lpeversion="1"
       weight="33.333333"
       steps="2"
       helper_size="0"
       apply_no_weight="true"
       apply_with_weight="true"
       only_selected="false" /><inkscape:path-effect
       effect="bspline"
       id="path-effect17104"
       is_visible="true"
       lpeversion="1"
       weight="33.333333"
       steps="2"
       helper_size="0"
       apply_no_weight="true"
       apply_with_weight="true"
       only_selected="false" /><inkscape:path-effect
       effect="spiro"
       id="path-effect5612"
       is_visible="true"
       lpeversion="1" /><inkscape:path-effect
       effect="simplify"
       id="path-effect5610"
       is_visible="true"
       lpeversion="1"
       steps="1"
       threshold="0.00342105"
       smooth_angles="360"
       helper_size="0"
       simplify_individual_paths="false"
       simplify_just_coalesce="false" /><inkscape:path-effect
       effect="spiro"
       id="path-effect2975"
       is_visible="true"
       lpeversion="1" /><inkscape:path-effect
       effect="simplify"
       id="path-effect5610-2"
       is_visible="true"
       lpeversion="1"
       steps="1"
       threshold="0.00342105"
       smooth_angles="360"
       helper_size="0"
       simplify_individual_paths="false"
       simplify_just_coalesce="false" /><inkscape:path-effect
       effect="spiro"
       id="path-effect5612-8"
       is_visible="true"
       lpeversion="1" /><inkscape:path-effect
       effect="bspline"
       id="path-effect18797-2"
       is_visible="true"
       lpeversion="1"
       weight="33.333333"
       steps="2"
       helper_size="0"
       apply_no_weight="true"
       apply_with_weight="true"
       only_selected="false" /><inkscape:path-effect
       effect="spiro"
       id="path-effect9241-8"
       is_visible="true"
       lpeversion="1" /><inkscape:path-effect
       effect="spiro"
       id="path-effect13961-2"
       is_visible="true"
       lpeversion="1" /><inkscape:path-effect
       effect="spiro"
       id="path-effect13965-2"
       is_visible="true"
       lpeversion="1" /><inkscape:path-effect
       effect="spiro"
       id="path-effect13969-8"
       is_visible="true"
       lpeversion="1" /><inkscape:path-effect
       effect="bspline"
       id="path-effect19323-2"
       is_visible="true"
       lpeversion="1"
       weight="33.333333"
       steps="2"
       helper_size="0"
       apply_no_weight="true"
       apply_with_weight="true"
       only_selected="false" /></defs><g
     id="g3603"
     inkscape:label="Golgi Apparatus"
     transform="matrix(-1.7138043,0.659943,-0.65891629,-1.7111384,177.09607,22.343665)"
     style="stroke-width:3.42246"><path
       style="fill:#cccccc;fill-opacity:1;stroke:#808080;stroke-width:0.349092;stroke-linecap:round;stroke-miterlimit:2;stroke-dasharray:none;stroke-dashoffset:0;stroke-opacity:1;paint-order:fill markers stroke;stop-color:#000000"
       d="m 59.88837,-1.6461493 c 1.162793,0.1858562 2.275574,0.88584851 3.428341,1.19791659 1.384275,0.3747399 2.771243,0.63625396 4.179946,0.80755042 0.925885,0.11258636 1.865036,0.22135131 2.794453,0.14310052 0.63231,-0.0532364 1.065365,-0.0963448 1.139053,-0.50509552 0.0489,-0.27125425 -0.48304,-0.32455774 -0.591261,-0.57805008 -0.13218,-0.30961283 -0.180863,-0.71959103 -0.0104,-1.00988933 0.229412,-0.3906812 0.740654,-0.650093 1.193712,-0.6499262 0.425423,1.566e-4 0.889572,0.2537849 1.12045,0.6111079 0.155041,0.2399519 0.149799,0.5818026 0.06492,0.85458574 -0.08878,0.28533832 -0.663229,0.41602029 -0.563104,0.69757906 0.18865,0.53049782 1.089945,0.37020342 1.652602,0.34936734 0.67652,-0.0250526 1.343871,-0.26541364 1.950522,-0.56588148 0.720092,-0.35665414 1.137499,-1.35787486 1.937404,-1.43460146 0.36299,-0.034818 0.826808,0.14438 0.986896,0.4720161 0.246616,0.50472147 -0.04077,1.18442709 -0.360651,1.64620708 C 78.240066,1.2144153 77.245562,1.7348823 76.285639,2.025976 74.306328,2.6261955 72.14657,2.2252226 70.0813,2.1130065 67.860521,1.9923408 65.644051,1.7129035 63.459208,1.2971174 61.818475,0.98487818 59.971231,1.0065084 58.608834,0.04039638 58.360139,-0.13595956 58.110355,-0.41458589 58.09946,-0.71926879 58.08719,-1.0623261 58.315752,-1.4373107 58.610426,-1.6133956 c 0.365789,-0.2185803 0.853907,-0.1005301 1.277944,-0.032754 z"
       id="path3593"
       sodipodi:nodetypes="aaasaaaaaaaaaaaaaaaaaaa" /><path
       style="fill:#cccccc;fill-opacity:1;stroke:#808080;stroke-width:0.349092;stroke-linecap:round;stroke-miterlimit:2;stroke-dasharray:none;stroke-dashoffset:0;stroke-opacity:1;paint-order:fill markers stroke;stop-color:#000000"
       d="M 56.666792,1.8181176 C 55.415732,1.6888764 54.262654,1.419729 52.908906,1.4790278 c -0.578421,0.025337 -1.451873,0.3076453 -1.767877,0.8861398 -0.477241,0.8736621 -0.138182,2.298851 0.316661,2.9697008 0.913627,1.3475072 2.462123,0.5879882 3.673289,0.3907499 1.383365,-0.2252809 2.530035,-0.4429811 3.799951,-0.5470503 3.857513,-0.3161248 7.723891,-0.173742 11.586014,-0.2336829 4.929271,-0.076506 9.874977,0.4986246 14.788149,-0.1607607 0.858531,-0.1152193 1.897644,0.055627 2.23519,-1.0967183 C 87.766828,2.9139963 87.322736,1.9082617 86.955581,1.2982019 86.489338,0.52349813 85.774613,0.20437886 85.118936,0.04671755 84.122014,-0.19299834 83.074744,0.0651982 82.112232,0.55507573 81.124749,1.0576626 80.382065,2.5280448 79.387341,2.9903681 77.566519,3.8366416 75.611155,3.4926729 73.719081,3.485318 70.335714,3.4721659 66.964036,2.8303426 63.585872,2.5214677 62.398531,2.412906 61.210307,2.3300164 60.023417,2.2088677 58.903897,2.0945957 57.78726,1.933868 56.666792,1.8181176 Z"
       id="path3595"
       sodipodi:nodetypes="asaasaasaaaaaaaaa" /><path
       style="fill:#cccccc;fill-opacity:1;stroke:#808080;stroke-width:0.349092;stroke-linecap:round;stroke-miterlimit:2;stroke-dasharray:none;stroke-dashoffset:0;stroke-opacity:1;paint-order:fill markers stroke;stop-color:#000000"
       d="m 52.186016,7.7575193 c -0.725956,0.3804075 -1.494662,0.6165241 -1.876926,1.5882831 -0.202,0.5135079 -0.220093,1.2810426 -0.05916,1.8324386 0.175121,0.600017 0.605185,0.939881 0.9861,1.164077 0.703101,0.413826 1.494273,0.387109 2.235517,0.238379 0.850917,-0.170736 1.640687,-0.820656 2.45109,-1.280378 1.086193,-0.61617 2.115103,-1.522781 3.229962,-1.9797997 1.384465,-0.5675391 2.821777,-0.7232158 4.243279,-0.925158 1.62084,-0.2302624 3.249736,-0.3245224 4.876607,-0.3252381 1.584579,-6.976e-4 3.170206,0.108852 4.749938,0.3126007 1.99185,0.2569127 3.977536,0.6571429 5.953262,1.1462002 1.613262,0.3993351 3.261172,0.8250659 4.813271,1.4587989 0.902324,0.368426 1.73795,0.883485 2.592134,1.352842 0.792109,0.435247 1.45641,1.505664 2.347805,1.356358 0.635141,-0.106384 1.071967,-0.673676 1.26665,-1.458799 0.129817,-0.523526 -0.0096,-1.185919 -0.189997,-1.6672 C 89.36677,9.4001198 88.572143,8.6375208 87.810573,8.0701232 86.839408,7.3465669 85.734876,7.2264118 84.675612,7.0281238 80.825175,6.3073447 76.928654,6.6294797 73.054089,6.5071233 69.265156,6.3874782 65.475552,6.244964 61.6859,6.2987234 c -1.648278,0.023382 -3.311226,-0.02342 -4.939939,0.2308609 -1.669723,0.2183058 -3.165647,0.4973099 -4.559945,1.227935 z"
       id="path3597"
       sodipodi:nodetypes="aaaaaaaaaaaaaaaaaaaaca" /><path
       style="fill:#cccccc;fill-opacity:1;stroke:#808080;stroke-width:0.349092;stroke-linecap:round;stroke-miterlimit:2;stroke-dasharray:none;stroke-dashoffset:0;stroke-opacity:1;paint-order:fill markers stroke;stop-color:#000000"
       d="m 60.482577,10.675119 c -0.758028,0.10418 -1.523782,0.18161 -2.264136,0.4689 -0.898407,0.348622 -1.850412,0.653923 -2.612468,1.5109 -0.448026,0.503832 -0.999992,1.144662 -1.06082,2.031899 -0.04948,0.721768 0.251204,1.52225 0.617492,1.927701 0.444434,0.491951 1.069305,0.36514 1.599147,0.260501 1.458904,-0.28812 2.483197,-1.646262 3.79995,-2.337331 1.758953,-0.923148 3.513416,-1.975382 5.453158,-2.40377 2.560391,-0.565458 5.250784,-0.486053 7.864761,-0.153686 1.888669,0.240144 3.791982,0.641173 5.604656,1.546206 0.786138,0.392504 1.522513,1.028525 2.247261,1.665031 0.768371,0.674818 1.355434,2.067654 2.217299,2.274524 0.677858,0.162702 1.434258,-0.217462 1.981859,-0.894641 0.264044,-0.326525 0.554292,-0.850276 0.517527,-1.390355 -0.05502,-0.808223 -0.622825,-1.298408 -1.035054,-1.747201 -0.605429,-0.659131 -1.328005,-0.993248 -2.029823,-1.298799 -1.275478,-0.555303 -2.605331,-0.697931 -3.915753,-0.950441 -2.394425,-0.46139 -4.795892,-0.891502 -7.205203,-1.030443 -2.306168,-0.132988 -4.615185,0.07917 -6.921796,0.189438 -1.620061,0.07744 -3.242937,0.109592 -4.858057,0.331567 z"
       id="path3599"
       sodipodi:nodetypes="aaaaaaaaaaaaaaaaaaaa" /><path
       style="fill:#cccccc;fill-opacity:1;stroke:#808080;stroke-width:0.349092;stroke-linecap:round;stroke-miterlimit:2;stroke-dasharray:none;stroke-dashoffset:0;stroke-opacity:1;paint-order:fill markers stroke;stop-color:#000000"
       d="m 64.51347,13.912195 c -1.178746,0.365681 -2.465044,0.737741 -3.330391,1.617705 -0.653995,0.665042 -1.223585,1.474502 -1.180268,2.5371 0.02755,0.675738 0.497112,1.164739 0.8748,1.434059 0.731888,0.521891 1.619967,0.467843 2.391598,0.135259 0.549872,-0.237005 0.972317,-0.969258 1.45665,-1.458799 0.793664,-0.802198 1.417086,-1.821555 2.37497,-2.422651 0.73603,-0.461877 1.62977,-0.798759 2.469969,-0.833595 1.115542,-0.04625 2.228387,0.376374 3.309125,0.8336 0.979956,0.414588 1.906773,1.11658 2.849965,1.7193 0.712606,0.45537 1.397825,1.028062 2.121641,1.432749 0.761278,0.425634 1.523887,1.086271 2.32747,1.042001 0.613868,-0.03383 1.52161,-0.04641 1.741644,-0.989899 0.171819,-0.736741 -0.338148,-1.547168 -0.696658,-2.071359 -0.86077,-1.258566 -2.088507,-1.643084 -3.198292,-2.148742 -1.27109,-0.579155 -2.597737,-0.785143 -3.910784,-0.9899 -2.02419,-0.315656 -4.062252,-0.45596 -6.095758,-0.3647 -1.180545,0.05298 -2.377013,0.177727 -3.505681,0.527872 z"
       id="path3601"
       sodipodi:nodetypes="aaaaaaaaaaaaaaaaaa" /></g><g
     id="g3609"
     transform="matrix(6.4309652,-2.7558459,2.7558459,6.4309652,-326.01495,-404.13541)"><circle
       style="fill:#cccccc;fill-opacity:1;stroke:#808080;stroke-width:0.349092;stroke-linecap:round;stroke-miterlimit:2;stroke-dasharray:none;stroke-dashoffset:0;stroke-opacity:1;paint-order:fill markers stroke;stop-color:#000000"
       id="circle3605"
       cx="66.119171"
       cy="-4.5599427"
       r="2.0266414"
       transform="matrix(-0.26230015,-0.00978326,0.00976806,-0.26189212,42.085694,84.351376)" /><circle
       style="opacity:0.5;fill:#649dd1;fill-opacity:1;stroke:#3666a3;stroke-width:0.0913445;stroke-linecap:round;stroke-miterlimit:2;stroke-dasharray:none;stroke-dashoffset:0;stroke-opacity:1;paint-order:fill markers stroke;stop-color:#000000"
       id="circle3607"
       cx="5.1773639"
       cy="88.266602"
       inkscape:label="Vesicle"
       r="0.53132373"
       transform="rotate(-12.863972)" /></g><g
     id="g3615"
     transform="matrix(6.4309652,-2.7558459,2.7558459,6.4309652,-326.01495,-404.13541)"><circle
       style="fill:#cccccc;fill-opacity:1;stroke:#808080;stroke-width:0.349092;stroke-linecap:round;stroke-miterlimit:2;stroke-dasharray:none;stroke-dashoffset:0;stroke-opacity:1;paint-order:fill markers stroke;stop-color:#000000"
       id="circle3611"
       cx="49.682194"
       cy="18.394703"
       r="3.4643738"
       transform="matrix(-0.26230015,-0.00978326,0.00976806,-0.26189212,42.085694,84.351376)" /><circle
       style="opacity:0.5;fill:#649dd1;fill-opacity:1;stroke:#3666a3;stroke-width:0.0913445;stroke-linecap:round;stroke-miterlimit:2;stroke-dasharray:none;stroke-dashoffset:0;stroke-opacity:1;paint-order:fill markers stroke;stop-color:#000000"
       id="circle3613"
       cx="10.902289"
       cy="83.572418"
       inkscape:label="Vesicle"
       r="0.90824819"
       transform="rotate(-12.863972)" /></g><g
     id="g3621"
     transform="matrix(6.4309652,-2.7558459,2.7558459,6.4309652,-326.01495,-404.13541)"><circle
       style="fill:#cccccc;fill-opacity:1;stroke:#808080;stroke-width:0.349092;stroke-linecap:round;stroke-miterlimit:2;stroke-dasharray:none;stroke-dashoffset:0;stroke-opacity:1;paint-order:fill markers stroke;stop-color:#000000"
       id="circle3617"
       cx="91.221367"
       cy="4.0532827"
       r="2.1533065"
       transform="matrix(-0.26230015,-0.00978326,0.00976806,-0.26189212,42.085694,84.351376)" /><circle
       style="opacity:0.5;fill:#649dd1;fill-opacity:1;stroke:#3666a3;stroke-width:0.0913445;stroke-linecap:round;stroke-miterlimit:2;stroke-dasharray:none;stroke-dashoffset:0;stroke-opacity:1;paint-order:fill markers stroke;stop-color:#000000"
       id="circle3619"
       cx="-0.60355961"
       cy="84.380882"
       inkscape:label="Vesicle"
       r="0.56452984"
       transform="rotate(-12.863972)" /></g><text
     xml:space="preserve"
     style="font-weight:bold;font-size:7.05556px;line-height:1;font-family:Arial;-inkscape-font-specification:'Arial Bold';text-align:center;text-decoration-color:#000000;opacity:1;fill:#000000;stroke:none;stroke-width:1.065;stroke-linecap:round;stroke-linejoin:round;stroke-miterlimit:2;paint-order:fill markers stroke;stop-color:#000000"
     x="39.110252"
     y="20.450249"
     id="text4288"><tspan
       sodipodi:role="line"
       style="font-size:7.05556px;text-align:center;text-anchor:middle;opacity:1;fill:#000000;stroke-width:1.065"
       x="39.110252"
       y="20.450249"
       id="tspan4286">Golgi Apparatus</tspan></text><path
     style="opacity:1;fill:none;stroke:#000000;stroke-width:1.065;stroke-linecap:round;stroke-linejoin:round;stroke-miterlimit:2;paint-order:fill markers stroke;stop-color:#000000"
     d="m 70.079679,76.544077 6.844778,9.642859"
     id="path4290"
     sodipodi:nodetypes="cc" /><text
     xml:space="preserve"
     style="font-weight:bold;font-size:7.05556px;line-height:1;font-family:Arial;-inkscape-font-specification:'Arial Bold';text-align:center;text-decoration-color:#000000;opacity:1;fill:#000000;stroke:none;stroke-width:1.065;stroke-linecap:round;stroke-linejoin:round;stroke-miterlimit:2;paint-order:fill markers stroke;stop-color:#000000"
     x="77.864594"
     y="92.167908"
     id="text5690"><tspan
       sodipodi:role="line"
       style="font-size:7.05556px;text-align:center;text-anchor:middle;opacity:1;fill:#000000;stroke-width:1.065"
       x="77.864594"
       y="92.167908"
       id="tspan5688">Vesicle</tspan></text><path
     style="opacity:1;fill:none;stroke:#000000;stroke-width:1.065;stroke-linecap:round;stroke-linejoin:round;stroke-miterlimit:2;paint-order:fill markers stroke;stop-color:#000000"
     d="m 44.652085,22.339012 8.341488,14.132987"
     id="path5692"
     sodipodi:nodetypes="cc" /></svg>
