<?xml version="1.0" encoding="UTF-8" standalone="no"?>
<!-- Created with Inkscape (http://www.inkscape.org/) -->

<svg
   width="100mm"
   height="100mm"
   viewBox="0 0 100 100"
   version="1.1"
   id="svg5"
   inkscape:version="1.2.2 (732a01da63, 2022-12-09)"
   sodipodi:docname="mitochondria.svg"
   xml:space="preserve"
   xmlns:inkscape="http://www.inkscape.org/namespaces/inkscape"
   xmlns:sodipodi="http://sodipodi.sourceforge.net/DTD/sodipodi-0.dtd"
   xmlns="http://www.w3.org/2000/svg"
   xmlns:svg="http://www.w3.org/2000/svg"><sodipodi:namedview
     id="namedview7"
     pagecolor="#ffffff"
     bordercolor="#000000"
     borderopacity="0.25"
     inkscape:showpageshadow="2"
     inkscape:pageopacity="0.0"
     inkscape:pagecheckerboard="0"
     inkscape:deskcolor="#d1d1d1"
     inkscape:document-units="mm"
     showgrid="false"
     inkscape:zoom="4.0000001"
     inkscape:cx="286.99999"
     inkscape:cy="157.125"
     inkscape:window-width="958"
     inkscape:window-height="1002"
     inkscape:window-x="0"
     inkscape:window-y="0"
     inkscape:window-maximized="0"
     inkscape:current-layer="svg5" /><defs
     id="defs2"><inkscape:path-effect
       effect="spiro"
       id="path-effect1787"
       is_visible="true"
       lpeversion="1" /><inkscape:path-effect
       effect="spiro"
       id="path-effect12276"
       is_visible="true"
       lpeversion="1" /><inkscape:path-effect
       effect="spiro"
       id="path-effect12270"
       is_visible="true"
       lpeversion="1" /><inkscape:path-effect
       effect="spiro"
       id="path-effect12264"
       is_visible="true"
       lpeversion="1" /><inkscape:path-effect
       effect="spiro"
       id="path-effect12258"
       is_visible="true"
       lpeversion="1" /><inkscape:path-effect
       effect="spiro"
       id="path-effect12252"
       is_visible="true"
       lpeversion="1" /><inkscape:path-effect
       effect="spiro"
       id="path-effect8572"
       is_visible="true"
       lpeversion="1" /><inkscape:path-effect
       effect="spiro"
       id="path-effect8568"
       is_visible="true"
       lpeversion="1" /><inkscape:path-effect
       effect="spiro"
       id="path-effect8564"
       is_visible="true"
       lpeversion="1" /><inkscape:path-effect
       effect="spiro"
       id="path-effect8454"
       is_visible="true"
       lpeversion="1" /><inkscape:path-effect
       effect="spiro"
       id="path-effect8442"
       is_visible="true"
       lpeversion="1" /><inkscape:path-effect
       effect="spiro"
       id="path-effect6212"
       is_visible="true"
       lpeversion="1" /><inkscape:path-effect
       effect="simplify"
       id="path-effect6208"
       is_visible="true"
       lpeversion="1"
       steps="1"
       threshold="0.00342105"
       smooth_angles="360"
       helper_size="0"
       simplify_individual_paths="false"
       simplify_just_coalesce="false" /><inkscape:path-effect
       effect="spiro"
       id="path-effect3287"
       is_visible="true"
       lpeversion="1" /><inkscape:path-effect
       effect="spiro"
       id="path-effect7164"
       is_visible="true"
       lpeversion="1" /><inkscape:path-effect
       effect="spiro"
       id="path-effect7158"
       is_visible="true"
       lpeversion="1" /><inkscape:path-effect
       effect="spiro"
       id="path-effect5700"
       is_visible="true"
       lpeversion="1" /><inkscape:path-effect
       effect="spiro"
       id="path-effect5694"
       is_visible="true"
       lpeversion="1" /><inkscape:path-effect
       effect="bspline"
       id="path-effect4775"
       is_visible="true"
       lpeversion="1"
       weight="33.333333"
       steps="2"
       helper_size="0"
       apply_no_weight="true"
       apply_with_weight="true"
       only_selected="false" /><inkscape:path-effect
       effect="spiro"
       id="path-effect3181"
       is_visible="true"
       lpeversion="1" /><inkscape:path-effect
       effect="spiro"
       id="path-effect3169"
       is_visible="true"
       lpeversion="1" /><inkscape:path-effect
       effect="spiro"
       id="path-effect13969"
       is_visible="true"
       lpeversion="1" /><inkscape:path-effect
       effect="spiro"
       id="path-effect13965"
       is_visible="true"
       lpeversion="1" /><inkscape:path-effect
       effect="spiro"
       id="path-effect13961"
       is_visible="true"
       lpeversion="1" /><inkscape:path-effect
       effect="spiro"
       id="path-effect9241"
       is_visible="true"
       lpeversion="1" /><inkscape:path-effect
       effect="spiro"
       id="path-effect8511"
       is_visible="true"
       lpeversion="1" /><inkscape:path-effect
       effect="spiro"
       id="path-effect8358"
       is_visible="true"
       lpeversion="1" /><inkscape:path-effect
       effect="spiro"
       id="path-effect20691"
       is_visible="true"
       lpeversion="1" /><inkscape:path-effect
       effect="spiro"
       id="path-effect20687"
       is_visible="true"
       lpeversion="1" /><inkscape:path-effect
       effect="spiro"
       id="path-effect20683"
       is_visible="true"
       lpeversion="1" /><inkscape:path-effect
       effect="spiro"
       id="path-effect20673"
       is_visible="true"
       lpeversion="1" /><inkscape:path-effect
       effect="spiro"
       id="path-effect20669"
       is_visible="true"
       lpeversion="1" /><inkscape:path-effect
       effect="spiro"
       id="path-effect20665"
       is_visible="true"
       lpeversion="1" /><inkscape:path-effect
       effect="spiro"
       id="path-effect20655"
       is_visible="true"
       lpeversion="1" /><inkscape:path-effect
       effect="spiro"
       id="path-effect20651"
       is_visible="true"
       lpeversion="1" /><inkscape:path-effect
       effect="spiro"
       id="path-effect20643"
       is_visible="true"
       lpeversion="1" /><inkscape:path-effect
       effect="spiro"
       id="path-effect20637"
       is_visible="true"
       lpeversion="1" /><inkscape:path-effect
       effect="spiro"
       id="path-effect20633"
       is_visible="true"
       lpeversion="1" /><inkscape:path-effect
       effect="spiro"
       id="path-effect20629"
       is_visible="true"
       lpeversion="1" /><inkscape:path-effect
       effect="spiro"
       id="path-effect20625"
       is_visible="true"
       lpeversion="1" /><inkscape:path-effect
       effect="spiro"
       id="path-effect20621"
       is_visible="true"
       lpeversion="1" /><inkscape:path-effect
       effect="spiro"
       id="path-effect20617"
       is_visible="true"
       lpeversion="1" /><inkscape:path-effect
       effect="spiro"
       id="path-effect20613"
       is_visible="true"
       lpeversion="1" /><inkscape:path-effect
       effect="spiro"
       id="path-effect20595"
       is_visible="true"
       lpeversion="1" /><inkscape:path-effect
       effect="spiro"
       id="path-effect20591"
       is_visible="true"
       lpeversion="1" /><inkscape:path-effect
       effect="spiro"
       id="path-effect20587"
       is_visible="true"
       lpeversion="1" /><inkscape:path-effect
       effect="spiro"
       id="path-effect20583"
       is_visible="true"
       lpeversion="1" /><inkscape:path-effect
       effect="spiro"
       id="path-effect20579"
       is_visible="true"
       lpeversion="1" /><inkscape:path-effect
       effect="spiro"
       id="path-effect20575"
       is_visible="true"
       lpeversion="1" /><inkscape:path-effect
       effect="spiro"
       id="path-effect20571"
       is_visible="true"
       lpeversion="1" /><inkscape:path-effect
       effect="spiro"
       id="path-effect20553"
       is_visible="true"
       lpeversion="1" /><inkscape:path-effect
       effect="spiro"
       id="path-effect20549"
       is_visible="true"
       lpeversion="1" /><inkscape:path-effect
       effect="spiro"
       id="path-effect20545"
       is_visible="true"
       lpeversion="1" /><inkscape:path-effect
       effect="spiro"
       id="path-effect20541"
       is_visible="true"
       lpeversion="1" /><inkscape:path-effect
       effect="spiro"
       id="path-effect20537"
       is_visible="true"
       lpeversion="1" /><inkscape:path-effect
       effect="spiro"
       id="path-effect20533"
       is_visible="true"
       lpeversion="1" /><inkscape:path-effect
       effect="spiro"
       id="path-effect20529"
       is_visible="true"
       lpeversion="1" /><inkscape:path-effect
       effect="spiro"
       id="path-effect20511"
       is_visible="true"
       lpeversion="1" /><inkscape:path-effect
       effect="spiro"
       id="path-effect20507"
       is_visible="true"
       lpeversion="1" /><inkscape:path-effect
       effect="spiro"
       id="path-effect20503"
       is_visible="true"
       lpeversion="1" /><inkscape:path-effect
       effect="spiro"
       id="path-effect20493"
       is_visible="true"
       lpeversion="1" /><inkscape:path-effect
       effect="spiro"
       id="path-effect20489"
       is_visible="true"
       lpeversion="1" /><inkscape:path-effect
       effect="spiro"
       id="path-effect20485"
       is_visible="true"
       lpeversion="1" /><inkscape:path-effect
       effect="spiro"
       id="path-effect20475"
       is_visible="true"
       lpeversion="1" /><inkscape:path-effect
       effect="spiro"
       id="path-effect20471"
       is_visible="true"
       lpeversion="1" /><inkscape:path-effect
       effect="spiro"
       id="path-effect20463"
       is_visible="true"
       lpeversion="1" /><inkscape:path-effect
       effect="spiro"
       id="path-effect20459"
       is_visible="true"
       lpeversion="1" /><inkscape:path-effect
       effect="spiro"
       id="path-effect20451"
       is_visible="true"
       lpeversion="1" /><inkscape:path-effect
       effect="spiro"
       id="path-effect20445"
       is_visible="true"
       lpeversion="1" /><inkscape:path-effect
       effect="spiro"
       id="path-effect20439"
       is_visible="true"
       lpeversion="1" /><inkscape:path-effect
       effect="spiro"
       id="path-effect19562"
       is_visible="true"
       lpeversion="1" /><inkscape:path-effect
       effect="bspline"
       id="path-effect19323"
       is_visible="true"
       lpeversion="1"
       weight="33.333333"
       steps="2"
       helper_size="0"
       apply_no_weight="true"
       apply_with_weight="true"
       only_selected="false" /><inkscape:path-effect
       effect="bspline"
       id="path-effect18797"
       is_visible="true"
       lpeversion="1"
       weight="33.333333"
       steps="2"
       helper_size="0"
       apply_no_weight="true"
       apply_with_weight="true"
       only_selected="false" /><inkscape:path-effect
       effect="bspline"
       id="path-effect17104"
       is_visible="true"
       lpeversion="1"
       weight="33.333333"
       steps="2"
       helper_size="0"
       apply_no_weight="true"
       apply_with_weight="true"
       only_selected="false" /><inkscape:path-effect
       effect="spiro"
       id="path-effect5612"
       is_visible="true"
       lpeversion="1" /><inkscape:path-effect
       effect="simplify"
       id="path-effect5610"
       is_visible="true"
       lpeversion="1"
       steps="1"
       threshold="0.00342105"
       smooth_angles="360"
       helper_size="0"
       simplify_individual_paths="false"
       simplify_just_coalesce="false" /><inkscape:path-effect
       effect="spiro"
       id="path-effect2975"
       is_visible="true"
       lpeversion="1" /><inkscape:path-effect
       effect="simplify"
       id="path-effect5610-2"
       is_visible="true"
       lpeversion="1"
       steps="1"
       threshold="0.00342105"
       smooth_angles="360"
       helper_size="0"
       simplify_individual_paths="false"
       simplify_just_coalesce="false" /><inkscape:path-effect
       effect="spiro"
       id="path-effect5612-8"
       is_visible="true"
       lpeversion="1" /><inkscape:path-effect
       effect="bspline"
       id="path-effect18797-2"
       is_visible="true"
       lpeversion="1"
       weight="33.333333"
       steps="2"
       helper_size="0"
       apply_no_weight="true"
       apply_with_weight="true"
       only_selected="false" /><inkscape:path-effect
       effect="spiro"
       id="path-effect9241-8"
       is_visible="true"
       lpeversion="1" /><inkscape:path-effect
       effect="spiro"
       id="path-effect13961-2"
       is_visible="true"
       lpeversion="1" /><inkscape:path-effect
       effect="spiro"
       id="path-effect13965-2"
       is_visible="true"
       lpeversion="1" /><inkscape:path-effect
       effect="spiro"
       id="path-effect13969-8"
       is_visible="true"
       lpeversion="1" /><inkscape:path-effect
       effect="bspline"
       id="path-effect19323-2"
       is_visible="true"
       lpeversion="1"
       weight="33.333333"
       steps="2"
       helper_size="0"
       apply_no_weight="true"
       apply_with_weight="true"
       only_selected="false" /></defs><g
     id="g19589"
     inkscape:label="Mitochondrion"
     transform="matrix(2.2342067,0.28036539,-0.27891067,2.2226144,-15.822125,43.914452)"
     style="opacity:1;stroke-width:0.666495;stroke-dasharray:none"><path
       id="path19565"
       style="fill:#00ff00;stroke:#5c0000;stroke-width:0.98014;stroke-linecap:round;stroke-miterlimit:2;stroke-dasharray:none;stroke-dashoffset:0;stroke-opacity:1;paint-order:fill markers stroke;stop-color:#000000"
       d="m 38.435547,-15.796875 c -2.408936,0.05288 -4.479809,1.654446 -5.752619,3.605451 -1.31535,1.785707 -2.753818,3.6930555 -4.938106,4.4408905 -2.48483,1.074861 -5.072758,1.8972032 -7.556856,2.9732006 -2.596534,0.9253024 -5.530972,1.8766676 -7.02558,4.38950534 -1.588009,2.50461126 -2.238497,5.90563656 -0.790398,8.61353626 0.961966,1.5039198 2.740255,2.2274443 4.391234,2.4591403 4.558986,0.700934 9.048459,-1.2789848 12.640586,-3.9452351 2.782549,-2.0387981 5.467553,-4.2636109 8.420602,-6.02473778 2.881283,-1.87571172 6.267764,-3.41016972 8.085746,-6.48440732 1.109486,-1.7843184 1.356409,-4.1936939 0.138075,-5.9905098 -1.238204,-1.919597 -3.280564,-3.31111 -5.482147,-3.877222 -0.697823,-0.156752 -1.417493,-0.196815 -2.130537,-0.159612 z" /><path
       style="fill:#cc0000;fill-opacity:1;stroke:#cc0000;stroke-width:0.666495;stroke-linecap:round;stroke-miterlimit:2;stroke-dasharray:none;stroke-dashoffset:0;stroke-opacity:1;paint-order:fill markers stroke;stop-color:#000000"
       d="m 22.060724,-4.9504855 c -2.631466,1.2247014 -5.69438,1.6174253 -7.774988,3.920478 -1.885313,2.0868788 -3.01287,6.3489531 -1.477834,8.9565746 1.183506,2.010466 4.26069,2.4707309 6.590766,2.3549429 4.396212,-0.218461 8.458913,-2.8486727 11.933203,-5.6540536 3.532693,-2.8525391 6.89059,-4.71844875 10.626498,-7.126295 2.307966,-1.4875175 4.573154,-4.1514675 4.391903,-6.8607822 -0.154121,-2.3037632 -2.399371,-4.2797982 -4.478289,-5.2843772 -1.637759,-0.791401 -3.761642,-0.844067 -5.453962,-0.177268 -2.874737,1.132689 -4.007999,4.811429 -6.56917,6.5398675 -2.340412,1.5794568 -5.228274,2.1395412 -7.788127,3.330913 z"
       id="path19558"
       sodipodi:nodetypes="asaassaaaaa" /><path
       style="fill:#ff5b5b;fill-opacity:1;stroke:#9c0000;stroke-width:0.666495;stroke-linecap:round;stroke-miterlimit:2;stroke-dasharray:none;stroke-dashoffset:0;stroke-opacity:1;paint-order:fill markers stroke;stop-color:#000000"
       d="m 14.550214,4.6943471 c 0.364247,0.3855772 0.723177,0.7761773 1.076653,1.171652 0.190284,0.2128931 0.381931,0.4317166 0.497325,0.6928985 0.0577,0.130591 0.09539,0.271019 0.100454,0.413698 0.0051,0.1426789 -0.02338,0.2877089 -0.09112,0.4133845 -0.08618,0.1598848 -0.232392,0.2820587 -0.395454,0.3620616 -0.163062,0.080003 -0.342844,0.1204889 -0.522868,0.1445964 -0.274757,0.036793 -0.55666,0.036552 -0.826669,-0.026219 -0.270009,-0.062771 -0.528076,-0.1903149 -0.724979,-0.385441 -0.155274,-0.1538726 -0.269466,-0.346309 -0.346085,-0.5510438 -0.07662,-0.2047348 -0.11661,-0.421826 -0.135048,-0.6396488 -0.03687,-0.4356458 0.01123,-0.8737685 0.0061,-1.3109424 -0.005,-0.4322112 -0.06207,-0.8623607 -0.0732,-1.2944581 -0.01112,-0.4320973 0.02613,-0.8747192 0.19986,-1.2705109 0.246294,-0.5611185 0.767772,-0.988913 1.36165,-1.139986 0.651354,-0.1656939 1.352137,-0.00866 1.948755,0.3007963 0.596617,0.3094584 1.105527,0.7616729 1.597868,1.2191847 0.327058,0.3039209 0.655539,0.6164181 1.05163,0.8224447 0.198045,0.1030134 0.412117,0.1781301 0.633678,0.205414 0.221561,0.027284 0.45093,0.00554 0.657995,-0.07787 0.179088,-0.072144 0.340446,-0.1909654 0.455157,-0.346268 0.11471,-0.1553026 0.181279,-0.3473396 0.178169,-0.540388 C 21.196578,2.6371059 21.102454,2.4228582 20.958048,2.2560585 20.813642,2.0892588 20.621442,1.9679459 20.415794,1.8880456 20.004497,1.7282452 19.551212,1.7308136 19.110157,1.7177161 18.61498,1.7030114 18.116103,1.665096 17.640382,1.5268741 17.164661,1.3886523 16.709788,1.1434047 16.386858,0.7677291 c -0.296567,-0.34500689 -0.471,-0.79675327 -0.465269,-1.25166993 0.0057,-0.45491665 0.195803,-0.90809257 0.528599,-1.21830007 0.27864,-0.259727 0.652709,-0.4152398 1.03343,-0.4274818 0.38072,-0.012242 0.764708,0.1193456 1.056544,0.3641518 0.208501,0.1749009 0.367094,0.4010527 0.514487,0.6298288 0.147392,0.228776 0.28716,0.46438123 0.467168,0.6684892 0.319081,0.36180009 0.747811,0.60636588 1.175256,0.82997916 0.427445,0.22361328 0.867511,0.43661357 1.23138,0.75333284 0.191247,0.1664648 0.36077,0.3610374 0.57643,0.4943668 0.10783,0.066665 0.227142,0.1172274 0.352676,0.1349095 0.125534,0.017682 0.257687,9.999e-4 0.369211,-0.059282 0.123365,-0.066683 0.215461,-0.1837193 0.26636,-0.3143894 0.0509,-0.1306702 0.06275,-0.2742535 0.0503,-0.4139336 -0.02066,-0.23194066 -0.106696,-0.45489872 -0.226681,-0.6544657 -0.119986,-0.19956698 -0.273335,-0.37716857 -0.436178,-0.54361924 -0.325684,-0.33290133 -0.695872,-0.62967085 -0.95212,-1.01855506 -0.189671,-0.2878463 -0.311155,-0.6221502 -0.337639,-0.9658493 -0.02649,-0.343699 0.04363,-0.6960833 0.210974,-0.9974597 0.136845,-0.2464548 0.336142,-0.4558682 0.566724,-0.6180352 0.230583,-0.1621669 0.491971,-0.2779783 0.763003,-0.3554878 0.542066,-0.1550192 1.115234,-0.157572 1.67857,-0.134798 0.53633,0.021682 1.079928,0.066987 1.583312,0.253331 0.871702,0.3226887 1.533354,1.0296418 2.279972,1.583314 0.116038,0.08605 0.235721,0.1693013 0.368615,0.2259458 0.132894,0.056644 0.281035,0.085568 0.423043,0.05905 0.138591,-0.02588 0.265616,-0.1047659 0.354902,-0.2138771 0.08929,-0.1091111 0.141147,-0.247196 0.151756,-0.3877829 0.01012,-0.1340712 -0.01648,-0.2698785 -0.06988,-0.3932734 -0.0534,-0.123395 -0.133093,-0.2345882 -0.227736,-0.3300879 C 29.484788,-3.7249195 29.239897,-3.85116 28.990031,-3.9505419 28.713035,-4.0607143 28.42218,-4.142992 28.167373,-4.297711 28.03997,-4.3750705 27.92231,-4.4707181 27.83103,-4.5885489 c -0.09128,-0.1178309 -0.155388,-0.2587484 -0.170983,-0.406981 -0.0219,-0.2081952 0.05333,-0.4184465 0.17472,-0.5890017 0.121392,-0.1705552 0.286244,-0.3055099 0.458608,-0.4243193 0.231471,-0.1595514 0.481876,-0.2945783 0.750368,-0.3779294 0.268492,-0.083351 0.556008,-0.1137901 0.832944,-0.065399 0.35676,0.06234 0.681421,0.2524236 0.954527,0.490283 0.273107,0.2378593 0.500062,0.523232 0.723785,0.808034 0.173005,0.2202376 0.345728,0.4419244 0.545507,0.6381991 0.199779,0.1962748 0.428838,0.3676418 0.689478,0.4701219 0.309347,0.1216311 0.64958,0.1413705 0.981655,0.126664 0.134083,-0.00594 0.269903,-0.017669 0.395825,-0.064113 0.125921,-0.046445 0.242414,-0.1317144 0.300833,-0.2525476 0.02985,-0.061741 0.04361,-0.1308672 0.04213,-0.1994295 -0.0015,-0.068562 -0.01801,-0.1365164 -0.04594,-0.1991492 -0.05586,-0.1252656 -0.156065,-0.2272132 -0.270958,-0.302124 -0.229785,-0.1498215 -0.509783,-0.1947893 -0.770213,-0.2809523 -0.752655,-0.2490154 -1.333761,-0.838431 -1.899976,-1.393317 -0.144337,-0.1414495 -0.290679,-0.2830943 -0.405301,-0.4495362 -0.114623,-0.166442 -0.196759,-0.361693 -0.196359,-0.5637848 2.59e-4,-0.1307743 0.03515,-0.2601942 0.09156,-0.3781738 0.05642,-0.1179795 0.133954,-0.2249734 0.220985,-0.3225828 0.174062,-0.1952186 0.385287,-0.3532432 0.574106,-0.5342274 0.287421,-0.2754952 0.531836,-0.6110716 0.886656,-0.791657 0.25172,-0.1281124 0.550111,-0.1666328 0.823322,-0.095 0.19305,0.050615 0.370143,0.1539556 0.519925,0.2858473 0.149782,0.1318918 0.273125,0.2918293 0.376506,0.4625408 0.206764,0.3414229 0.334258,0.723739 0.496886,1.0882559 0.11285,0.2529419 0.245775,0.5019133 0.439282,0.7000793 0.09675,0.099083 0.20825,0.1845819 0.332476,0.245792 0.124225,0.06121 0.261414,0.097734 0.399894,0.099116 0.21647,0.00216 0.43278,-0.084928 0.586233,-0.2376242 0.153452,-0.1526962 0.24171,-0.3692678 0.237089,-0.5856988 -0.0029,-0.137023 -0.04164,-0.2721331 -0.103886,-0.3942381 -0.06224,-0.122105 -0.14759,-0.2315618 -0.244627,-0.3283487 -0.194073,-0.1935737 -0.432273,-0.3355978 -0.664806,-0.4807322 -0.262982,-0.1641394 -0.52369,-0.3361418 -0.746378,-0.5518072 -0.222688,-0.2156655 -0.407236,-0.4790435 -0.488607,-0.7781759 -0.05072,-0.186451 -0.06011,-0.385052 -0.01868,-0.573782 0.04144,-0.188731 0.134588,-0.36703 0.272005,-0.502871 0.138492,-0.136904 0.319219,-0.228202 0.509475,-0.269736 0.190256,-0.04153 0.389628,-0.03443 0.579409,0.0092 0.379563,0.08731 0.712712,0.315395 1.001089,0.577176 0.226514,0.205623 0.431452,0.434434 0.662875,0.634516 0.231423,0.200082 0.495636,0.3735508 0.793773,0.4421371 0.230953,0.053131 0.482675,0.038628 0.692271,-0.071969 0.104798,-0.055298 0.197718,-0.1340285 0.265879,-0.2309535 0.06816,-0.09693 0.111063,-0.212145 0.118503,-0.330404 0.01058,-0.168104 -0.0511,-0.336347 -0.15325,-0.47027 -0.102154,-0.133923 -0.242601,-0.23531 -0.394265,-0.308582 -0.303329,-0.146545 -0.645891,-0.183479 -0.972466,-0.266135 -0.24671,-0.06244 -0.487707,-0.152423 -0.706305,-0.282729 -0.218598,-0.130306 -0.414592,-0.301928 -0.55834,-0.511931 -0.143748,-0.210003 -0.233686,-0.45932 -0.23977,-0.713737 -0.0061,-0.254416 0.07464,-0.512908 0.237765,-0.708242 0.202581,-0.242581 0.515368,-0.372258 0.828602,-0.414316 0.313234,-0.04206 0.631154,-0.0053 0.944709,0.03432 0.945042,0.119321 1.895132,0.266141 2.786631,0.601659 0.991799,0.373267 1.893708,0.977861 2.628302,1.741645 0.555417,0.577486 1.021415,1.255684 1.266223,2.0186041 0.244808,0.7629201 0.255205,1.6159623 -0.06291,2.351342 -0.105588,0.2440896 -0.247663,0.4754044 -0.439701,0.6593885 -0.192038,0.1839841 -0.436683,0.3186804 -0.700285,0.3539315 -0.2133,0.028524 -0.43274,-0.00864 -0.631882,-0.090205 -0.199142,-0.081565 -0.378736,-0.206361 -0.537016,-0.3521619 -0.31656,-0.2916017 -0.546716,-0.6623022 -0.794411,-1.0142813 -0.220702,-0.3136224 -0.461796,-0.6193048 -0.768012,-0.8501731 -0.306216,-0.2308683 -0.686266,-0.3825831 -1.06863,-0.3531449 -0.277966,0.021401 -0.549921,0.1417373 -0.741759,0.3440283 -0.191837,0.202291 -0.298384,0.4867949 -0.271561,0.7642907 0.0229,0.2369124 0.1389,0.4582657 0.296137,0.6369513 0.157236,0.1786856 0.354246,0.3180932 0.558851,0.4397017 0.450077,0.2675062 0.944365,0.4563716 1.385965,0.73765 0.220801,0.1406392 0.428484,0.3049762 0.598426,0.5041034 0.169943,0.1991272 0.301396,0.4344996 0.358912,0.6898896 0.09174,0.4073661 -0.01164,0.842408 -0.221662,1.203317 -0.154441,0.2653999 -0.368449,0.4998652 -0.633921,0.6541828 -0.265472,0.1543176 -0.58403,0.2245254 -0.88606,0.1691422 -0.252355,-0.046274 -0.484377,-0.1773682 -0.675009,-0.3490772 -0.190632,-0.1717091 -0.342143,-0.3829625 -0.470571,-0.605068 -0.256856,-0.4442111 -0.427405,-0.9378736 -0.72273,-1.3574938 -0.16938,-0.2406678 -0.381144,-0.4558424 -0.637855,-0.5997537 -0.25671,-0.1439113 -0.56089,-0.2127646 -0.850461,-0.1602363 -0.295768,0.053652 -0.559947,0.2302268 -0.758416,0.455986 -0.198468,0.2257592 -0.336217,0.4987393 -0.444901,0.778998 -0.09911,0.2555607 -0.176313,0.522714 -0.189373,0.7965071 -0.01306,0.2737932 0.04157,0.5559664 0.189373,0.7868069 0.147435,0.2302657 0.376355,0.3954525 0.610099,0.5373099 0.233743,0.1418574 0.479709,0.2674722 0.688217,0.4443451 0.194066,0.1646225 0.353221,0.3743618 0.438931,0.6139779 0.08571,0.2396162 0.09461,0.5097126 0.0044,0.7476711 -0.06389,0.16851634 -0.175909,0.31775105 -0.316676,0.43028415 -0.140767,0.1125331 -0.309685,0.188581 -0.486276,0.22456151 -0.353182,0.071961 -0.729045,-0.0188858 -1.033691,-0.21151766 -0.310572,-0.19637901 -0.547313,-0.4878133 -0.773051,-0.777748 -0.225738,-0.2899347 -0.45075,-0.5880886 -0.74693,-0.805567 -0.2702,-0.1984016 -0.597318,-0.3231166 -0.932315,-0.3352973 -0.334997,-0.012181 -0.676296,0.091667 -0.935995,0.3036273 -0.177993,0.1452742 -0.316666,0.3409304 -0.382977,0.5609058 -0.06631,0.2199754 -0.05791,0.4637957 0.03465,0.6740792 0.115704,0.26286807 0.348437,0.45428579 0.585441,0.61650818 0.237004,0.1622224 0.490266,0.30893674 0.681209,0.52347782 0.176117,0.19788328 0.29252,0.4535378 0.300791,0.7183146 0.0041,0.1323884 -0.01863,0.2658998 -0.06948,0.3882008 -0.05085,0.122301 -0.129994,0.2331482 -0.231307,0.3184676 -0.130353,0.109775 -0.295203,0.1753006 -0.464237,0.1969805 -0.169034,0.02168 -0.342062,7.304e-4 -0.505058,-0.049016 -0.325994,-0.099492 -0.606235,-0.3088936 -0.867347,-0.5279619 -1.213419,-1.0180381 -2.168829,-2.32197405 -3.419959,-3.293293 -0.299455,-0.2324832 -0.618611,-0.4468747 -0.974649,-0.5771015 -0.356038,-0.1302269 -0.754131,-0.171383 -1.115324,-0.056223 -0.136309,0.04346 -0.266363,0.1089814 -0.377192,0.199457 -0.11083,0.090476 -0.202028,0.2064242 -0.256133,0.338869 -0.05582,0.1366338 -0.0711,0.2883494 -0.05244,0.4347594 0.01867,0.14641 0.07054,0.2876029 0.1434,0.4159633 0.14571,0.25672079 0.370919,0.45865971 0.605695,0.6375933 0.661634,0.50426109 1.425409,0.8612559 2.089973,1.361649 0.412649,0.3107097 0.787057,0.6784742 1.067396,1.1123287 0.280338,0.4338545 0.46396,0.9364934 0.484251,1.4526403 0.02512,0.6389211 -0.21267,1.2896954 -0.664991,1.741643 -0.280802,0.2805704 -0.642168,0.4835777 -1.032071,0.5580444 -0.389903,0.074467 -0.807022,0.016725 -1.152903,-0.1780464 C 26.766532,5.3711502 26.55206,5.1526435 26.379414,4.9090057 26.206768,4.665368 26.073695,4.3961635 25.950069,4.1243501 25.875875,3.9612225 25.80318,3.7940586 25.686793,3.6577895 25.628599,3.5896549 25.559612,3.5299362 25.480352,3.4881441 c -0.07926,-0.041792 -0.169127,-0.065164 -0.258607,-0.060453 -0.08031,0.00423 -0.158856,0.031025 -0.22702,0.073697 -0.06816,0.042672 -0.126062,0.1009218 -0.171435,0.1673185 -0.09075,0.1327933 -0.130277,0.2950927 -0.139872,0.455644 -0.0217,0.3630358 0.100518,0.7191333 0.24786,1.0516331 0.147341,0.3324999 0.322444,0.6555336 0.417134,1.0066739 0.06625,0.2456613 0.09178,0.5038135 0.05882,0.7561062 -0.03296,0.2522927 -0.125778,0.4985458 -0.280487,0.7005438 -0.252086,0.3291406 -0.645651,0.5179988 -1.039114,0.6486428 -0.393463,0.130644 -0.804172,0.2160935 -1.177524,0.3963422 -0.100644,0.04859 -0.198818,0.1041603 -0.305859,0.1362907 -0.05352,0.016065 -0.109136,0.026121 -0.165014,0.025809 -0.05588,-3.125e-4 -0.112093,-0.011216 -0.162453,-0.035432 -0.0854,-0.041067 -0.150025,-0.1193055 -0.18417,-0.2077049 -0.03414,-0.088399 -0.03942,-0.1862232 -0.02568,-0.2799865 0.02748,-0.1875268 0.126728,-0.3553031 0.209854,-0.5256306 0.101256,-0.2074765 0.181346,-0.4278594 0.207571,-0.6572311 0.02623,-0.2293717 -0.004,-0.4690052 -0.112571,-0.6727529 -0.03434,-0.064453 -0.07652,-0.1252574 -0.129394,-0.1756387 -0.05287,-0.050381 -0.116817,-0.090122 -0.187269,-0.1093573 -0.08227,-0.022462 -0.171243,-0.016091 -0.251634,0.012378 -0.08039,0.02847 -0.152355,0.078359 -0.211694,0.1396143 -0.118676,0.1225106 -0.185295,0.286004 -0.23333,0.4496672 -0.105184,0.3583819 -0.133848,0.734353 -0.211128,1.0997693 -0.07728,0.3654163 -0.212799,0.7350189 -0.48553,0.9902037 -0.182365,0.1706324 -0.415544,0.2792724 -0.655866,0.3472239 -0.240323,0.067951 -0.489541,0.09755 -0.73745,0.1277721 -0.423521,0.051631 -0.85259,0.1057735 -1.275277,0.047716 C 17.781866,9.3679736 17.573327,9.310502 17.382903,9.2143369 17.192479,9.1181717 17.020432,8.9824276 16.893517,8.8109591 16.782389,8.6608199 16.706556,8.4823719 16.690368,8.2962828 c -0.01619,-0.1860892 0.02971,-0.37942 0.139819,-0.5303117 0.08047,-0.1102846 0.192822,-0.1955577 0.317118,-0.2520316 0.124295,-0.056474 0.260286,-0.08486 0.396605,-0.092335 0.272637,-0.014949 0.542517,0.052024 0.806258,0.1227012 0.234517,0.062846 0.469457,0.1292916 0.710908,0.1547751 0.241451,0.025484 0.492573,0.00798 0.714074,-0.091445 0.242167,-0.1087007 0.436789,-0.3126435 0.550159,-0.5526604 0.11337,-0.2400169 0.147693,-0.5139198 0.114832,-0.7773226 C 20.397315,5.9343737 20.242047,5.6086504 20.015874,5.3468858 19.789702,5.0851212 19.494605,4.8863591 19.173491,4.7576721 18.736056,4.5823696 18.259791,4.5363634 17.796629,4.4494095 17.333467,4.3624557 16.859353,4.222813 16.513524,3.9026841 16.299499,3.7045645 16.148329,3.4497463 15.974002,3.2159343 15.886839,3.0990283 15.792917,2.9863221 15.683585,2.8898286 15.574253,2.7933351 15.448764,2.71315 15.310205,2.6676991 15.148425,2.6146313 14.971653,2.6106552 14.806271,2.6511232 14.640888,2.6915913 14.4871,2.7758296 14.360217,2.8893621 14.097317,3.1246 13.956583,3.4896107 13.993513,3.8404519 14.030444,4.1912932 14.244096,4.519 14.550215,4.6943411 Z"
       id="path19560"
       inkscape:original-d="m 14.550214,4.6943471 c 0.06307,0.601393 0.718033,0.781365 1.076653,1.171652 0.35862,0.390284 0.338038,1.013584 0.506661,1.519981 0.168622,0.506394 -0.61195,0.338037 -0.918322,0.506658 -0.306372,0.168625 -1.034167,-0.274174 -1.551648,-0.41166 -0.51748,-0.137485 -0.316398,-1.667494 -0.474994,-2.501635 -0.158596,-0.834144 0.08471,-1.709714 0.126665,-2.564969 0.04196,-0.855255 0.908031,-0.759727 1.36165,-1.139986 0.453619,-0.380259 2.36468,1.013587 3.546623,1.519981 1.181942,0.506396 1.562467,0.63359 2.343303,0.949989 0.780837,0.316397 0.422482,-0.590838 0.633326,-0.886656 0.210844,-0.295817 -1.393051,-0.759727 -2.089974,-1.139986 -0.696922,-0.380259 -1.815268,-0.633061 -2.723299,-0.949987 -0.908031,-0.316928 0.04249,-1.646383 0.06333,-2.46997 0.02085,-0.823587 1.393581,-0.04196 2.089974,-0.06333 0.696394,-0.02138 0.654701,0.865809 0.981655,1.298318 0.326953,0.432507 1.604688,1.055807 2.406636,1.583312 0.801948,0.527508 0.86581,0.380262 1.298317,0.569994 0.432507,0.189733 0.211374,-0.485285 0.316662,-0.728323 0.105291,-0.243041 -1.076388,-1.477497 -1.614979,-2.21664 -0.538591,-0.739145 -0.08418,-1.308608 -0.126665,-1.963309 -0.04249,-0.654701 2.005796,-0.738616 3.008297,-1.108321 1.002498,-0.369702 1.055807,0.169154 1.583312,0.253331 0.527507,0.08418 1.520245,1.055806 2.279972,1.583314 0.759725,0.527508 0.528035,0.190262 0.791658,0.284996 0.26362,0.09473 0.338037,-0.400841 0.506658,-0.60166 0.168624,-0.200816 -0.654172,-0.759724 -0.981654,-1.139983 -0.327483,-0.380262 -0.886391,-0.696394 -1.329984,-1.044988 -0.443592,-0.348594 0.422484,-0.675283 0.633328,-1.013321 0.210844,-0.338038 1.055806,-0.295287 1.583312,-0.443328 0.527507,-0.14804 1.119139,0.86581 1.678312,1.298317 0.559174,0.432509 0.823588,0.739145 1.234985,1.108321 0.411398,0.369173 0.654701,0.08471 0.981655,0.126664 0.326953,0.04196 0.464703,-0.210844 0.696658,-0.316661 0.231955,-0.105821 -0.696394,-0.654172 -1.044987,-0.981655 -0.348594,-0.327484 -1.266386,-0.928614 -1.899976,-1.393317 -0.63359,-0.464703 -0.400841,-0.675283 -0.60166,-1.013321 -0.200818,-0.338038 0.591368,-0.823058 0.886656,-1.234984 0.295288,-0.411926 0.591368,-0.527507 0.886656,-0.791657 0.295288,-0.26415 0.549145,-0.06307 0.823322,-0.095 0.274177,-0.03193 0.929143,1.224694 1.393317,1.836644 0.464175,0.61195 0.781365,0.696922 1.171652,1.044987 0.390287,0.348064 0.549145,-0.548618 0.823322,-0.823323 0.274178,-0.274706 -0.675282,-0.801948 -1.013319,-1.203319 -0.33804,-0.40137 -0.823061,-0.886391 -1.234985,-1.3299831 -0.411927,-0.443592 0.16915,-0.717504 0.25333,-1.076653 0.08418,-0.359149 1.393579,0.211373 2.089973,0.316663 0.696394,0.105289 0.971365,0.718033 1.456648,1.0766531 0.485285,0.35862 0.718034,-0.4219531 1.076653,-0.6333261 0.358621,-0.211373 -1.013055,-0.696393 -1.519981,-1.044987 -0.506923,-0.348593 -0.844169,-1.477494 -1.26665,-2.216639 -0.422482,-0.739144 1.182473,-0.253065 1.773311,-0.379995 0.590838,-0.12693 1.858021,0.401371 2.786631,0.601659 0.928614,0.200289 1.752465,1.161362 2.628302,1.741645 0.875835,0.580284 0.802476,2.9135621 1.203317,4.3699461 0.400842,1.456384 -0.759724,0.675811 -1.139986,1.01332 -0.380259,0.337509 -1.308608,-0.970834 -1.963309,-1.456648 -0.654701,-0.485814 -1.224163,-0.801948 -1.836642,-1.203318 -0.612479,-0.401371 -0.675283,0.739144 -1.01332,1.108319 -0.338039,0.369175 0.570257,0.718033 0.854988,1.076653 0.284731,0.35862 1.562468,1.288027 2.343303,1.931643 0.780839,0.643617 -0.14751,0.802476 -0.221662,1.203317 -0.07415,0.400844 -1.013055,0.549148 -1.519981,0.823325 -0.506926,0.274174 -1.245275,-1.540828 -1.86831,-2.311639 -0.623036,-0.77081 -0.991944,-0.506396 -1.488316,-0.75999 -0.496369,-0.253595 -0.801947,0.823589 -1.203317,1.234984 -0.40137,0.411398 2.65e-4,1.055807 0,1.583314 -2.65e-4,0.527505 0.865809,0.654701 1.298316,0.981655 0.432509,0.326953 0.295817,0.908031 0.443328,1.361649 0.147513,0.45362 -1.224164,0.295817 -1.836643,0.443328 -0.612478,0.14751 -1.013057,-1.055278 -1.519981,-1.583315 -0.506925,-0.528034 -1.245277,-0.02085 -1.86831,-0.03167 -0.623035,-0.01082 -0.231955,0.823587 -0.348329,1.234985 -0.116374,0.411395 0.844698,0.760254 1.26665,1.139986 0.421953,0.37973 2.65e-4,0.950251 0,1.424983 -2.64e-4,0.474728 -1.224163,-0.253066 -1.836642,-0.379997 -0.612481,-0.126929 -2.279708,-2.195264 -3.419959,-3.293293 -1.140251,-1.098029 -1.39305,-0.421952 -2.089973,-0.633325 -0.696923,-0.211373 -0.421952,0.359151 -0.633325,0.538326 -0.211373,0.179179 0.464704,0.992476 0.696658,1.488316 0.231953,0.49584 1.393579,0.908031 2.089973,1.361649 0.696394,0.45362 1.034696,1.710243 1.551647,2.564969 0.51695,0.854726 -0.443064,1.161362 -0.664991,1.741643 -0.22193,0.580284 -1.456383,0.253595 -2.184974,0.379998 -0.728588,0.126399 -0.717502,-0.928614 -1.076653,-1.393317 -0.359148,-0.464704 -0.485283,-0.464175 -0.728324,-0.696659 -0.243038,-0.232484 -0.358619,0.464704 -0.538327,0.696659 -0.179707,0.231954 0.443593,1.37247 0.664994,2.058307 0.221398,0.68584 -0.147514,0.971365 -0.221666,1.45665 -0.07415,0.485283 -1.477494,0.696921 -2.216638,1.044985 -0.739145,0.348065 -0.421953,0.08471 -0.633326,0.126667 -0.211373,0.04196 2.65e-4,-0.675283 0,-1.013322 -2.64e-4,-0.338037 0.0636,-0.886392 0.095,-1.329984 0.0314,-0.443593 -0.210844,-0.189733 -0.316663,-0.284996 -0.105818,-0.09526 -0.464174,0.40137 -0.696658,0.60166 -0.232484,0.200289 -0.464174,1.393581 -0.696658,2.089973 -0.232484,0.696394 -0.928612,0.316928 -1.393316,0.474996 -0.464703,0.158064 -1.583049,-0.358622 -2.37497,-0.538327 -0.791921,-0.179708 -0.04196,-0.696394 -0.06333,-1.044988 -0.02138,-0.348594 1.013585,-0.14751 1.519981,-0.221665 0.506395,-0.07415 0.950252,0.04249 1.424982,0.06333 0.474729,0.02085 0.443592,-0.886391 0.664991,-1.329983 0.2214,-0.443593 -0.844169,-1.013056 -1.26665,-1.519981 -0.422482,-0.506923 -1.773047,-0.569728 -2.659967,-0.854988 -0.88692,-0.285263 -0.801948,-0.823061 -1.203319,-1.234985 -0.40137,-0.411927 -0.63306,0.14804 -0.949988,0.221663 -0.316927,0.07362 0.12693,1.203584 0.189998,1.804979 z"
       inkscape:path-effect="#path-effect19562" /><path
       style="fill:none;fill-opacity:1;stroke:#000000;stroke-width:0.666495;stroke-linecap:round;stroke-miterlimit:2;stroke-dasharray:0, 109.30518413, 11.33041543, 666.49502516;stroke-dashoffset:0.66649503;stroke-opacity:1;paint-order:fill markers stroke;stop-color:#000000;opacity:1"
       d="m 14.550214,4.6943471 c 0.364247,0.3855772 0.723177,0.7761773 1.076653,1.171652 0.190284,0.2128931 0.381931,0.4317166 0.497325,0.6928985 0.0577,0.130591 0.09539,0.271019 0.100454,0.413698 0.0051,0.1426789 -0.02338,0.2877089 -0.09112,0.4133845 -0.08618,0.1598848 -0.232392,0.2820587 -0.395454,0.3620616 -0.163062,0.080003 -0.342844,0.1204889 -0.522868,0.1445964 -0.274757,0.036793 -0.55666,0.036552 -0.826669,-0.026219 -0.270009,-0.062771 -0.528076,-0.1903149 -0.724979,-0.385441 -0.155274,-0.1538726 -0.269466,-0.346309 -0.346085,-0.5510438 -0.07662,-0.2047348 -0.11661,-0.421826 -0.135048,-0.6396488 -0.03687,-0.4356458 0.01123,-0.8737685 0.0061,-1.3109424 -0.005,-0.4322112 -0.06207,-0.8623607 -0.0732,-1.2944581 -0.01112,-0.4320973 0.02613,-0.8747192 0.19986,-1.2705109 0.246294,-0.5611185 0.767772,-0.988913 1.36165,-1.139986 0.651354,-0.1656939 1.352137,-0.00866 1.948755,0.3007963 0.596617,0.3094584 1.105527,0.7616729 1.597868,1.2191847 0.327058,0.3039209 0.655539,0.6164181 1.05163,0.8224447 0.198045,0.1030134 0.412117,0.1781301 0.633678,0.205414 0.221561,0.027284 0.45093,0.00554 0.657995,-0.07787 0.179088,-0.072144 0.340446,-0.1909654 0.455157,-0.346268 0.11471,-0.1553026 0.181279,-0.3473396 0.178169,-0.540388 C 21.196578,2.6371059 21.102454,2.4228582 20.958048,2.2560585 20.813642,2.0892588 20.621442,1.9679459 20.415794,1.8880456 20.004497,1.7282452 19.551212,1.7308136 19.110157,1.7177161 18.61498,1.7030114 18.116103,1.665096 17.640382,1.5268741 17.164661,1.3886523 16.709788,1.1434047 16.386858,0.7677291 c -0.296567,-0.34500689 -0.471,-0.79675327 -0.465269,-1.25166993 0.0057,-0.45491665 0.195803,-0.90809257 0.528599,-1.21830007 0.27864,-0.259727 0.652709,-0.4152398 1.03343,-0.4274818 0.38072,-0.012242 0.764708,0.1193456 1.056544,0.3641518 0.208501,0.1749009 0.367094,0.4010527 0.514487,0.6298288 0.147392,0.228776 0.28716,0.46438123 0.467168,0.6684892 0.319081,0.36180009 0.747811,0.60636588 1.175256,0.82997916 0.427445,0.22361328 0.867511,0.43661357 1.23138,0.75333284 0.191247,0.1664648 0.36077,0.3610374 0.57643,0.4943668 0.10783,0.066665 0.227142,0.1172274 0.352676,0.1349095 0.125534,0.017682 0.257687,9.999e-4 0.369211,-0.059282 0.123365,-0.066683 0.215461,-0.1837193 0.26636,-0.3143894 0.0509,-0.1306702 0.06275,-0.2742535 0.0503,-0.4139336 -0.02066,-0.23194066 -0.106696,-0.45489872 -0.226681,-0.6544657 -0.119986,-0.19956698 -0.273335,-0.37716857 -0.436178,-0.54361924 -0.325684,-0.33290133 -0.695872,-0.62967085 -0.95212,-1.01855506 -0.189671,-0.2878463 -0.311155,-0.6221502 -0.337639,-0.9658493 -0.02649,-0.343699 0.04363,-0.6960833 0.210974,-0.9974597 0.136845,-0.2464548 0.336142,-0.4558682 0.566724,-0.6180352 0.230583,-0.1621669 0.491971,-0.2779783 0.763003,-0.3554878 0.542066,-0.1550192 1.115234,-0.157572 1.67857,-0.134798 0.53633,0.021682 1.079928,0.066987 1.583312,0.253331 0.871702,0.3226887 1.533354,1.0296418 2.279972,1.583314 0.116038,0.08605 0.235721,0.1693013 0.368615,0.2259458 0.132894,0.056644 0.281035,0.085568 0.423043,0.05905 0.138591,-0.02588 0.265616,-0.1047659 0.354902,-0.2138771 0.08929,-0.1091111 0.141147,-0.247196 0.151756,-0.3877829 0.01012,-0.1340712 -0.01648,-0.2698785 -0.06988,-0.3932734 -0.0534,-0.123395 -0.133093,-0.2345882 -0.227736,-0.3300879 C 29.484788,-3.7249195 29.239897,-3.85116 28.990031,-3.9505419 28.713035,-4.0607143 28.42218,-4.142992 28.167373,-4.297711 28.03997,-4.3750705 27.92231,-4.4707181 27.83103,-4.5885489 c -0.09128,-0.1178309 -0.155388,-0.2587484 -0.170983,-0.406981 -0.0219,-0.2081952 0.05333,-0.4184465 0.17472,-0.5890017 0.121392,-0.1705552 0.286244,-0.3055099 0.458608,-0.4243193 0.231471,-0.1595514 0.481876,-0.2945783 0.750368,-0.3779294 0.268492,-0.083351 0.556008,-0.1137901 0.832944,-0.065399 0.35676,0.06234 0.681421,0.2524236 0.954527,0.490283 0.273107,0.2378593 0.500062,0.523232 0.723785,0.808034 0.173005,0.2202376 0.345728,0.4419244 0.545507,0.6381991 0.199779,0.1962748 0.428838,0.3676418 0.689478,0.4701219 0.309347,0.1216311 0.64958,0.1413705 0.981655,0.126664 0.134083,-0.00594 0.269903,-0.017669 0.395825,-0.064113 0.125921,-0.046445 0.242414,-0.1317144 0.300833,-0.2525476 0.02985,-0.061741 0.04361,-0.1308672 0.04213,-0.1994295 -0.0015,-0.068562 -0.01801,-0.1365164 -0.04594,-0.1991492 -0.05586,-0.1252656 -0.156065,-0.2272132 -0.270958,-0.302124 -0.229785,-0.1498215 -0.509783,-0.1947893 -0.770213,-0.2809523 -0.752655,-0.2490154 -1.333761,-0.838431 -1.899976,-1.393317 -0.144337,-0.1414495 -0.290679,-0.2830943 -0.405301,-0.4495362 -0.114623,-0.166442 -0.196759,-0.361693 -0.196359,-0.5637848 2.59e-4,-0.1307743 0.03515,-0.2601942 0.09156,-0.3781738 0.05642,-0.1179795 0.133954,-0.2249734 0.220985,-0.3225828 0.174062,-0.1952186 0.385287,-0.3532432 0.574106,-0.5342274 0.287421,-0.2754952 0.531836,-0.6110716 0.886656,-0.791657 0.25172,-0.1281124 0.550111,-0.1666328 0.823322,-0.095 0.19305,0.050615 0.370143,0.1539556 0.519925,0.2858473 0.149782,0.1318918 0.273125,0.2918293 0.376506,0.4625408 0.206764,0.3414229 0.334258,0.723739 0.496886,1.0882559 0.11285,0.2529419 0.245775,0.5019133 0.439282,0.7000793 0.09675,0.099083 0.20825,0.1845819 0.332476,0.245792 0.124225,0.06121 0.261414,0.097734 0.399894,0.099116 0.21647,0.00216 0.43278,-0.084928 0.586233,-0.2376242 0.153452,-0.1526962 0.24171,-0.3692678 0.237089,-0.5856988 -0.0029,-0.137023 -0.04164,-0.2721331 -0.103886,-0.3942381 -0.06224,-0.122105 -0.14759,-0.2315618 -0.244627,-0.3283487 -0.194073,-0.1935737 -0.432273,-0.3355978 -0.664806,-0.4807322 -0.262982,-0.1641394 -0.52369,-0.3361418 -0.746378,-0.5518072 -0.222688,-0.2156655 -0.407236,-0.4790435 -0.488607,-0.7781759 -0.05072,-0.186451 -0.06011,-0.385052 -0.01868,-0.573782 0.04144,-0.188731 0.134588,-0.36703 0.272005,-0.502871 0.138492,-0.136904 0.319219,-0.228202 0.509475,-0.269736 0.190256,-0.04153 0.389628,-0.03443 0.579409,0.0092 0.379563,0.08731 0.712712,0.315395 1.001089,0.577176 0.226514,0.205623 0.431452,0.434434 0.662875,0.634516 0.231423,0.200082 0.495636,0.3735508 0.793773,0.4421371 0.230953,0.053131 0.482675,0.038628 0.692271,-0.071969 0.104798,-0.055298 0.197718,-0.1340285 0.265879,-0.2309535 0.06816,-0.09693 0.111063,-0.212145 0.118503,-0.330404 0.01058,-0.168104 -0.0511,-0.336347 -0.15325,-0.47027 -0.102154,-0.133923 -0.242601,-0.23531 -0.394265,-0.308582 -0.303329,-0.146545 -0.645891,-0.183479 -0.972466,-0.266135 -0.24671,-0.06244 -0.487707,-0.152423 -0.706305,-0.282729 -0.218598,-0.130306 -0.414592,-0.301928 -0.55834,-0.511931 -0.143748,-0.210003 -0.233686,-0.45932 -0.23977,-0.713737 -0.0061,-0.254416 0.07464,-0.512908 0.237765,-0.708242 0.202581,-0.242581 0.515368,-0.372258 0.828602,-0.414316 0.313234,-0.04206 0.631154,-0.0053 0.944709,0.03432 0.945042,0.119321 1.895132,0.266141 2.786631,0.601659 0.991799,0.373267 1.893708,0.977861 2.628302,1.741645 0.555417,0.577486 1.021415,1.255684 1.266223,2.0186041 0.244808,0.7629201 0.255205,1.6159623 -0.06291,2.351342 -0.105588,0.2440896 -0.247663,0.4754044 -0.439701,0.6593885 -0.192038,0.1839841 -0.436683,0.3186804 -0.700285,0.3539315 -0.2133,0.028524 -0.43274,-0.00864 -0.631882,-0.090205 -0.199142,-0.081565 -0.378736,-0.206361 -0.537016,-0.3521619 -0.31656,-0.2916017 -0.546716,-0.6623022 -0.794411,-1.0142813 -0.220702,-0.3136224 -0.461796,-0.6193048 -0.768012,-0.8501731 -0.306216,-0.2308683 -0.686266,-0.3825831 -1.06863,-0.3531449 -0.277966,0.021401 -0.549921,0.1417373 -0.741759,0.3440283 -0.191837,0.202291 -0.298384,0.4867949 -0.271561,0.7642907 0.0229,0.2369124 0.1389,0.4582657 0.296137,0.6369513 0.157236,0.1786856 0.354246,0.3180932 0.558851,0.4397017 0.450077,0.2675062 0.944365,0.4563716 1.385965,0.73765 0.220801,0.1406392 0.428484,0.3049762 0.598426,0.5041034 0.169943,0.1991272 0.301396,0.4344996 0.358912,0.6898896 0.09174,0.4073661 -0.01164,0.842408 -0.221662,1.203317 -0.154441,0.2653999 -0.368449,0.4998652 -0.633921,0.6541828 -0.265472,0.1543176 -0.58403,0.2245254 -0.88606,0.1691422 -0.252355,-0.046274 -0.484377,-0.1773682 -0.675009,-0.3490772 -0.190632,-0.1717091 -0.342143,-0.3829625 -0.470571,-0.605068 -0.256856,-0.4442111 -0.427405,-0.9378736 -0.72273,-1.3574938 -0.16938,-0.2406678 -0.381144,-0.4558424 -0.637855,-0.5997537 -0.25671,-0.1439113 -0.56089,-0.2127646 -0.850461,-0.1602363 -0.295768,0.053652 -0.559947,0.2302268 -0.758416,0.455986 -0.198468,0.2257592 -0.336217,0.4987393 -0.444901,0.778998 -0.09911,0.2555607 -0.176313,0.522714 -0.189373,0.7965071 -0.01306,0.2737932 0.04157,0.5559664 0.189373,0.7868069 0.147435,0.2302657 0.376355,0.3954525 0.610099,0.5373099 0.233743,0.1418574 0.479709,0.2674722 0.688217,0.4443451 0.194066,0.1646225 0.353221,0.3743618 0.438931,0.6139779 0.08571,0.2396162 0.09461,0.5097126 0.0044,0.7476711 -0.06389,0.16851634 -0.175909,0.31775105 -0.316676,0.43028415 -0.140767,0.1125331 -0.309685,0.188581 -0.486276,0.22456151 -0.353182,0.071961 -0.729045,-0.0188858 -1.033691,-0.21151766 -0.310572,-0.19637901 -0.547313,-0.4878133 -0.773051,-0.777748 -0.225738,-0.2899347 -0.45075,-0.5880886 -0.74693,-0.805567 -0.2702,-0.1984016 -0.597318,-0.3231166 -0.932315,-0.3352973 -0.334997,-0.012181 -0.676296,0.091667 -0.935995,0.3036273 -0.177993,0.1452742 -0.316666,0.3409304 -0.382977,0.5609058 -0.06631,0.2199754 -0.05791,0.4637957 0.03465,0.6740792 0.115704,0.26286807 0.348437,0.45428579 0.585441,0.61650818 0.237004,0.1622224 0.490266,0.30893674 0.681209,0.52347782 0.176117,0.19788328 0.29252,0.4535378 0.300791,0.7183146 0.0041,0.1323884 -0.01863,0.2658998 -0.06948,0.3882008 -0.05085,0.122301 -0.129994,0.2331482 -0.231307,0.3184676 -0.130353,0.109775 -0.295203,0.1753006 -0.464237,0.1969805 -0.169034,0.02168 -0.342062,7.304e-4 -0.505058,-0.049016 -0.325994,-0.099492 -0.606235,-0.3088936 -0.867347,-0.5279619 -1.213419,-1.0180381 -2.168829,-2.32197405 -3.419959,-3.293293 -0.299455,-0.2324832 -0.618611,-0.4468747 -0.974649,-0.5771015 -0.356038,-0.1302269 -0.754131,-0.171383 -1.115324,-0.056223 -0.136309,0.04346 -0.266363,0.1089814 -0.377192,0.199457 -0.11083,0.090476 -0.202028,0.2064242 -0.256133,0.338869 -0.05582,0.1366338 -0.0711,0.2883494 -0.05244,0.4347594 0.01867,0.14641 0.07054,0.2876029 0.1434,0.4159633 0.14571,0.25672079 0.370919,0.45865971 0.605695,0.6375933 0.661634,0.50426109 1.425409,0.8612559 2.089973,1.361649 0.412649,0.3107097 0.787057,0.6784742 1.067396,1.1123287 0.280338,0.4338545 0.46396,0.9364934 0.484251,1.4526403 0.02512,0.6389211 -0.21267,1.2896954 -0.664991,1.741643 -0.280802,0.2805704 -0.642168,0.4835777 -1.032071,0.5580444 -0.389903,0.074467 -0.807022,0.016725 -1.152903,-0.1780464 C 26.766532,5.3711502 26.55206,5.1526435 26.379414,4.9090057 26.206768,4.665368 26.073695,4.3961635 25.950069,4.1243501 25.875875,3.9612225 25.80318,3.7940586 25.686793,3.6577895 25.628599,3.5896549 25.559612,3.5299362 25.480352,3.4881441 c -0.07926,-0.041792 -0.169127,-0.065164 -0.258607,-0.060453 -0.08031,0.00423 -0.158856,0.031025 -0.22702,0.073697 -0.06816,0.042672 -0.126062,0.1009218 -0.171435,0.1673185 -0.09075,0.1327933 -0.130277,0.2950927 -0.139872,0.455644 -0.0217,0.3630358 0.100518,0.7191333 0.24786,1.0516331 0.147341,0.3324999 0.322444,0.6555336 0.417134,1.0066739 0.06625,0.2456613 0.09178,0.5038135 0.05882,0.7561062 -0.03296,0.2522927 -0.125778,0.4985458 -0.280487,0.7005438 -0.252086,0.3291406 -0.645651,0.5179988 -1.039114,0.6486428 -0.393463,0.130644 -0.804172,0.2160935 -1.177524,0.3963422 -0.100644,0.04859 -0.198818,0.1041603 -0.305859,0.1362907 -0.05352,0.016065 -0.109136,0.026121 -0.165014,0.025809 -0.05588,-3.125e-4 -0.112093,-0.011216 -0.162453,-0.035432 -0.0854,-0.041067 -0.150025,-0.1193055 -0.18417,-0.2077049 -0.03414,-0.088399 -0.03942,-0.1862232 -0.02568,-0.2799865 0.02748,-0.1875268 0.126728,-0.3553031 0.209854,-0.5256306 0.101256,-0.2074765 0.181346,-0.4278594 0.207571,-0.6572311 0.02623,-0.2293717 -0.004,-0.4690052 -0.112571,-0.6727529 -0.03434,-0.064453 -0.07652,-0.1252574 -0.129394,-0.1756387 -0.05287,-0.050381 -0.116817,-0.090122 -0.187269,-0.1093573 -0.08227,-0.022462 -0.171243,-0.016091 -0.251634,0.012378 -0.08039,0.02847 -0.152355,0.078359 -0.211694,0.1396143 -0.118676,0.1225106 -0.185295,0.286004 -0.23333,0.4496672 -0.105184,0.3583819 -0.133848,0.734353 -0.211128,1.0997693 -0.07728,0.3654163 -0.212799,0.7350189 -0.48553,0.9902037 -0.182365,0.1706324 -0.415544,0.2792724 -0.655866,0.3472239 -0.240323,0.067951 -0.489541,0.09755 -0.73745,0.1277721 -0.423521,0.051631 -0.85259,0.1057735 -1.275277,0.047716 C 17.781866,9.3679736 17.573327,9.310502 17.382903,9.2143369 17.192479,9.1181717 17.020432,8.9824276 16.893517,8.8109591 16.782389,8.6608199 16.706556,8.4823719 16.690368,8.2962828 c -0.01619,-0.1860892 0.02971,-0.37942 0.139819,-0.5303117 0.08047,-0.1102846 0.192822,-0.1955577 0.317118,-0.2520316 0.124295,-0.056474 0.260286,-0.08486 0.396605,-0.092335 0.272637,-0.014949 0.542517,0.052024 0.806258,0.1227012 0.234517,0.062846 0.469457,0.1292916 0.710908,0.1547751 0.241451,0.025484 0.492573,0.00798 0.714074,-0.091445 0.242167,-0.1087007 0.436789,-0.3126435 0.550159,-0.5526604 0.11337,-0.2400169 0.147693,-0.5139198 0.114832,-0.7773226 C 20.397315,5.9343737 20.242047,5.6086504 20.015874,5.3468858 19.789702,5.0851212 19.494605,4.8863591 19.173491,4.7576721 18.736056,4.5823696 18.259791,4.5363634 17.796629,4.4494095 17.333467,4.3624557 16.859353,4.222813 16.513524,3.9026841 16.299499,3.7045645 16.148329,3.4497463 15.974002,3.2159343 15.886839,3.0990283 15.792917,2.9863221 15.683585,2.8898286 15.574253,2.7933351 15.448764,2.71315 15.310205,2.6676991 15.148425,2.6146313 14.971653,2.6106552 14.806271,2.6511232 14.640888,2.6915913 14.4871,2.7758296 14.360217,2.8893621 14.097317,3.1246 13.956583,3.4896107 13.993513,3.8404519 14.030444,4.1912932 14.244096,4.519 14.550215,4.6943411 Z"
       id="path1783"
       inkscape:original-d="m 14.550214,4.6943471 c 0.06307,0.601393 0.718033,0.781365 1.076653,1.171652 0.35862,0.390284 0.338038,1.013584 0.506661,1.519981 0.168622,0.506394 -0.61195,0.338037 -0.918322,0.506658 -0.306372,0.168625 -1.034167,-0.274174 -1.551648,-0.41166 -0.51748,-0.137485 -0.316398,-1.667494 -0.474994,-2.501635 -0.158596,-0.834144 0.08471,-1.709714 0.126665,-2.564969 0.04196,-0.855255 0.908031,-0.759727 1.36165,-1.139986 0.453619,-0.380259 2.36468,1.013587 3.546623,1.519981 1.181942,0.506396 1.562467,0.63359 2.343303,0.949989 0.780837,0.316397 0.422482,-0.590838 0.633326,-0.886656 0.210844,-0.295817 -1.393051,-0.759727 -2.089974,-1.139986 -0.696922,-0.380259 -1.815268,-0.633061 -2.723299,-0.949987 -0.908031,-0.316928 0.04249,-1.646383 0.06333,-2.46997 0.02085,-0.823587 1.393581,-0.04196 2.089974,-0.06333 0.696394,-0.02138 0.654701,0.865809 0.981655,1.298318 0.326953,0.432507 1.604688,1.055807 2.406636,1.583312 0.801948,0.527508 0.86581,0.380262 1.298317,0.569994 0.432507,0.189733 0.211374,-0.485285 0.316662,-0.728323 0.105291,-0.243041 -1.076388,-1.477497 -1.614979,-2.21664 -0.538591,-0.739145 -0.08418,-1.308608 -0.126665,-1.963309 -0.04249,-0.654701 2.005796,-0.738616 3.008297,-1.108321 1.002498,-0.369702 1.055807,0.169154 1.583312,0.253331 0.527507,0.08418 1.520245,1.055806 2.279972,1.583314 0.759725,0.527508 0.528035,0.190262 0.791658,0.284996 0.26362,0.09473 0.338037,-0.400841 0.506658,-0.60166 0.168624,-0.200816 -0.654172,-0.759724 -0.981654,-1.139983 -0.327483,-0.380262 -0.886391,-0.696394 -1.329984,-1.044988 -0.443592,-0.348594 0.422484,-0.675283 0.633328,-1.013321 0.210844,-0.338038 1.055806,-0.295287 1.583312,-0.443328 0.527507,-0.14804 1.119139,0.86581 1.678312,1.298317 0.559174,0.432509 0.823588,0.739145 1.234985,1.108321 0.411398,0.369173 0.654701,0.08471 0.981655,0.126664 0.326953,0.04196 0.464703,-0.210844 0.696658,-0.316661 0.231955,-0.105821 -0.696394,-0.654172 -1.044987,-0.981655 -0.348594,-0.327484 -1.266386,-0.928614 -1.899976,-1.393317 -0.63359,-0.464703 -0.400841,-0.675283 -0.60166,-1.013321 -0.200818,-0.338038 0.591368,-0.823058 0.886656,-1.234984 0.295288,-0.411926 0.591368,-0.527507 0.886656,-0.791657 0.295288,-0.26415 0.549145,-0.06307 0.823322,-0.095 0.274177,-0.03193 0.929143,1.224694 1.393317,1.836644 0.464175,0.61195 0.781365,0.696922 1.171652,1.044987 0.390287,0.348064 0.549145,-0.548618 0.823322,-0.823323 0.274178,-0.274706 -0.675282,-0.801948 -1.013319,-1.203319 -0.33804,-0.40137 -0.823061,-0.886391 -1.234985,-1.3299831 -0.411927,-0.443592 0.16915,-0.717504 0.25333,-1.076653 0.08418,-0.359149 1.393579,0.211373 2.089973,0.316663 0.696394,0.105289 0.971365,0.718033 1.456648,1.0766531 0.485285,0.35862 0.718034,-0.4219531 1.076653,-0.6333261 0.358621,-0.211373 -1.013055,-0.696393 -1.519981,-1.044987 -0.506923,-0.348593 -0.844169,-1.477494 -1.26665,-2.216639 -0.422482,-0.739144 1.182473,-0.253065 1.773311,-0.379995 0.590838,-0.12693 1.858021,0.401371 2.786631,0.601659 0.928614,0.200289 1.752465,1.161362 2.628302,1.741645 0.875835,0.580284 0.802476,2.9135621 1.203317,4.3699461 0.400842,1.456384 -0.759724,0.675811 -1.139986,1.01332 -0.380259,0.337509 -1.308608,-0.970834 -1.963309,-1.456648 -0.654701,-0.485814 -1.224163,-0.801948 -1.836642,-1.203318 -0.612479,-0.401371 -0.675283,0.739144 -1.01332,1.108319 -0.338039,0.369175 0.570257,0.718033 0.854988,1.076653 0.284731,0.35862 1.562468,1.288027 2.343303,1.931643 0.780839,0.643617 -0.14751,0.802476 -0.221662,1.203317 -0.07415,0.400844 -1.013055,0.549148 -1.519981,0.823325 -0.506926,0.274174 -1.245275,-1.540828 -1.86831,-2.311639 -0.623036,-0.77081 -0.991944,-0.506396 -1.488316,-0.75999 -0.496369,-0.253595 -0.801947,0.823589 -1.203317,1.234984 -0.40137,0.411398 2.65e-4,1.055807 0,1.583314 -2.65e-4,0.527505 0.865809,0.654701 1.298316,0.981655 0.432509,0.326953 0.295817,0.908031 0.443328,1.361649 0.147513,0.45362 -1.224164,0.295817 -1.836643,0.443328 -0.612478,0.14751 -1.013057,-1.055278 -1.519981,-1.583315 -0.506925,-0.528034 -1.245277,-0.02085 -1.86831,-0.03167 -0.623035,-0.01082 -0.231955,0.823587 -0.348329,1.234985 -0.116374,0.411395 0.844698,0.760254 1.26665,1.139986 0.421953,0.37973 2.65e-4,0.950251 0,1.424983 -2.64e-4,0.474728 -1.224163,-0.253066 -1.836642,-0.379997 -0.612481,-0.126929 -2.279708,-2.195264 -3.419959,-3.293293 -1.140251,-1.098029 -1.39305,-0.421952 -2.089973,-0.633325 -0.696923,-0.211373 -0.421952,0.359151 -0.633325,0.538326 -0.211373,0.179179 0.464704,0.992476 0.696658,1.488316 0.231953,0.49584 1.393579,0.908031 2.089973,1.361649 0.696394,0.45362 1.034696,1.710243 1.551647,2.564969 0.51695,0.854726 -0.443064,1.161362 -0.664991,1.741643 -0.22193,0.580284 -1.456383,0.253595 -2.184974,0.379998 -0.728588,0.126399 -0.717502,-0.928614 -1.076653,-1.393317 -0.359148,-0.464704 -0.485283,-0.464175 -0.728324,-0.696659 -0.243038,-0.232484 -0.358619,0.464704 -0.538327,0.696659 -0.179707,0.231954 0.443593,1.37247 0.664994,2.058307 0.221398,0.68584 -0.147514,0.971365 -0.221666,1.45665 -0.07415,0.485283 -1.477494,0.696921 -2.216638,1.044985 -0.739145,0.348065 -0.421953,0.08471 -0.633326,0.126667 -0.211373,0.04196 2.65e-4,-0.675283 0,-1.013322 -2.64e-4,-0.338037 0.0636,-0.886392 0.095,-1.329984 0.0314,-0.443593 -0.210844,-0.189733 -0.316663,-0.284996 -0.105818,-0.09526 -0.464174,0.40137 -0.696658,0.60166 -0.232484,0.200289 -0.464174,1.393581 -0.696658,2.089973 -0.232484,0.696394 -0.928612,0.316928 -1.393316,0.474996 -0.464703,0.158064 -1.583049,-0.358622 -2.37497,-0.538327 -0.791921,-0.179708 -0.04196,-0.696394 -0.06333,-1.044988 -0.02138,-0.348594 1.013585,-0.14751 1.519981,-0.221665 0.506395,-0.07415 0.950252,0.04249 1.424982,0.06333 0.474729,0.02085 0.443592,-0.886391 0.664991,-1.329983 0.2214,-0.443593 -0.844169,-1.013056 -1.26665,-1.519981 -0.422482,-0.506923 -1.773047,-0.569728 -2.659967,-0.854988 -0.88692,-0.285263 -0.801948,-0.823061 -1.203319,-1.234985 -0.40137,-0.411927 -0.63306,0.14804 -0.949988,0.221663 -0.316927,0.07362 0.12693,1.203584 0.189998,1.804979 z"
       inkscape:path-effect="#path-effect1787" /></g><text
     xml:space="preserve"
     style="font-weight:bold;font-size:7.05556px;line-height:1;font-family:Arial;-inkscape-font-specification:'Arial Bold';text-align:center;text-decoration-color:#000000;opacity:1;fill:#000000;stroke:none;stroke-width:1.065;stroke-linecap:round;stroke-linejoin:round;stroke-miterlimit:2;paint-order:fill markers stroke;stop-color:#000000"
     x="59.630932"
     y="12.886058"
     id="text1634"><tspan
       sodipodi:role="line"
       style="font-size:7.05556px;text-align:center;text-anchor:middle;opacity:1;fill:#000000;stroke-width:1.065"
       x="59.630932"
       y="12.886058"
       id="tspan1632">Matrix</tspan></text><path
     style="opacity:1;fill:none;stroke:#000000;stroke-width:1.065;stroke-linecap:round;stroke-linejoin:round;stroke-miterlimit:2;paint-order:fill markers stroke;stop-color:#000000"
     d="m 60.789715,15.448583 5.893293,15.52836"
     id="path2499"
     sodipodi:nodetypes="cc" /><text
     xml:space="preserve"
     style="font-weight:bold;font-size:7.05556px;line-height:1;font-family:Arial;-inkscape-font-specification:'Arial Bold';text-align:center;text-decoration-color:#000000;opacity:1;fill:#000000;stroke:none;stroke-width:1.065;stroke-linecap:round;stroke-linejoin:round;stroke-miterlimit:2;paint-order:fill markers stroke;stop-color:#000000"
     x="70.116348"
     y="77.897682"
     id="text3343"><tspan
       sodipodi:role="line"
       style="font-size:7.05556px;text-align:center;text-anchor:middle;opacity:1;fill:#000000;stroke-width:1.065"
       x="70.116348"
       y="77.897682"
       id="tspan3341">Intermembrane</tspan><tspan
       sodipodi:role="line"
       style="font-size:7.05556px;text-align:center;text-anchor:middle;opacity:1;fill:#000000;stroke-width:1.065"
       x="70.116348"
       y="84.953239"
       id="tspan3399">Space</tspan></text><path
     style="opacity:1;fill:none;stroke:#000000;stroke-width:1.065;stroke-linecap:round;stroke-linejoin:round;stroke-miterlimit:2;paint-order:fill markers stroke;stop-color:#000000"
     d="m 62.379497,55.502471 6.42246,16.189818"
     id="path3345"
     sodipodi:nodetypes="cc" /><text
     xml:space="preserve"
     style="font-weight:bold;font-size:7.05556px;line-height:1;font-family:Arial;-inkscape-font-specification:'Arial Bold';text-align:center;text-decoration-color:#000000;opacity:1;fill:#000000;stroke:none;stroke-width:1.065;stroke-linecap:round;stroke-linejoin:round;stroke-miterlimit:2;paint-order:fill markers stroke;stop-color:#000000"
     x="29.767391"
     y="86.761223"
     id="text3553"><tspan
       sodipodi:role="line"
       style="font-size:7.05556px;text-align:center;text-anchor:middle;opacity:1;fill:#000000;stroke-width:1.065"
       x="29.767391"
       y="86.761223"
       id="tspan3551">Inner</tspan><tspan
       sodipodi:role="line"
       style="font-size:7.05556px;text-align:center;text-anchor:middle;opacity:1;fill:#000000;stroke-width:1.065"
       x="29.767391"
       y="93.81678"
       id="tspan3559">Membrane</tspan></text><path
     style="opacity:1;fill:none;stroke:#000000;stroke-width:1.065;stroke-linecap:round;stroke-linejoin:round;stroke-miterlimit:2;paint-order:fill markers stroke;stop-color:#000000"
     d="M 31.092518,69.988408 29.246749,81.349581"
     id="path3555"
     sodipodi:nodetypes="cc" /><text
     xml:space="preserve"
     style="font-weight:bold;font-size:7.05556px;line-height:1;font-family:Arial;-inkscape-font-specification:'Arial Bold';text-align:center;text-decoration-color:#000000;opacity:1;fill:#000000;stroke:none;stroke-width:1.065;stroke-linecap:round;stroke-linejoin:round;stroke-miterlimit:2;paint-order:fill markers stroke;stop-color:#000000"
     x="24.07885"
     y="18.167995"
     id="text4291"><tspan
       sodipodi:role="line"
       style="font-size:7.05556px;text-align:center;text-anchor:middle;opacity:1;fill:#000000;stroke-width:1.065"
       x="24.07885"
       y="18.167995"
       id="tspan4287">Outer</tspan><tspan
       sodipodi:role="line"
       style="font-size:7.05556px;text-align:center;text-anchor:middle;opacity:1;fill:#000000;stroke-width:1.065"
       x="24.07885"
       y="25.223557"
       id="tspan4289">Membrane</tspan></text><path
     style="opacity:1;fill:none;stroke:#000000;stroke-width:1.065;stroke-linecap:round;stroke-linejoin:round;stroke-miterlimit:2;paint-order:fill markers stroke;stop-color:#000000"
     d="M 25.536268,26.861325 29.048311,38.81781"
     id="path4293"
     sodipodi:nodetypes="cc" /><text
     xml:space="preserve"
     style="font-weight:bold;font-size:7.05556px;line-height:1;font-family:Arial;-inkscape-font-specification:'Arial Bold';text-align:center;text-decoration-color:#000000;opacity:1;fill:#000000;stroke:none;stroke-width:1.065;stroke-linecap:round;stroke-linejoin:round;stroke-miterlimit:2;paint-order:fill markers stroke;stop-color:#000000"
     x="85.49456"
     y="62.651642"
     id="text1791"><tspan
       sodipodi:role="line"
       style="font-size:7.05556px;text-align:center;text-anchor:middle;opacity:1;fill:#000000;stroke-width:1.065"
       x="85.49456"
       y="62.651642"
       id="tspan1789">Crista</tspan></text><path
     style="opacity:1;fill:none;stroke:#000000;stroke-width:1.065;stroke-linecap:round;stroke-linejoin:round;stroke-miterlimit:2;paint-order:fill markers stroke;stop-color:#000000"
     d="M 81.826372,43.331638 86.132166,56.61104"
     id="path3347"
     sodipodi:nodetypes="cc" /></svg>
