<?xml version="1.0" encoding="UTF-8" standalone="no"?>
<!-- Created with Inkscape (http://www.inkscape.org/) -->

<svg
   width="100mm"
   height="100mm"
   viewBox="0 0 100 100"
   version="1.1"
   id="svg5"
   inkscape:version="1.2.2 (732a01da63, 2022-12-09)"
   sodipodi:docname="nucleus.svg"
   xml:space="preserve"
   xmlns:inkscape="http://www.inkscape.org/namespaces/inkscape"
   xmlns:sodipodi="http://sodipodi.sourceforge.net/DTD/sodipodi-0.dtd"
   xmlns="http://www.w3.org/2000/svg"
   xmlns:svg="http://www.w3.org/2000/svg"><sodipodi:namedview
     id="namedview7"
     pagecolor="#ffffff"
     bordercolor="#000000"
     borderopacity="0.25"
     inkscape:showpageshadow="2"
     inkscape:pageopacity="0.0"
     inkscape:pagecheckerboard="0"
     inkscape:deskcolor="#d1d1d1"
     inkscape:document-units="mm"
     showgrid="false"
     inkscape:zoom="0.25"
     inkscape:cx="352"
     inkscape:cy="38"
     inkscape:window-width="958"
     inkscape:window-height="1002"
     inkscape:window-x="0"
     inkscape:window-y="0"
     inkscape:window-maximized="0"
     inkscape:current-layer="svg5" /><defs
     id="defs2"><inkscape:path-effect
       effect="spiro"
       id="path-effect3621"
       is_visible="true"
       lpeversion="1" /><inkscape:path-effect
       effect="simplify"
       id="path-effect3617"
       is_visible="true"
       lpeversion="1"
       steps="1"
       threshold="0.00342105"
       smooth_angles="360"
       helper_size="0"
       simplify_individual_paths="false"
       simplify_just_coalesce="false" /><inkscape:path-effect
       effect="spiro"
       id="path-effect12276"
       is_visible="true"
       lpeversion="1" /><inkscape:path-effect
       effect="spiro"
       id="path-effect12270"
       is_visible="true"
       lpeversion="1" /><inkscape:path-effect
       effect="spiro"
       id="path-effect12264"
       is_visible="true"
       lpeversion="1" /><inkscape:path-effect
       effect="spiro"
       id="path-effect12258"
       is_visible="true"
       lpeversion="1" /><inkscape:path-effect
       effect="spiro"
       id="path-effect12252"
       is_visible="true"
       lpeversion="1" /><inkscape:path-effect
       effect="spiro"
       id="path-effect8572"
       is_visible="true"
       lpeversion="1" /><inkscape:path-effect
       effect="spiro"
       id="path-effect8568"
       is_visible="true"
       lpeversion="1" /><inkscape:path-effect
       effect="spiro"
       id="path-effect8564"
       is_visible="true"
       lpeversion="1" /><inkscape:path-effect
       effect="spiro"
       id="path-effect8454"
       is_visible="true"
       lpeversion="1" /><inkscape:path-effect
       effect="spiro"
       id="path-effect8442"
       is_visible="true"
       lpeversion="1" /><inkscape:path-effect
       effect="spiro"
       id="path-effect6212"
       is_visible="true"
       lpeversion="1" /><inkscape:path-effect
       effect="simplify"
       id="path-effect6208"
       is_visible="true"
       lpeversion="1"
       steps="1"
       threshold="0.00342105"
       smooth_angles="360"
       helper_size="0"
       simplify_individual_paths="false"
       simplify_just_coalesce="false" /><inkscape:path-effect
       effect="spiro"
       id="path-effect3287"
       is_visible="true"
       lpeversion="1" /><inkscape:path-effect
       effect="spiro"
       id="path-effect7164"
       is_visible="true"
       lpeversion="1" /><inkscape:path-effect
       effect="spiro"
       id="path-effect7158"
       is_visible="true"
       lpeversion="1" /><inkscape:path-effect
       effect="spiro"
       id="path-effect5700"
       is_visible="true"
       lpeversion="1" /><inkscape:path-effect
       effect="spiro"
       id="path-effect5694"
       is_visible="true"
       lpeversion="1" /><inkscape:path-effect
       effect="bspline"
       id="path-effect4775"
       is_visible="true"
       lpeversion="1"
       weight="33.333333"
       steps="2"
       helper_size="0"
       apply_no_weight="true"
       apply_with_weight="true"
       only_selected="false" /><inkscape:path-effect
       effect="spiro"
       id="path-effect3181"
       is_visible="true"
       lpeversion="1" /><inkscape:path-effect
       effect="spiro"
       id="path-effect3169"
       is_visible="true"
       lpeversion="1" /><inkscape:path-effect
       effect="spiro"
       id="path-effect13969"
       is_visible="true"
       lpeversion="1" /><inkscape:path-effect
       effect="spiro"
       id="path-effect13965"
       is_visible="true"
       lpeversion="1" /><inkscape:path-effect
       effect="spiro"
       id="path-effect13961"
       is_visible="true"
       lpeversion="1" /><inkscape:path-effect
       effect="spiro"
       id="path-effect9241"
       is_visible="true"
       lpeversion="1" /><inkscape:path-effect
       effect="spiro"
       id="path-effect8511"
       is_visible="true"
       lpeversion="1" /><inkscape:path-effect
       effect="spiro"
       id="path-effect8358"
       is_visible="true"
       lpeversion="1" /><inkscape:path-effect
       effect="spiro"
       id="path-effect20691"
       is_visible="true"
       lpeversion="1" /><inkscape:path-effect
       effect="spiro"
       id="path-effect20687"
       is_visible="true"
       lpeversion="1" /><inkscape:path-effect
       effect="spiro"
       id="path-effect20683"
       is_visible="true"
       lpeversion="1" /><inkscape:path-effect
       effect="spiro"
       id="path-effect20673"
       is_visible="true"
       lpeversion="1" /><inkscape:path-effect
       effect="spiro"
       id="path-effect20669"
       is_visible="true"
       lpeversion="1" /><inkscape:path-effect
       effect="spiro"
       id="path-effect20665"
       is_visible="true"
       lpeversion="1" /><inkscape:path-effect
       effect="spiro"
       id="path-effect20655"
       is_visible="true"
       lpeversion="1" /><inkscape:path-effect
       effect="spiro"
       id="path-effect20651"
       is_visible="true"
       lpeversion="1" /><inkscape:path-effect
       effect="spiro"
       id="path-effect20643"
       is_visible="true"
       lpeversion="1" /><inkscape:path-effect
       effect="spiro"
       id="path-effect20637"
       is_visible="true"
       lpeversion="1" /><inkscape:path-effect
       effect="spiro"
       id="path-effect20633"
       is_visible="true"
       lpeversion="1" /><inkscape:path-effect
       effect="spiro"
       id="path-effect20629"
       is_visible="true"
       lpeversion="1" /><inkscape:path-effect
       effect="spiro"
       id="path-effect20625"
       is_visible="true"
       lpeversion="1" /><inkscape:path-effect
       effect="spiro"
       id="path-effect20621"
       is_visible="true"
       lpeversion="1" /><inkscape:path-effect
       effect="spiro"
       id="path-effect20617"
       is_visible="true"
       lpeversion="1" /><inkscape:path-effect
       effect="spiro"
       id="path-effect20613"
       is_visible="true"
       lpeversion="1" /><inkscape:path-effect
       effect="spiro"
       id="path-effect20595"
       is_visible="true"
       lpeversion="1" /><inkscape:path-effect
       effect="spiro"
       id="path-effect20591"
       is_visible="true"
       lpeversion="1" /><inkscape:path-effect
       effect="spiro"
       id="path-effect20587"
       is_visible="true"
       lpeversion="1" /><inkscape:path-effect
       effect="spiro"
       id="path-effect20583"
       is_visible="true"
       lpeversion="1" /><inkscape:path-effect
       effect="spiro"
       id="path-effect20579"
       is_visible="true"
       lpeversion="1" /><inkscape:path-effect
       effect="spiro"
       id="path-effect20575"
       is_visible="true"
       lpeversion="1" /><inkscape:path-effect
       effect="spiro"
       id="path-effect20571"
       is_visible="true"
       lpeversion="1" /><inkscape:path-effect
       effect="spiro"
       id="path-effect20553"
       is_visible="true"
       lpeversion="1" /><inkscape:path-effect
       effect="spiro"
       id="path-effect20549"
       is_visible="true"
       lpeversion="1" /><inkscape:path-effect
       effect="spiro"
       id="path-effect20545"
       is_visible="true"
       lpeversion="1" /><inkscape:path-effect
       effect="spiro"
       id="path-effect20541"
       is_visible="true"
       lpeversion="1" /><inkscape:path-effect
       effect="spiro"
       id="path-effect20537"
       is_visible="true"
       lpeversion="1" /><inkscape:path-effect
       effect="spiro"
       id="path-effect20533"
       is_visible="true"
       lpeversion="1" /><inkscape:path-effect
       effect="spiro"
       id="path-effect20529"
       is_visible="true"
       lpeversion="1" /><inkscape:path-effect
       effect="spiro"
       id="path-effect20511"
       is_visible="true"
       lpeversion="1" /><inkscape:path-effect
       effect="spiro"
       id="path-effect20507"
       is_visible="true"
       lpeversion="1" /><inkscape:path-effect
       effect="spiro"
       id="path-effect20503"
       is_visible="true"
       lpeversion="1" /><inkscape:path-effect
       effect="spiro"
       id="path-effect20493"
       is_visible="true"
       lpeversion="1" /><inkscape:path-effect
       effect="spiro"
       id="path-effect20489"
       is_visible="true"
       lpeversion="1" /><inkscape:path-effect
       effect="spiro"
       id="path-effect20485"
       is_visible="true"
       lpeversion="1" /><inkscape:path-effect
       effect="spiro"
       id="path-effect20475"
       is_visible="true"
       lpeversion="1" /><inkscape:path-effect
       effect="spiro"
       id="path-effect20471"
       is_visible="true"
       lpeversion="1" /><inkscape:path-effect
       effect="spiro"
       id="path-effect20463"
       is_visible="true"
       lpeversion="1" /><inkscape:path-effect
       effect="spiro"
       id="path-effect20459"
       is_visible="true"
       lpeversion="1" /><inkscape:path-effect
       effect="spiro"
       id="path-effect20451"
       is_visible="true"
       lpeversion="1" /><inkscape:path-effect
       effect="spiro"
       id="path-effect20445"
       is_visible="true"
       lpeversion="1" /><inkscape:path-effect
       effect="spiro"
       id="path-effect20439"
       is_visible="true"
       lpeversion="1" /><inkscape:path-effect
       effect="spiro"
       id="path-effect19562"
       is_visible="true"
       lpeversion="1" /><inkscape:path-effect
       effect="bspline"
       id="path-effect19323"
       is_visible="true"
       lpeversion="1"
       weight="33.333333"
       steps="2"
       helper_size="0"
       apply_no_weight="true"
       apply_with_weight="true"
       only_selected="false" /><inkscape:path-effect
       effect="bspline"
       id="path-effect18797"
       is_visible="true"
       lpeversion="1"
       weight="33.333333"
       steps="2"
       helper_size="0"
       apply_no_weight="true"
       apply_with_weight="true"
       only_selected="false" /><inkscape:path-effect
       effect="bspline"
       id="path-effect17104"
       is_visible="true"
       lpeversion="1"
       weight="33.333333"
       steps="2"
       helper_size="0"
       apply_no_weight="true"
       apply_with_weight="true"
       only_selected="false" /><inkscape:path-effect
       effect="spiro"
       id="path-effect5612"
       is_visible="true"
       lpeversion="1" /><inkscape:path-effect
       effect="simplify"
       id="path-effect5610"
       is_visible="true"
       lpeversion="1"
       steps="1"
       threshold="0.00342105"
       smooth_angles="360"
       helper_size="0"
       simplify_individual_paths="false"
       simplify_just_coalesce="false" /><inkscape:path-effect
       effect="spiro"
       id="path-effect2975"
       is_visible="true"
       lpeversion="1" /><inkscape:path-effect
       effect="simplify"
       id="path-effect5610-2"
       is_visible="true"
       lpeversion="1"
       steps="1"
       threshold="0.00342105"
       smooth_angles="360"
       helper_size="0"
       simplify_individual_paths="false"
       simplify_just_coalesce="false" /><inkscape:path-effect
       effect="spiro"
       id="path-effect5612-8"
       is_visible="true"
       lpeversion="1" /><inkscape:path-effect
       effect="bspline"
       id="path-effect18797-2"
       is_visible="true"
       lpeversion="1"
       weight="33.333333"
       steps="2"
       helper_size="0"
       apply_no_weight="true"
       apply_with_weight="true"
       only_selected="false" /><inkscape:path-effect
       effect="spiro"
       id="path-effect9241-8"
       is_visible="true"
       lpeversion="1" /><inkscape:path-effect
       effect="spiro"
       id="path-effect13961-2"
       is_visible="true"
       lpeversion="1" /><inkscape:path-effect
       effect="spiro"
       id="path-effect13965-2"
       is_visible="true"
       lpeversion="1" /><inkscape:path-effect
       effect="spiro"
       id="path-effect13969-8"
       is_visible="true"
       lpeversion="1" /><inkscape:path-effect
       effect="bspline"
       id="path-effect19323-2"
       is_visible="true"
       lpeversion="1"
       weight="33.333333"
       steps="2"
       helper_size="0"
       apply_no_weight="true"
       apply_with_weight="true"
       only_selected="false" /></defs><g
     id="g3613"
     transform="matrix(3.8350239,0.15473832,-0.15473832,3.8350239,-49.526425,-44.933293)"
     inkscape:label="Nucleus"
     style="opacity:1"><circle
       style="fill:#d6a6bb;fill-opacity:1;stroke:#871f53;stroke-width:0.6;stroke-linecap:round;stroke-miterlimit:2;stroke-dasharray:4.2, 1.2;stroke-dashoffset:0;stroke-opacity:1;paint-order:fill markers stroke;stop-color:#000000"
       id="circle3607"
       cx="35.763092"
       cy="-2.2906601"
       r="7.7265701"
       transform="rotate(45)" /><path
       style="fill:none;stroke:#631739;stroke-width:0.250355;stroke-linecap:round;stroke-miterlimit:2;stroke-dasharray:none;stroke-dashoffset:0;stroke-opacity:1;paint-order:fill markers stroke;stop-color:#000000"
       d="m 30.935664,20.727679 c 0.383373,0.09539 0.735828,0.311294 0.994966,0.609491 0.126282,0.145315 0.2317,0.311667 0.2878,0.495831 0.09801,0.321758 0.03934,0.668237 -0.02851,0.997678 -0.0838,0.406934 -0.184214,0.820055 -0.408165,1.170005 -0.06139,0.09593 -0.132011,0.186661 -0.216637,0.262882 -0.08463,0.07622 -0.183767,0.137732 -0.292745,0.170824 -0.09359,0.02842 -0.194088,0.0354 -0.290033,0.01639 -0.09594,-0.01901 -0.18705,-0.0644 -0.257417,-0.132332 -0.09395,-0.0907 -0.147677,-0.218651 -0.159971,-0.34866 -0.01229,-0.130009 0.01486,-0.261815 0.06507,-0.382368 0.04719,-0.11332 0.118666,-0.221894 0.225138,-0.282985 0.07273,-0.04173 0.157762,-0.05876 0.241607,-0.05916 0.08385,-4.01e-4 0.166993,0.01514 0.248438,0.03507 0.35193,0.0861 0.6789,0.253942 0.985888,0.446363 0.09325,0.05845 0.185475,0.119659 0.266251,0.19441 0.08078,0.07475 0.150176,0.164011 0.189601,0.266764 0.03378,0.08805 0.04465,0.183061 0.07061,0.273721 0.02371,0.08281 0.05986,0.161472 0.08813,0.242841 0.02826,0.08137 0.04878,0.167579 0.03945,0.253211 -0.008,0.0731 -0.03717,0.141907 -0.06455,0.210146 -0.106774,0.266092 -0.192219,0.544827 -0.353207,0.782079 -0.06511,0.09596 -0.142752,0.184648 -0.23711,0.252051 -0.09436,0.0674 -0.206323,0.112791 -0.322167,0.117959 -0.154593,0.0069 -0.302651,-0.05651 -0.454805,-0.08472 -0.07879,-0.01461 -0.159622,-0.0199 -0.236252,-0.04335 -0.03832,-0.01172 -0.07549,-0.02805 -0.108159,-0.05125 -0.03267,-0.0232 -0.06075,-0.0535 -0.07842,-0.08946 -0.02547,-0.05183 -0.02793,-0.113287 -0.01281,-0.169023 0.02058,-0.07587 0.07241,-0.14132 0.137235,-0.1858 0.06482,-0.04448 0.141934,-0.06899 0.219949,-0.07868 0.119987,-0.0149 0.242454,0.0042 0.357327,0.04196 0.114872,0.03773 0.222914,0.09363 0.327913,0.153587 0.112671,0.06433 0.22308,0.134032 0.320178,0.220088 0.0971,0.08606 0.180901,0.189391 0.231668,0.30879 0.08586,0.201921 0.0699,0.438974 -0.01844,0.639822 -0.067,0.152339 -0.172766,0.285387 -0.294335,0.39904 -0.12157,0.113654 -0.259033,0.208921 -0.398932,0.299058 -0.106494,0.06861 -0.215326,0.134825 -0.332601,0.182734 -0.117276,0.04791 -0.244008,0.07714 -0.370431,0.06902 -0.118547,-0.0076 -0.232494,-0.0475 -0.34292,-0.09128 -0.110426,-0.04379 -0.219891,-0.0921 -0.335834,-0.11796 -0.09269,-0.02067 -0.189261,-0.02694 -0.277736,-0.06145 -0.04424,-0.01725 -0.08621,-0.04176 -0.119342,-0.07578 -0.03313,-0.03402 -0.057,-0.07804 -0.0623,-0.125231 -0.0034,-0.03061 9.3e-4,-0.06179 0.01026,-0.09114 0.0093,-0.02935 0.02353,-0.05697 0.03985,-0.08309 0.05941,-0.0951 0.147174,-0.170799 0.245821,-0.224101 0.09865,-0.0533 0.207985,-0.08492 0.318787,-0.102114 0.137425,-0.02132 0.280904,-0.02039 0.412264,0.02527 0.14283,0.04965 0.264474,0.150306 0.355586,0.270986 0.09111,0.12068 0.153426,0.260891 0.200711,0.40452 0.03842,0.116683 0.06754,0.237293 0.07334,0.36 0.0058,0.122707 -0.01249,0.247994 -0.06516,0.358974 -0.04662,0.09824 -0.119451,0.183314 -0.206739,0.248173 -0.08729,0.06486 -0.188762,0.109753 -0.294504,0.135141 -0.270302,0.0649 -0.553386,0.0026 -0.822559,-0.06682 -0.15542,-0.04009 -0.310786,-0.0828 -0.45846,-0.145688 -0.147675,-0.06289 -0.28819,-0.146831 -0.401083,-0.260927 -0.218419,-0.220748 -0.316946,-0.542786 -0.303786,-0.85305 0.01863,-0.439251 0.241903,-0.845016 0.509117,-1.194137 0.09999,-0.130639 0.207661,-0.256774 0.335243,-0.360635 0.04318,-0.03515 0.0896,-0.0682 0.142797,-0.08465 0.0266,-0.0082 0.0547,-0.01213 0.08244,-0.0097 0.02774,0.0024 0.0551,0.01133 0.07801,0.02715 0.02016,0.01393 0.03657,0.03299 0.04843,0.05444 0.01185,0.02144 0.01922,0.04523 0.02279,0.06947 0.0071,0.04848 -7.98e-4,0.09803 -0.01359,0.145341 -0.03337,0.123462 -0.101886,0.239172 -0.20245,0.318187 -0.0944,0.07417 -0.213338,0.113378 -0.332989,0.123202 -0.11965,0.0098 -0.240278,-0.0085 -0.356027,-0.04034 -0.113936,-0.03136 -0.225286,-0.07645 -0.321376,-0.145238 -0.09609,-0.06879 -0.176482,-0.162565 -0.217173,-0.273512 -0.03202,-0.0873 -0.03867,-0.182196 -0.03275,-0.27499 0.0059,-0.0928 0.02403,-0.18431 0.04028,-0.275863 0.04879,-0.274961 0.08418,-0.561583 0.229063,-0.800315 0.03895,-0.06418 0.0856,-0.12411 0.141896,-0.173777 0.05629,-0.04967 0.122483,-0.0889 0.194673,-0.109495 0.07236,-0.02064 0.149385,-0.0222 0.223703,-0.01045 0.07432,0.01176 0.146119,0.03654 0.214635,0.06763 0.100381,0.04555 0.19534,0.105583 0.271425,0.185349 0.07608,0.07977 0.132603,0.180242 0.150029,0.28909 0.0089,0.05552 0.0075,0.112936 -0.0067,0.167345 -0.01418,0.05441 -0.04139,0.105716 -0.08046,0.146143 -0.05602,0.05795 -0.133241,0.091 -0.211309,0.111054 -0.172641,0.04434 -0.357719,0.03098 -0.526839,-0.02532 -0.16912,-0.0563 -0.322708,-0.154282 -0.454512,-0.274278 -0.09231,-0.08404 -0.17427,-0.178704 -0.262304,-0.26722 -0.05709,-0.0574 -0.117288,-0.112873 -0.161894,-0.180434 -0.06253,-0.09471 -0.09071,-0.207366 -0.117011,-0.317763 -0.05629,-0.236277 -0.108765,-0.473526 -0.152427,-0.712459 -0.05359,-0.293254 -0.09355,-0.597492 -0.02354,-0.887264 0.02656,-0.109939 0.06895,-0.21646 0.129623,-0.311914 0.05479,-0.0862 0.125514,-0.163969 0.2136,-0.215677 0.08808,-0.05171 0.194613,-0.07569 0.294463,-0.05418 0.07013,0.01511 0.134173,0.05159 0.1906,0.09589 0.05643,0.0443 0.106063,0.09649 0.156401,0.147607 0.110304,0.112002 0.226125,0.220597 0.360715,0.30182 0.04029,0.02432 0.08254,0.04638 0.117218,0.07819 0.01734,0.0159 0.03267,0.03422 0.04364,0.05504 0.01097,0.02082 0.01746,0.04422 0.01695,0.06775 -8.69e-4,0.03998 -0.02203,0.0776 -0.051,0.105166 -0.02898,0.02756 -0.06528,0.04617 -0.102223,0.06149 -0.177215,0.0735 -0.377311,0.07881 -0.553151,0.155543 -0.06695,0.02922 -0.129727,0.06854 -0.199508,0.09013 -0.09993,0.03093 -0.210888,0.02283 -0.306482,-0.01965 -0.09559,-0.04247 -0.175373,-0.118507 -0.224991,-0.210595 -0.06082,-0.11287 -0.07591,-0.244343 -0.08205,-0.372408 -0.02375,-0.495312 0.07012,-0.990755 0.221303,-1.463028 0.01757,-0.05488 0.036,-0.109732 0.06175,-0.161285 0.02575,-0.05155 0.05919,-0.09999 0.103134,-0.137273 0.06686,-0.05672 0.154872,-0.08451 0.242382,-0.08994 0.08751,-0.0054 0.175072,0.0101 0.259979,0.03197 0.287377,0.07403 0.551031,0.219865 0.800774,0.380161 0.07415,0.04759 0.148939,0.09802 0.201529,0.168723 0.0263,0.03535 0.04661,0.07557 0.0561,0.118586 0.0095,0.04302 0.0078,0.08892 -0.008,0.130056 -0.01516,0.03951 -0.04285,0.07351 -0.07595,0.09987 -0.03311,0.02636 -0.07154,0.04542 -0.111244,0.06006 -0.115964,0.04275 -0.242683,0.04844 -0.365818,0.03782 -0.123134,-0.01062 -0.244288,-0.03695 -0.366306,-0.05662 -0.130953,-0.0211 -0.263343,-0.03458 -0.392479,-0.06487 -0.129136,-0.0303 -0.256536,-0.0786 -0.359972,-0.16164 -0.08437,-0.06773 -0.150253,-0.156753 -0.19853,-0.253574 -0.04828,-0.09682 -0.07945,-0.201448 -0.101024,-0.307465 -0.04787,-0.235273 -0.04877,-0.481619 0.0117,-0.713974 0.06576,-0.25268 0.20141,-0.481882 0.355111,-0.692946 0.09125,-0.125301 0.190008,-0.246182 0.306563,-0.348363 0.116556,-0.102182 0.251913,-0.185491 0.401064,-0.227683 0.130731,-0.03698 0.268522,-0.04162 0.40425,-0.03561 0.285472,0.01264 0.581067,0.07734 0.801024,0.259746 0.04628,0.03838 0.08974,0.08321 0.111526,0.139252 0.01693,0.04354 0.01971,0.09215 0.0098,0.137798 -0.0099,0.04564 -0.03231,0.08827 -0.06276,0.123692 -0.0609,0.07085 -0.152046,0.111122 -0.244602,0.123819 -0.09256,0.0127 -0.186904,-1.12e-4 -0.277829,-0.02157 -0.09092,-0.02146 -0.179619,-0.05151 -0.270285,-0.07404 -0.352308,-0.08754 -0.723216,-0.05934 -1.08125,-0.119311 -0.237539,-0.03979 -0.471351,-0.120098 -0.667716,-0.259556 -0.196366,-0.139457 -0.353237,-0.341445 -0.412955,-0.574772 -0.03477,-0.135855 -0.0363,-0.278035 -0.02857,-0.418056 0.0053,-0.09521 0.01535,-0.1926 0.05726,-0.278249 0.02096,-0.04282 0.04988,-0.08215 0.0869,-0.112186 0.03702,-0.03004 0.08237,-0.05049 0.129851,-0.05485 0.06514,-0.006 0.131157,0.019 0.180877,0.0615 0.06826,0.05835 0.105925,0.146454 0.118701,0.235345 0.01278,0.08889 0.0029,0.179414 -0.01054,0.268212 -0.04471,0.296188 -0.134857,0.598252 -0.339113,0.817355 -0.108596,0.11649 -0.246037,0.204859 -0.394851,0.261579 -0.357917,0.13642 -0.758181,0.08748 -1.132821,0.0077 -0.449889,-0.09577 -0.900765,-0.23817 -1.268408,-0.514594 -0.114279,-0.08593 -0.220371,-0.185241 -0.298501,-0.304984 -0.07078,-0.108477 -0.117499,-0.233013 -0.132119,-0.361712 -0.01462,-0.128698 0.0032,-0.261378 0.05446,-0.380335 0.06505,-0.150993 0.186206,-0.279197 0.337926,-0.342531 0.133688,-0.05581 0.286318,-0.05991 0.426209,-0.02226 0.139892,0.03765 0.267253,0.115484 0.372927,0.214579 0.257922,0.241863 0.382423,0.608256 0.362102,0.961255 -0.0083,0.144977 -0.03976,0.289561 -0.102002,0.420765 -0.06224,0.131203 -0.156127,0.248694 -0.276448,0.330001 -0.169698,0.114673 -0.380869,0.151517 -0.585651,0.154919 -0.178461,0.003 -0.356601,-0.01727 -0.532737,-0.04613 -0.364697,-0.05976 -0.722311,-0.156398 -1.085139,-0.226619 -0.135697,-0.02626 -0.272709,-0.04888 -0.410898,-0.05153 -0.138189,-0.0026 -0.27825,0.01524 -0.406201,0.06751 -0.1435,0.05862 -0.272203,0.164811 -0.333408,0.307227 -0.01594,0.03708 -0.02722,0.07637 -0.03077,0.116576 -0.0035,0.0402 7.91e-4,0.08137 0.0151,0.119102 0.02119,0.05588 0.06327,0.101907 0.111491,0.137217 0.04822,0.03531 0.102712,0.06092 0.156925,0.08607 0.280462,0.130112 0.564486,0.254324 0.85945,0.346974 0.07091,0.02227 0.143504,0.04287 0.217825,0.04346 0.03716,2.91e-4 0.07453,-0.0045 0.109763,-0.01634 0.03523,-0.01183 0.06829,-0.03081 0.09477,-0.05688 0.03118,-0.03071 0.05241,-0.07032 0.06718,-0.111514 0.01477,-0.0412 0.02347,-0.08427 0.03265,-0.127062 0.02182,-0.101676 0.04674,-0.203299 0.05294,-0.307105 0.0062,-0.103805 -0.0075,-0.21148 -0.05869,-0.302019 -0.02961,-0.05241 -0.07064,-0.09731 -0.111648,-0.141372 -0.12887,-0.138475 -0.263166,-0.275281 -0.425095,-0.373064 -0.27131,-0.163835 -0.598169,-0.205396 -0.914842,-0.218403 -0.133199,-0.0055 -0.267261,-0.0065 -0.399092,0.01331 -0.131832,0.01981 -0.262041,0.06125 -0.372977,0.13518 -0.153452,0.10226 -0.260907,0.259618 -0.3533,0.419205 -0.06518,0.11258 -0.125005,0.228601 -0.171486,0.3501 -0.133941,0.350113 -0.152632,0.731579 -0.200173,1.103411 -0.02695,0.210791 -0.06342,0.426546 -0.01592,0.633676 0.03525,0.153712 0.117243,0.296465 0.232661,0.40393 0.123574,0.115058 0.28035,0.187306 0.437162,0.249908 0.09591,0.03829 0.193735,0.07391 0.295743,0.08998 0.102008,0.01606 0.209261,0.01165 0.304571,-0.0281 0.05074,-0.02116 0.09767,-0.05234 0.134377,-0.09327 0.0367,-0.04093 0.06288,-0.09182 0.07155,-0.146105 0.01338,-0.08378 -0.01527,-0.169429 -0.05834,-0.24253 -0.04307,-0.0731 -0.100168,-0.136747 -0.150823,-0.204812 -0.04159,-0.05588 -0.07898,-0.114959 -0.123647,-0.16842 -0.04466,-0.05346 -0.09771,-0.101844 -0.161773,-0.129201 -0.0546,-0.02331 -0.114934,-0.03037 -0.174299,-0.02977 -0.05936,6.05e-4 -0.118368,0.0086 -0.177471,0.01419 -0.107957,0.01023 -0.216679,0.01254 -0.324137,0.0271 -0.107458,0.01457 -0.215011,0.04213 -0.307504,0.09874 -0.08239,0.05042 -0.149654,0.121844 -0.212748,0.194985 -0.213911,0.247975 -0.393646,0.529112 -0.499581,0.838995 -0.03118,0.09121 -0.05609,0.186153 -0.05417,0.282526 0.0027,0.137481 0.06052,0.269627 0.142013,0.380384 0.08149,0.110757 0.185933,0.2024 0.29267,0.289093 0.179754,0.145998 0.369351,0.281179 0.574724,0.38818 0.155432,0.08098 0.32631,0.146687 0.5012,0.135263 0.0861,-0.0056 0.173636,-0.03169 0.237772,-0.0894 0.04785,-0.04306 0.08042,-0.102306 0.09321,-0.165393 0.01279,-0.06309 0.0061,-0.129699 -0.01714,-0.189747 -0.04204,-0.108849 -0.134256,-0.191094 -0.233644,-0.252229 -0.239791,-0.147499 -0.535414,-0.192858 -0.813493,-0.148951 -0.157046,0.0248 -0.315786,0.08072 -0.425676,0.195619 -0.07687,0.08037 -0.124761,0.184328 -0.158267,0.290376 -0.0335,0.106048 -0.05392,0.21577 -0.084,0.32284 -0.0423,0.150557 -0.10414,0.298242 -0.110876,0.454483 -0.0087,0.202422 0.07578,0.396268 0.165336,0.578014 0.0573,0.116291 0.118783,0.233134 0.21,0.325255 0.127625,0.128889 0.302413,0.198558 0.475056,0.254191 0.340948,0.109868 0.695847,0.179067 1.025012,0.320373 0.05732,0.02461 0.115127,0.05173 0.177263,0.0572 0.03107,0.0027 0.06294,-1.7e-4 0.09207,-0.0113 0.02913,-0.01113 0.0554,-0.03082 0.07189,-0.0573 0.01869,-0.03001 0.02388,-0.0669 0.02091,-0.102133 -0.003,-0.03523 -0.01354,-0.06933 -0.02444,-0.102965 -0.02793,-0.08618 -0.05867,-0.171975 -0.102815,-0.251079 -0.04414,-0.0791 -0.102455,-0.151737 -0.17742,-0.202592 -0.06496,-0.04407 -0.140819,-0.07064 -0.218288,-0.08331 -0.07747,-0.01267 -0.156671,-0.01178 -0.234787,-0.0041 -0.122269,0.0121 -0.243602,0.04122 -0.354378,0.09437 -0.110775,0.05315 -0.210807,0.130984 -0.282415,0.230826 -0.06111,0.08521 -0.10097,0.186776 -0.106517,0.291487 -0.0052,0.09877 0.01963,0.196578 0.04903,0.291015 0.06416,0.206083 0.155177,0.411173 0.313045,0.55836 0.120831,0.112656 0.274231,0.184898 0.431449,0.235634 0.157218,0.05074 0.320044,0.08157 0.480128,0.122369 0.177788,0.04531 0.352218,0.102929 0.529499,0.150184 0.264098,0.0704 0.544436,0.117448 0.809312,0.05004 0.179369,-0.04565 0.345191,-0.144023 0.470132,-0.280575 0.0751,-0.08207 0.135804,-0.178232 0.17094,-0.283784 0.03513,-0.105552 0.04405,-0.220671 0.01873,-0.328998 -0.02882,-0.123307 -0.101076,-0.234122 -0.194147,-0.319988 -0.09307,-0.08587 -0.206258,-0.147878 -0.324739,-0.192569 -0.08177,-0.03084 -0.167445,-0.05394 -0.254809,-0.05639 -0.08736,-0.0024 -0.176888,0.01686 -0.249729,0.06515 -0.08899,0.05901 -0.147917,0.160549 -0.15672,0.266963 -0.0064,0.07696 0.01231,0.154872 0.04683,0.22395 0.03452,0.06908 0.0844,0.1297 0.140949,0.182285 0.212474,0.197575 0.506492,0.276774 0.789544,0.340515 0.14545,0.03275 0.292056,0.06331 0.440871,0.07241 0.148815,0.0091 0.300777,-0.0039 0.440447,-0.05607 0.11579,-0.04324 0.221389,-0.113065 0.30762,-0.201618 0.09031,-0.09275 0.159564,-0.206401 0.19744,-0.330191 0.03788,-0.123789 0.04399,-0.257581 0.01437,-0.383601 -0.02929,-0.124624 -0.09256,-0.239543 -0.17195,-0.339973 -0.07939,-0.100429 -0.174738,-0.187167 -0.274003,-0.26801 -0.183204,-0.149203 -0.383054,-0.280851 -0.603053,-0.367023 -0.06346,-0.02486 -0.12942,-0.04605 -0.197505,-0.04918 -0.06809,-0.0031 -0.139119,0.01344 -0.191496,0.05705 -0.02885,0.02403 -0.05117,0.05552 -0.06586,0.09008 -0.01469,0.03455 -0.02187,0.0721 -0.02269,0.10964 -0.0023,0.104979 0.04527,0.206802 0.114637,0.285634 0.06936,0.07883 0.159245,0.136933 0.252228,0.185719 0.132617,0.06958 0.27527,0.122595 0.423753,0.142138 0.148482,0.01954 0.303249,0.0045 0.439979,-0.05665 0.195117,-0.0872 0.342344,-0.264856 0.415622,-0.465615 0.08641,-0.236741 0.07481,-0.503781 -0.0111,-0.740707 -0.105611,-0.291287 -0.321062,-0.538737 -0.588004,-0.696039 -0.271503,-0.15999 -0.586479,-0.22718 -0.876985,-0.349315 -0.08189,-0.03443 -0.162523,-0.07348 -0.248831,-0.09453 -0.08631,-0.02105 -0.180789,-0.02268 -0.260676,0.01618 -0.07056,0.03433 -0.124482,0.09851 -0.153363,0.171466 -0.03509,0.08864 -0.03451,0.189202 -0.0077,0.280701 0.02677,0.0915 0.07855,0.174367 0.141754,0.245735 0.185855,0.209849 0.461572,0.317313 0.734745,0.380206 0.120136,0.02766 0.242773,0.04824 0.36603,0.04589 0.123257,-0.0023 0.247749,-0.02853 0.354896,-0.0895 0.09934,-0.05653 0.181679,-0.142494 0.233938,-0.244147 0.05612,-0.109167 0.07718,-0.23474 0.06848,-0.35718 -0.0087,-0.12244 -0.04634,-0.241838 -0.101567,-0.351458 -0.157926,-0.313443 -0.451782,-0.538582 -0.764261,-0.698409 -0.273263,-0.139769 -0.569592,-0.238368 -0.874939,-0.269524 -0.05476,-0.0056 -0.110631,-0.009 -0.164382,0.0029 -0.02688,0.0059 -0.05303,0.0157 -0.0764,0.03025 -0.02337,0.01454 -0.0439,0.03395 -0.05839,0.05734 -0.02747,0.04434 -0.03147,0.100419 -0.0196,0.151207 0.01186,0.05079 0.03829,0.09703 0.06832,0.139679 0.145232,0.206283 0.387741,0.34234 0.639798,0.352947 0.172513,0.0073 0.345784,-0.04234 0.492817,-0.132868 0.147033,-0.09052 0.268046,-0.220939 0.354693,-0.37029 0.142969,-0.246432 0.194781,-0.542587 0.367723,-0.768993 0.145574,-0.190578 0.374006,-0.316419 0.613181,-0.33393 0.263829,-0.01932 0.522927,0.08822 0.741902,0.236643 0.06408,0.04343 0.1265,0.09127 0.173586,0.152713 0.04709,0.06144 0.07789,0.138307 0.0714,0.215443 -0.0054,0.06457 -0.03667,0.125229 -0.07986,0.173534 -0.04319,0.0483 -0.09785,0.08513 -0.155081,0.11552 -0.228628,0.121394 -0.496378,0.14327 -0.755234,0.1424 -0.109706,-3.69e-4 -0.220102,-0.0045 -0.327337,-0.02762 -0.107235,-0.02315 -0.211877,-0.06633 -0.295239,-0.137649 -0.04344,-0.03717 -0.08083,-0.0819 -0.106655,-0.132904 -0.02583,-0.05101 -0.03984,-0.108415 -0.037,-0.165518 0.0032,-0.0644 0.02779,-0.126904 0.06569,-0.179061 0.0379,-0.05216 0.08871,-0.09424 0.144839,-0.125962 0.145075,-0.082 0.319116,-0.09379 0.485632,-0.08718 0.343166,0.01362 0.68215,0.09749 0.997708,0.233029 0.09089,0.03904 0.180382,0.0826 0.261363,0.139399 0.08098,0.0568 0.153526,0.127482 0.203413,0.212897 0.04697,0.08042 0.07268,0.171704 0.08753,0.263641 0.01485,0.09194 0.01926,0.185185 0.02639,0.27804 0.01172,0.152641 0.03087,0.305055 0.02952,0.458139 -0.0014,0.153085 -0.02418,0.308733 -0.09206,0.445951 -0.04556,0.0921 -0.112068,0.17532 -0.198382,0.231072 -0.0959,0.06195 -0.211918,0.08736 -0.326071,0.08932 -0.114153,0.002 -0.227468,-0.0183 -0.339234,-0.04161 -0.0929,-0.01937 -0.186078,-0.04114 -0.272522,-0.08031 -0.08644,-0.03916 -0.166561,-0.09709 -0.218482,-0.176534 -0.06419,-0.09821 -0.08024,-0.222598 -0.06165,-0.33844 0.01184,-0.07381 0.03715,-0.145716 0.07666,-0.209172 0.03951,-0.06346 0.09339,-0.118299 0.157667,-0.156462 0.09215,-0.05471 0.202406,-0.07344 0.309472,-0.06868 0.107067,0.0048 0.211887,0.03179 0.314298,0.06338 0.166398,0.05133 0.329722,0.115492 0.479258,0.20472 0.149537,0.08923 0.285318,0.204336 0.385846,0.346522 0.116893,0.165333 0.183249,0.364278 0.199419,0.566114 0.0279,0.348218 -0.09617,0.704847 -0.329709,0.964643 -0.07826,0.08706 -0.168773,0.164071 -0.271836,0.219581 -0.103063,0.05551 -0.219098,0.089 -0.336156,0.08807 -0.191668,-0.0015 -0.369231,-0.0926 -0.549838,-0.156787 -0.05719,-0.02032 -0.116711,-0.03883 -0.164043,-0.07683 -0.02367,-0.019 -0.04387,-0.04285 -0.05592,-0.0707 -0.01205,-0.02785 -0.01555,-0.05985 -0.0069,-0.08893 0.0085,-0.0285 0.02799,-0.05265 0.05047,-0.07213 0.02248,-0.01948 0.04811,-0.0349 0.07282,-0.05146 0.08113,-0.05436 0.152938,-0.121368 0.230721,-0.180427 0.07778,-0.05906 0.164062,-0.111138 0.260096,-0.128903 0.08113,-0.01501 0.165172,-0.0047 0.244982,0.01628 0.07981,0.02094 0.156445,0.05223 0.234159,0.07995 0.143556,0.05121 0.291244,0.09035 0.434138,0.143377 0.142893,0.05303 0.282583,0.121128 0.396357,0.222547 0.109462,0.09758 0.19228,0.224878 0.236485,0.364695 0.0442,0.139817 0.0496,0.291779 0.01476,0.43422 -0.04103,0.167784 -0.141473,0.324426 -0.289295,0.413777 -0.108656,0.06568 -0.237298,0.09265 -0.364224,0.09574 -0.126925,0.0031 -0.253232,-0.01654 -0.378306,-0.03836 -0.105073,-0.01833 -0.2106,-0.03846 -0.309899,-0.0774 -0.0993,-0.03894 -0.19295,-0.09809 -0.257885,-0.182704 -0.02596,-0.03383 -0.04722,-0.07175 -0.05855,-0.112869 -0.01133,-0.04112 -0.01237,-0.0856 9.44e-4,-0.126112 0.01189,-0.03618 0.03492,-0.06825 0.06373,-0.09317 0.02881,-0.02492 0.06325,-0.04286 0.09942,-0.05482 0.07233,-0.02391 0.15013,-0.02404 0.226276,-0.02183 0.285502,0.0083 0.576756,0.04838 0.830211,0.180061 0.111848,0.05811 0.214618,0.133337 0.305249,0.220932 0.165565,0.16002 0.291845,0.366194 0.331603,0.592993 0.02955,0.168582 0.01104,0.341633 -0.01298,0.511092 -0.01875,0.132268 -0.04096,0.264696 -0.08279,0.391571 -0.04182,0.126874 -0.104145,0.248715 -0.195315,0.346359 -0.07962,0.08528 -0.181805,0.151184 -0.295136,0.178907 -0.13143,0.03215 -0.269808,0.01218 -0.40188,-0.01722 -0.132071,-0.0294 -0.263287,-0.06828 -0.398476,-0.07388 -0.09055,-0.0038 -0.18204,0.0075 -0.271478,-0.0072 -0.04472,-0.0073 -0.08881,-0.02133 -0.127131,-0.04552 -0.03832,-0.02419 -0.07066,-0.05906 -0.08749,-0.101131 -0.01156,-0.02888 -0.01561,-0.06057 -0.01296,-0.09156 0.0026,-0.03099 0.01188,-0.06128 0.02585,-0.08908 0.03961,-0.07886 0.116,-0.135013 0.199188,-0.164469 0.08319,-0.02946 0.173098,-0.03457 0.261286,-0.03126 0.326528,0.01223 0.641081,0.136087 0.919646,0.306884 0.137359,0.08422 0.268248,0.180686 0.379164,0.297552 0.110916,0.116867 0.201598,0.254956 0.251257,0.408234 0.03416,0.105428 0.04857,0.217643 0.03802,0.327963 -0.01055,0.11032 -0.04638,0.218624 -0.107181,0.311276 -0.06997,0.106616 -0.171628,0.190557 -0.28521,0.248539 -0.13257,0.06768 -0.28076,0.100891 -0.429166,0.112307 -0.148406,0.01142 -0.297632,0.0016 -0.445766,-0.01288 -0.441163,-0.04326 -0.886227,-0.131645 -1.274724,-0.345108 -0.204102,-0.112146 -0.39698,-0.266785 -0.489091,-0.480677 -0.03939,-0.09147 -0.05896,-0.193251 -0.04328,-0.291596 0.01568,-0.09834 0.06911,-0.192556 0.15281,-0.246516 0.04496,-0.02898 0.09712,-0.04577 0.15014,-0.05287 0.05301,-0.0071 0.106961,-0.0048 0.159968,0.0024 0.150248,0.02032 0.295039,0.08023 0.415347,0.172499 0.120308,0.09227 0.215793,0.21672 0.273193,0.35705 0.04808,0.117552 0.0695,0.246562 0.05686,0.372937 -0.01264,0.126375 -0.05989,0.249802 -0.138901,0.349239 -0.07183,0.09039 -0.168544,0.159674 -0.27459,0.205329 -0.106046,0.04565 -0.221244,0.0682 -0.33659,0.07325 -0.26123,0.01144 -0.517164,-0.06493 -0.770047,-0.131426 -0.142257,-0.03741 -0.285651,-0.07203 -0.423313,-0.123848 -0.137662,-0.05182 -0.270451,-0.121804 -0.378033,-0.222115 -0.08685,-0.08098 -0.155995,-0.181061 -0.199749,-0.291452 -0.08609,-0.217214 -0.06837,-0.472398 0.04432,-0.677078 0.03119,-0.05665 0.07097,-0.111175 0.127113,-0.143273 0.06478,-0.03704 0.146108,-0.03963 0.216588,-0.01512 0.07048,0.02452 0.130478,0.07418 0.175646,0.133582 0.09034,0.118801 0.122073,0.270332 0.163748,0.413642 0.02219,0.07631 0.04795,0.152174 0.05756,0.231067 0.0096,0.07889 0.0017,0.16268 -0.03944,0.230664 -0.04179,0.06902 -0.114373,0.115355 -0.191388,0.139414 -0.07701,0.02406 -0.158814,0.02788 -0.239498,0.02752 -0.330908,-0.0015 -0.657969,-0.07019 -0.977537,-0.156088 -0.294426,-0.07914 -0.591184,-0.176348 -0.834313,-0.3603 -0.05479,-0.04145 -0.106764,-0.08738 -0.148804,-0.141721 -0.04204,-0.05434 -0.07395,-0.117567 -0.08533,-0.185318 -0.01411,-0.08397 0.0039,-0.170723 0.0359,-0.249625 0.03201,-0.0789 0.07762,-0.151407 0.121363,-0.224461 0.03982,-0.0665 0.07858,-0.134234 0.128921,-0.193181 0.05034,-0.05895 0.113776,-0.109327 0.188258,-0.1308 0.09095,-0.02622 0.188755,-0.0072 0.278886,0.02172 0.08229,0.02639 0.162621,0.06126 0.232735,0.111783 0.07012,0.05052 0.129827,0.117494 0.163305,0.197167 0.03901,0.09283 0.04052,0.198352 0.01919,0.296763 -0.02132,0.09841 -0.06432,0.190788 -0.112185,0.27938 -0.06434,0.119094 -0.138546,0.233687 -0.230522,0.333003 -0.09198,0.09932 -0.202431,0.183207 -0.327935,0.233922 -0.0969,0.03916 -0.20194,0.05805 -0.306414,0.05512"
       id="path3609"
       inkscape:path-effect="#path-effect3617;#path-effect3621"
       inkscape:original-d="m 30.935664,20.727679 c 0.372773,0.301132 1.073084,0.45266 1.248687,0.971761 0.217024,0.641547 -0.134197,2.473364 -0.862918,2.719884 -0.707215,0.239247 -1.011817,-0.598054 -0.516173,-1.077301 0.379069,-0.366536 1.991348,0.458811 2.023104,0.987878 0.0073,0.121444 0.19211,0.57751 0.151242,0.682115 -0.26944,0.689661 -0.289846,1.05401 -0.963097,1.306237 -0.06367,0.02384 -0.978565,-0.158681 -0.924881,-0.359038 0.209922,-0.783457 1.493088,-0.0643 1.665021,0.487905 0.180699,0.580363 -0.570637,1.230203 -1.149517,1.415567 -0.47389,0.151745 -0.62249,0.07967 -1.439104,-0.39668 -0.20787,-0.121252 0.646066,-0.680317 0.968435,-0.509608 0.526342,0.278722 1.147075,1.360736 0.200421,1.775503 -0.303526,0.132981 -0.698034,0.0024 -0.99649,-0.0535 -1.297878,-0.262158 -1.452064,-1.559613 -0.313777,-2.725267 0.286435,-0.293322 0.613263,-0.177978 0.375841,0.3022 -0.230485,0.466156 -1.644191,0.335388 -1.373396,-0.675198 0.187274,-0.698933 0.199113,-1.319289 0.940236,-1.120705 0.215413,0.05772 0.43829,0.27985 0.502259,0.503473 0.03423,0.119629 -0.102016,0.458557 -0.282198,0.427414 -0.347151,-0.06 -0.62986,-0.20231 -0.961554,-0.291188 -0.269018,-0.07209 -0.25624,-0.321894 -0.44949,-0.449497 -0.113479,-0.07493 -0.259972,-0.990249 -0.280169,-1.039657 -0.119796,-0.293054 -0.08213,-0.680786 0.0074,-1.014721 0.08201,-0.306057 0.656994,-0.724362 0.948839,-0.218858 0.09858,0.170745 0.600124,0.396265 0.540723,0.557884 -0.07495,0.203785 -0.593689,0.139928 -0.745604,0.311246 -0.134338,0.151493 -0.852726,-0.01146 -0.776672,-0.510812 0.08129,-0.53375 0.0749,-1.228443 0.307765,-1.699405 0.234337,-0.473947 1.604042,0.08501 1.636546,0.62654 0.01708,0.284556 -0.705331,0.170949 -0.749276,0.168116 -1.080386,-0.06968 -1.319164,-0.41035 -1.216795,-1.466248 0.04978,-0.513348 0.806338,-1.412155 1.374602,-1.375506 0.05221,0.0034 1.260466,0.305909 0.990596,0.433113 -1.276068,0.601472 -2.063884,0.300437 -2.974639,-0.662926 -0.265906,-0.281267 0.210998,-0.915985 0.274416,-0.898994 0.518031,0.138811 0.17704,1.421672 -0.395077,1.636009 -0.75362,0.282336 -2.056587,-0.07326 -2.662957,-0.610977 -0.313512,-0.278009 -0.381181,-1.182697 0.17052,-1.262186 1.272717,-0.183372 1.471636,1.693015 0.571415,1.997555 -0.305679,0.103406 -0.53423,0.0689 -0.880569,0.03233 -0.383595,-0.0405 -2.384066,-0.746773 -2.321149,0.301451 0.01241,0.20664 1.576806,0.979185 1.645885,0.4058 0.02748,-0.22804 0.08512,-0.704116 -0.06952,-0.806215 -0.169424,-0.111862 -0.245767,-0.280205 -0.433544,-0.384453 -0.407774,-0.226373 -1.420483,-0.388359 -1.806943,-0.01468 -0.138177,0.133606 -0.260149,0.340168 -0.352936,0.499244 -0.188257,0.322747 -0.350082,1.571604 -0.297566,1.936106 0.02383,0.165423 0.203057,0.385427 0.299859,0.471261 0.164044,0.145467 0.940594,0.438605 1.148257,0.124078 0.155697,-0.235818 -0.376345,-0.845074 -0.493121,-0.876366 -0.287285,-0.07698 -0.621142,0.101772 -0.947785,0.121378 -0.188109,0.01128 -0.812528,1.079382 -0.786248,1.261795 0.06843,0.474951 0.714824,1.033004 1.052559,1.1235 0.492743,0.132035 0.744141,0.306328 0.782812,-0.293271 0.0239,-0.3707 -1.174615,-0.613467 -1.453043,-0.259625 -0.140706,0.178816 -0.328402,0.837941 -0.367377,1.046178 -0.04741,0.253324 0.171976,0.706619 0.347078,0.929699 0.183037,0.233195 2.204841,0.978736 1.871162,0.400777 -0.05203,-0.09011 -0.212111,-0.403422 -0.299624,-0.481022 -0.293898,-0.260619 -1.093074,0.0745 -1.185667,0.420074 -0.0275,0.102607 0.03537,0.247416 0.04132,0.346423 0.04638,0.77267 0.81355,0.827481 1.379902,1.026914 0.343723,0.121037 0.774169,0.177835 1.153852,0.155044 0.184988,-0.01111 0.406992,-0.152404 0.515736,-0.297765 0.682201,-0.911887 -0.670236,-1.410717 -0.921928,-1.029505 -0.538705,0.81592 1.700276,1.287891 2.057293,0.797164 0.659969,-0.907137 -0.110562,-1.34634 -0.780402,-1.7182 -0.129763,-0.07203 -0.491008,-0.08568 -0.505106,0.132938 -0.04303,0.667287 1.545272,1.114272 1.681789,-0.01885 0.114414,-0.949682 -0.635321,-1.377507 -1.450335,-1.595894 -0.15099,-0.04046 -0.639306,-0.242306 -0.715741,0.04296 -0.245262,0.915348 1.523542,1.247174 1.787326,0.71367 0.666154,-1.347296 -2.430283,-2.285422 -1.909631,-1.383612 0.320938,0.55589 1.116997,0.464758 1.454387,-0.04625 0.314041,-0.475645 0.249778,-0.996614 0.915304,-1.163224 0.723803,-0.1812 1.979447,0.907374 0.163622,1.016366 -0.44193,0.02652 -1.167944,-0.230718 -0.639686,-0.741506 0.299378,-0.28948 1.616783,0.02067 1.910835,0.377875 0.189891,0.230664 0.168502,0.413773 0.184882,0.68671 0.01757,0.292819 0.04514,0.712453 -0.126356,0.972203 -0.218192,0.33047 -1.285358,0.205369 -1.347647,-0.226966 -0.17762,-1.232834 1.932328,-0.432601 1.916974,0.480126 -0.01039,0.617758 -0.345597,1.446209 -1.090761,1.31742 -0.134213,-0.02319 -0.685474,-0.195153 -0.621274,-0.434755 0.01186,-0.04425 0.08367,-0.03957 0.119016,-0.06871 0.126939,-0.104508 0.248374,-0.235771 0.413489,-0.291626 0.189054,-0.06396 0.33317,0.03972 0.517382,0.07156 0.557326,0.09633 1.0568,0.307272 1.123532,0.938226 0.130314,1.232114 -1.876989,0.642968 -1.669514,0.223354 0.192002,-0.388324 1.210519,-0.08825 1.443756,0.118578 0.165444,0.146707 0.408975,0.534008 0.435189,0.753781 0.04082,0.342316 -0.132523,1.190649 -0.494036,1.343175 -0.215625,0.09097 -1.471809,-0.139035 -1.433127,-0.283406 0.245655,-0.916812 2.796873,0.324836 1.932537,1.423284 -0.505068,0.641869 -3.405882,0.04917 -2.811459,-1.021624 0.103077,-0.185679 0.227062,-0.173903 0.40286,-0.126797 0.918871,0.246215 1.000132,1.377138 0.02948,1.516991 -0.353921,0.05099 -1.690176,-0.286303 -1.826999,-0.690763 -0.03879,-0.114673 0.0063,-0.937302 0.10959,-0.909624 0.547059,0.146586 1.071699,1.126049 0.255241,1.175057 -0.481736,0.02892 -1.952525,-0.281226 -2.100212,-0.797507 -0.05918,-0.206857 0.272755,-0.889964 0.564395,-0.854827 1.320475,0.159095 0.150516,1.683561 -0.379512,1.54154"
       sodipodi:nodetypes="csssssssaasascsssssssssssssssscsssscssssssssssssssssssssssscscsscsssssssssssssssssssscssssssscsssssssssc" /><circle
       style="fill:#9f4a74;fill-opacity:1;stroke:none;stroke-width:0.662734;stroke-linecap:round;stroke-miterlimit:2;stroke-dasharray:4.63913, 1.32547;stroke-dashoffset:0;paint-order:fill markers stroke;stop-color:#000000"
       id="circle3611"
       cx="33.520363"
       cy="-2.134495"
       r="2.2385364"
       transform="rotate(45)" /></g><text
     xml:space="preserve"
     style="font-weight:bold;font-size:7.05556px;line-height:1;font-family:Arial;-inkscape-font-specification:'Arial Bold';text-align:center;text-decoration-color:#000000;opacity:1;fill:#000000;stroke:none;stroke-width:1.065;stroke-linecap:round;stroke-linejoin:round;stroke-miterlimit:2;paint-order:fill markers stroke;stop-color:#000000"
     x="21.339283"
     y="17.95233"
     id="text1634"><tspan
       sodipodi:role="line"
       style="font-size:7.05556px;text-align:center;text-anchor:middle;opacity:1;fill:#000000;stroke-width:1.065"
       x="21.339283"
       y="17.95233"
       id="tspan1632">Nucleolus</tspan></text><path
     style="opacity:1;fill:none;stroke:#000000;stroke-width:1.065;stroke-linecap:round;stroke-linejoin:round;stroke-miterlimit:2;paint-order:fill markers stroke;stop-color:#000000"
     d="M 22.890446,20.522059 39.321402,39.678441"
     id="path2434"
     sodipodi:nodetypes="cc" /><text
     xml:space="preserve"
     style="font-weight:bold;font-size:7.05556px;line-height:1;font-family:Arial;-inkscape-font-specification:'Arial Bold';text-align:center;text-decoration-color:#000000;opacity:1;fill:#000000;stroke:none;stroke-width:1.065;stroke-linecap:round;stroke-linejoin:round;stroke-miterlimit:2;paint-order:fill markers stroke;stop-color:#000000"
     x="77.604347"
     y="89.96978"
     id="text6167"><tspan
       sodipodi:role="line"
       style="font-size:7.05556px;text-align:center;text-anchor:middle;opacity:1;fill:#000000;stroke-width:1.065"
       x="77.604347"
       y="89.96978"
       id="tspan6165">Nuclear</tspan><tspan
       sodipodi:role="line"
       style="font-size:7.05556px;text-align:center;text-anchor:middle;opacity:1;fill:#000000;stroke-width:1.065"
       x="77.604347"
       y="97.025337"
       id="tspan8059">Envelope</tspan></text><path
     style="opacity:1;fill:none;stroke:#000000;stroke-width:1.065;stroke-linecap:round;stroke-linejoin:round;stroke-miterlimit:2;paint-order:fill markers stroke;stop-color:#000000"
     d="m 66.718484,75.645123 8.025263,8.429743"
     id="path6169"
     sodipodi:nodetypes="cc" /><text
     xml:space="preserve"
     style="font-weight:bold;font-size:7.05556px;line-height:1;font-family:Arial;-inkscape-font-specification:'Arial Bold';text-align:center;text-decoration-color:#000000;opacity:1;fill:#000000;stroke:none;stroke-width:1.065;stroke-linecap:round;stroke-linejoin:round;stroke-miterlimit:2;paint-order:fill markers stroke;stop-color:#000000"
     x="82.406471"
     y="9.1451979"
     id="text6761"><tspan
       sodipodi:role="line"
       style="font-size:7.05556px;text-align:center;text-anchor:middle;opacity:1;fill:#000000;stroke-width:1.065"
       x="82.406471"
       y="9.1451979"
       id="tspan6765">Nuclear</tspan><tspan
       sodipodi:role="line"
       style="font-size:7.05556px;text-align:center;text-anchor:middle;opacity:1;fill:#000000;stroke-width:1.065"
       x="82.406471"
       y="16.200758"
       id="tspan6769">Pore</tspan></text><path
     style="opacity:1;fill:none;stroke:#000000;stroke-width:1.065;stroke-linecap:round;stroke-linejoin:round;stroke-miterlimit:2;paint-order:fill markers stroke;stop-color:#000000"
     d="M 82.025571,18.098721 73.970886,32.174364"
     id="path6763"
     sodipodi:nodetypes="cc" /><text
     xml:space="preserve"
     style="font-weight:bold;font-size:7.05556px;line-height:1;font-family:Arial;-inkscape-font-specification:'Arial Bold';text-align:center;text-decoration-color:#000000;opacity:1;fill:#000000;stroke:none;stroke-width:1.065;stroke-linecap:round;stroke-linejoin:round;stroke-miterlimit:2;paint-order:fill markers stroke;stop-color:#000000"
     x="89.702934"
     y="66.020149"
     id="text6775"><tspan
       sodipodi:role="line"
       style="font-size:7.05556px;text-align:center;text-anchor:middle;opacity:1;fill:#000000;stroke-width:1.065"
       x="89.702934"
       y="66.020149"
       id="tspan6773">DNA</tspan></text><path
     style="opacity:1;fill:none;stroke:#000000;stroke-width:1.065;stroke-linecap:round;stroke-linejoin:round;stroke-miterlimit:2;paint-order:fill markers stroke;stop-color:#000000"
     d="m 67.791727,53.636753 13.063361,9.427772"
     id="path7373"
     sodipodi:nodetypes="cc" /><circle
     style="opacity:1;fill:#ce0000;fill-opacity:1;stroke:none;stroke-width:6.65721;stroke-linecap:round;stroke-miterlimit:2;stroke-dasharray:none;stroke-dashoffset:0;stroke-opacity:1;paint-order:fill markers stroke;stop-color:#000000"
     id="circle14258"
     cx="73.187668"
     cy="48.983597"
     r="1.335955"
     inkscape:label="Ribosome" /><circle
     style="opacity:1;fill:#ce0000;fill-opacity:1;stroke:none;stroke-width:6.65721;stroke-linecap:round;stroke-miterlimit:2;stroke-dasharray:none;stroke-dashoffset:0;stroke-opacity:1;paint-order:fill markers stroke;stop-color:#000000"
     id="circle7980"
     cx="12.011569"
     cy="58.446682"
     r="1.335955"
     inkscape:label="Ribosome" /><circle
     style="opacity:1;fill:#ce0000;fill-opacity:1;stroke:none;stroke-width:6.65721;stroke-linecap:round;stroke-miterlimit:2;stroke-dasharray:none;stroke-dashoffset:0;stroke-opacity:1;paint-order:fill markers stroke;stop-color:#000000"
     id="circle7982"
     cx="75.350677"
     cy="76.268723"
     r="1.335955"
     inkscape:label="Ribosome" /><circle
     style="opacity:1;fill:#ce0000;fill-opacity:1;stroke:none;stroke-width:6.65721;stroke-linecap:round;stroke-miterlimit:2;stroke-dasharray:none;stroke-dashoffset:0;stroke-opacity:1;paint-order:fill markers stroke;stop-color:#000000"
     id="circle7984"
     cx="40.182178"
     cy="63.438438"
     r="1.335955"
     inkscape:label="Ribosome" /><circle
     style="opacity:1;fill:#ce0000;fill-opacity:1;stroke:none;stroke-width:6.65721;stroke-linecap:round;stroke-miterlimit:2;stroke-dasharray:none;stroke-dashoffset:0;stroke-opacity:1;paint-order:fill markers stroke;stop-color:#000000"
     id="circle7986"
     cx="57.115513"
     cy="25.338436"
     r="1.335955"
     inkscape:label="Ribosome" /><text
     xml:space="preserve"
     style="font-weight:bold;font-size:7.05556px;line-height:1;font-family:Arial;-inkscape-font-specification:'Arial Bold';text-align:center;text-decoration-color:#000000;opacity:1;fill:#000000;stroke:none;stroke-width:1.065;stroke-linecap:round;stroke-linejoin:round;stroke-miterlimit:2;paint-order:fill markers stroke;stop-color:#000000"
     x="19.13599"
     y="82.346153"
     id="text7990"><tspan
       sodipodi:role="line"
       style="font-size:7.05556px;text-align:center;text-anchor:middle;opacity:1;fill:#000000;stroke-width:1.065"
       x="19.13599"
       y="82.346153"
       id="tspan7988">Exiting</tspan><tspan
       sodipodi:role="line"
       style="font-size:7.05556px;text-align:center;text-anchor:middle;opacity:1;fill:#000000;stroke-width:1.065"
       x="19.13599"
       y="89.401711"
       id="tspan7992">Ribosome</tspan></text><path
     style="opacity:1;fill:none;stroke:#000000;stroke-width:1.065;stroke-linecap:round;stroke-linejoin:round;stroke-miterlimit:2;paint-order:fill markers stroke;stop-color:#000000"
     d="M 18.576575,75.716114 12.589737,60.000665"
     id="path8057"
     sodipodi:nodetypes="cc" /></svg>
